<?xml version="1.0" encoding="utf-8"?>
<!-- Generator: Adobe Illustrator 22.1.0, SVG Export Plug-In . SVG Version: 6.00 Build 0)  -->
<svg version="1.1" id="Layer_1" xmlns="http://www.w3.org/2000/svg" xmlns:xlink="http://www.w3.org/1999/xlink" x="0px" y="0px"
	 viewBox="0 0 105.3 105.2" style="enable-background:new 0 0 105.3 105.2;" xml:space="preserve">
<style type="text/css">
	.st0{fill:#EEAEA7;stroke:#000000;stroke-width:0.6028;stroke-miterlimit:10;}
	.st1{fill:#E3B183;stroke:#231916;stroke-width:0.6885;stroke-miterlimit:10;}
	.st2{fill:#A97546;stroke:#231916;stroke-width:0.973;stroke-miterlimit:10;}
	.st3{fill:#AA7551;stroke:#231916;stroke-width:0.973;stroke-miterlimit:10;}
	.st4{fill:#A97546;stroke:#231916;stroke-width:0.6885;stroke-miterlimit:10;}
</style>
<g>
	<circle class="st0" cx="52.7" cy="52.6" r="51.9"/>
	<ellipse transform="matrix(0.784 -0.6208 0.6208 0.784 -21.3165 43.9925)" class="st1" cx="52.6" cy="52.6" rx="37.7" ry="17.7"/>
	<path class="st2" d="M43.6,42c11.3,0.3,17.7,10.6,19,20.2c0.9,6.7-10.4-17.7-24.2-17.5L43.6,42z"/>
	<path class="st3" d="M59.2,32.4c10.5,0.3,16.8,9.7,18.1,17.8c0.8,5.7-9.1-14.6-22-14.4L59.2,32.4z"/>
	<path class="st4" d="M33,56.1c7.4,0.2,12.4,7.5,13.3,13.2c0.6,4-6.7-10-15.8-9.9L33,56.1z"/>
</g>
</svg>
