<?xml version="1.0" encoding="utf-8"?>
<!-- Generator: Adobe Illustrator 22.1.0, SVG Export Plug-In . SVG Version: 6.00 Build 0)  -->
<svg version="1.1" id="Layer_1" xmlns="http://www.w3.org/2000/svg" xmlns:xlink="http://www.w3.org/1999/xlink" x="0px" y="0px"
	 viewBox="0 0 105.3 105.2" style="enable-background:new 0 0 105.3 105.2;" xml:space="preserve">
<style type="text/css">
	.st0{fill:#FCFCFC;stroke:#DB5845;stroke-width:0.5;stroke-miterlimit:10;}
	.st1{fill:#FCFCFC;stroke:#F3BB75;stroke-width:0.5;stroke-miterlimit:10;}
	.st2{fill:#FCFCFC;stroke:#A3C46A;stroke-miterlimit:10;}
	.st3{fill:#FFFFFF;stroke:#000000;stroke-width:0.25;stroke-miterlimit:10;}
	.st4{fill:#EE1A19;}
	.st5{fill:#22205F;}
	.st6{fill:#F2F2F2;stroke:#000000;stroke-width:0.25;stroke-miterlimit:10;}
	.st7{fill:#ED1C24;}
	.st8{display:none;fill:#F0EEEB;}
	.st9{fill:#4D4D4D;}
	.st10{fill:#A3C46A;stroke:#80C8BD;stroke-width:0.5;stroke-miterlimit:10;}
	.st11{fill:#85CABE;}
	.st12{fill:#F3BB75;}
	.st13{fill:#ED7F5A;}
	.st14{fill:#DB5845;}
	.st15{fill:#FC8714;}
	.st16{fill:#F7F2F2;}
	.st17{fill:#017F01;}
	.st18{fill:#000088;}
	.st19{fill:#FFFFFF;}
	.st20{fill:#F0EEEB;stroke:#020202;stroke-width:0.25;stroke-miterlimit:10;}
	.st21{fill:#32245F;}
	.st22{fill:#B00E2E;}
	.st23{fill:#F2F2F2;}
</style>
<g id="Noodles">
	<circle class="st0" cx="238.7" cy="7.8" r="51.9"/>
	<path class="st0" d="M273.9-34"/>
</g>
<g id="Noodles_1_">
	<circle class="st1" cx="52.2" cy="52.9" r="51.9"/>
	<path class="st1" d="M87.4,11.1"/>
</g>
<g id="Noodles_2_">
	<circle class="st2" cx="-317.1" cy="-108.5" r="51.9"/>
	<path class="st2" d="M-281.9-150.3"/>
</g>
<path id="korea_5_" class="st3" d="M254-14.3c9.3-2.4,21.4,11.6,33.2,17.6c0,9.9-11.4,15.9-9.1,25.9c-15.9-2.3-23.6-18-36.6-18.5
	L254-14.3z"/>
<path class="st4" d="M253.1,14.9c-2-1.3-7.6-3.5-11.1-4.3L254-14.6c4.1-0.1,8.7,1.5,12.2,3.5L253.1,14.9z"/>
<path class="st4" d="M278.1,29.3c-2.3,0.1-9.8-3.2-12.4-5l12.2-26.9c2.8,2.1,6.1,4.2,9.2,5.9C289.1,9.5,275.5,19.7,278.1,29.3z"/>
<path class="st4" d="M266.6,9.6l3.7-0.7l-0.4-0.8l1.3-1.4L269.4,6l0.1-0.9c-3.4,1.7-2-0.1,0.2-2.4l-1.4,0l0.1-2.4l-2.1,1.3l-0.8-1.1
	c-1,4.6-1.4,4.4-1.6,1.3l-1,0.6l-1.5-1.1l-0.3,1.9l-1,0.1l1.5,3.6c0,0-0.5,0.7-0.8,0.9c0.7,0.1,2,0.8,2.6,1.1l-0.9,1.7l0.3,0.2
	l0.9-1.7c0,0,2.1,1.6,2.4,1.7C266.1,10.6,266.6,9.6,266.6,9.6z"/>
<path id="korea_7_" class="st3" d="M223.3-14.3c-9.3-2.4-21.4,11.6-33.2,17.6c0,9.9,11.4,15.9,9.1,25.9c15.9-2.3,23.6-18,36.6-18.5
	L223.3-14.3z"/>
<path class="st5" d="M228.4-3.9l-17.6,8.8l-6.2-11.4c2.2-1,10.9-9.5,18.8-7.9L228.4-3.9z"/>
<polygon class="st6" points="222.4,-12.4 221.8,-12.5 221.3,-12.1 221.2,-12.7 220.7,-13 221.3,-13.3 221.4,-13.9 221.8,-13.5 
	222.5,-13.5 222.1,-13 "/>
<polygon class="st6" points="223.6,-9.6 223,-9.8 222.5,-9.3 222.4,-10 221.9,-10.3 222.5,-10.5 222.6,-11.2 223,-10.7 223.7,-10.8 
	223.3,-10.2 "/>
<polygon class="st6" points="224.8,-6.9 224.2,-7 223.7,-6.6 223.7,-7.2 223.1,-7.5 223.7,-7.8 223.8,-8.4 224.2,-7.9 224.9,-8 
	224.6,-7.5 "/>
<polygon class="st6" points="226.2,-4.1 225.6,-4.2 225.1,-3.8 225,-4.4 224.5,-4.8 225.1,-5 225.2,-5.7 225.6,-5.2 226.3,-5.3 
	225.9,-4.7 "/>
<g>
	<polygon class="st6" points="219.7,-11.7 219,-11.8 218.6,-11.4 218.5,-12 217.9,-12.3 218.5,-12.6 218.6,-13.2 219.1,-12.8 
		219.7,-12.9 219.4,-12.3 	"/>
	<polygon class="st6" points="220.9,-8.9 220.2,-9.1 219.8,-8.6 219.7,-9.3 219.1,-9.6 219.7,-9.8 219.8,-10.5 220.3,-10 
		220.9,-10.1 220.6,-9.5 	"/>
	<polygon class="st6" points="222.1,-6.2 221.4,-6.3 221,-5.9 220.9,-6.5 220.3,-6.8 220.9,-7.1 221,-7.7 221.5,-7.2 222.1,-7.3 
		221.8,-6.8 	"/>
	<polygon class="st6" points="223.5,-3.4 222.8,-3.6 222.3,-3.1 222.3,-3.8 221.7,-4.1 222.3,-4.3 222.4,-5 222.8,-4.5 223.5,-4.6 
		223.2,-4 	"/>
</g>
<polygon class="st6" points="216.7,-10.7 216.1,-10.8 215.6,-10.3 215.6,-11 215,-11.3 215.6,-11.6 215.7,-12.2 216.1,-11.7 
	216.8,-11.8 216.4,-11.3 "/>
<polygon class="st6" points="217.9,-7.9 217.3,-8 216.8,-7.6 216.8,-8.2 216.2,-8.5 216.8,-8.8 216.9,-9.5 217.3,-9 218,-9.1 
	217.7,-8.5 "/>
<polygon class="st6" points="219.1,-5.1 218.5,-5.3 218,-4.8 218,-5.5 217.4,-5.8 218,-6.1 218.1,-6.7 218.5,-6.2 219.2,-6.3 
	218.9,-5.7 "/>
<polygon class="st6" points="220.5,-2.4 219.9,-2.5 219.4,-2.1 219.3,-2.7 218.8,-3 219.4,-3.3 219.5,-3.9 219.9,-3.5 220.6,-3.5 
	220.2,-3 "/>
<g>
	<polygon class="st6" points="213.8,-9.3 213.2,-9.4 212.7,-9 212.6,-9.6 212,-9.9 212.6,-10.2 212.8,-10.8 213.2,-10.4 
		213.8,-10.4 213.5,-9.9 	"/>
	<polygon class="st6" points="215,-6.5 214.4,-6.7 213.9,-6.2 213.8,-6.9 213.3,-7.2 213.8,-7.4 214,-8.1 214.4,-7.6 215,-7.7 
		214.7,-7.1 	"/>
	<polygon class="st6" points="216.2,-3.8 215.6,-3.9 215.1,-3.4 215,-4.1 214.5,-4.4 215.1,-4.7 215.2,-5.3 215.6,-4.8 216.3,-4.9 
		215.9,-4.4 	"/>
	<polygon class="st6" points="217.6,-1 217,-1.1 216.5,-0.7 216.4,-1.3 215.8,-1.6 216.4,-1.9 216.5,-2.6 217,-2.1 217.6,-2.2 
		217.3,-1.6 	"/>
</g>
<g>
	<polygon class="st6" points="211.2,-7.6 210.6,-7.7 210.1,-7.2 210,-7.9 209.5,-8.2 210.1,-8.5 210.2,-9.1 210.6,-8.6 211.3,-8.7 
		210.9,-8.2 	"/>
	<polygon class="st6" points="212.4,-4.8 211.8,-4.9 211.3,-4.5 211.2,-5.1 210.7,-5.4 211.3,-5.7 211.4,-6.4 211.8,-5.9 212.5,-6 
		212.1,-5.4 	"/>
	<polygon class="st6" points="213.6,-2 213,-2.2 212.5,-1.7 212.4,-2.4 211.9,-2.7 212.5,-3 212.6,-3.6 213,-3.1 213.7,-3.2 
		213.3,-2.6 	"/>
	<polygon class="st6" points="215,0.7 214.4,0.6 213.9,1 213.8,0.4 213.3,0.1 213.8,-0.2 214,-0.8 214.4,-0.4 215,-0.4 214.7,0.1 	
		"/>
</g>
<g>
	<polygon class="st6" points="208.6,-5.7 208,-5.8 207.5,-5.3 207.4,-6 206.9,-6.3 207.5,-6.6 207.6,-7.2 208,-6.7 208.7,-6.8 
		208.3,-6.3 	"/>
	<polygon class="st6" points="209.8,-2.9 209.2,-3 208.7,-2.6 208.7,-3.2 208.1,-3.5 208.7,-3.8 208.8,-4.5 209.2,-4 209.9,-4.1 
		209.6,-3.5 	"/>
	<polygon class="st6" points="211,-0.1 210.4,-0.3 209.9,0.2 209.9,-0.5 209.3,-0.8 209.9,-1.1 210,-1.7 210.4,-1.2 211.1,-1.3 
		210.8,-0.7 	"/>
	<polygon class="st6" points="212.4,2.6 211.8,2.5 211.3,2.9 211.2,2.3 210.7,2 211.3,1.7 211.4,1.1 211.8,1.5 212.5,1.5 212.1,2 	
		"/>
</g>
<path class="st7" d="M190.1,4.3l15.9-8l-1.4-2.7c-4.9,3.9-12,8.5-14.5,9.8C190.1,3.4,190.1,4.1,190.1,4.3z"/>
<path class="st7" d="M191.1,8.7c6.8-3.5,13.8-7.1,17.1-8.4l-0.7-1.6c-3.4,1.3-10.4,4.7-16.9,8.6L191.1,8.7z"/>
<path class="st7" d="M193.9,13.7c5.6-3.1,11.2-6,16.9-8.8l-0.7-1.4c-2.9,1.1-10.3,5.2-17.1,8.8C193.3,12.8,193.5,13.3,193.9,13.7z"
	/>
<path class="st7" d="M197.5,19.6c6.6-3,20.2-10.4,34.1-17.1l-1-2.2c-6.7,2.5-20.6,10.3-34.3,17.2L197.5,19.6z"/>
<path class="st7" d="M199.4,27.5c14.3-6.3,28.9-17.1,35.8-18l-1.3-2.5c-4.5,1.7-20.6,11.1-34.7,17.5
	C199.5,25.4,199.5,26.4,199.4,27.5z"/>
<g>
	<path id="korea_4_" class="st8" d="M253.2-13.6c9.3-2.3,21.3,11.7,33.2,17.8c-0.1,9.9-11.5,15.9-9.3,25.8
		c-15.9-2.4-23.5-18.1-36.5-18.6L253.2-13.6z"/>
	<path class="st9" d="M230.2,30.2l0.1,0.1c0.3,0.2,0.7,0,0.8-0.3l22.4-44.4c0.2-0.3,0-0.7-0.3-0.8l-0.1-0.1c-0.3-0.2-0.7,0-0.8,0.3
		l-22.4,44.4C229.8,29.7,229.9,30,230.2,30.2z"/>
</g>
<g>
	<path id="korea_8_" class="st8" d="M224-13.6c-9.3-2.3-21.3,11.7-33.2,17.8c0.1,9.9,11.5,15.9,9.3,25.8
		c15.9-2.4,23.5-18.1,36.5-18.6L224-13.6z"/>
	<path class="st9" d="M247,30.2l-0.1,0.1c-0.3,0.2-0.7,0-0.8-0.3l-22.4-44.4c-0.2-0.3,0-0.7,0.3-0.8l0.1-0.1c0.3-0.2,0.7,0,0.8,0.3
		l22.4,44.4C247.5,29.7,247.3,30,247,30.2z"/>
</g>
<g id="Colour_Palette">
	<g>
		<text transform="matrix(1 0 0 1 -76.877 232.7593)" style="font-family:'Ranchers-Regular'; font-size:30.0029px;">Colour Palette</text>
	</g>
	<polygon class="st10" points="155.8,386.5 170.5,410.3 198.5,409.4 211.7,384.8 197,361 169.1,361.8 	"/>
	<polygon class="st11" points="68,481.6 82.8,505.4 110.7,504.5 123.9,479.9 109.2,456.1 81.3,456.9 	"/>
	<polygon class="st12" points="-213.4,384 -198.6,407.8 -170.7,407 -157.4,382.3 -172.2,358.5 -200.1,359.4 	"/>
	<polygon class="st13" points="-116.7,478.5 -102,502.3 -74,501.5 -60.8,476.8 -75.5,453.1 -103.4,453.9 	"/>
	<polygon class="st14" points="-24,391.6 -9.3,415.4 18.7,414.6 31.9,389.9 17.2,366.1 -10.8,367 	"/>
	<text transform="matrix(1 0 0 1 -212.939 431.937)" style="font-family:'Mali-Bold'; font-size:11.3033px;">Soft Yellow</text>
	<text transform="matrix(1 0 0 1 -122.2627 431.937)" style="font-family:'Mali-Bold'; font-size:11.3033px;">Pale Orange</text>
	<g>
		<text transform="matrix(1 0 0 1 -16.9648 431.8755)" style="font-family:'Mali-Bold'; font-size:11.3033px;">Pale Red</text>
	</g>
	<g>
		<text transform="matrix(1 0 0 1 64.75 432.0249)" style="font-family:'Mali-Bold'; font-size:11.3033px;">Ocean Blue</text>
	</g>
	<g>
		<text transform="matrix(1 0 0 1 151.2285 432.0249)" style="font-family:'Mali-Bold'; font-size:11.3033px;">Lime Green</text>
	</g>
	<text transform="matrix(1 0 0 1 -217.2451 456.1587)" style="font-family:'Mali-Regular'; font-size:8.0738px;">RGB</text>
	<text transform="matrix(1 0 0 1 -217.2451 472.8452)" style="font-family:'Mali-Regular'; font-size:8.0738px;">HEX</text>
	<text transform="matrix(1 0 0 1 -217.2451 487.3784)" style="font-family:'Mali-Regular'; font-size:8.0738px;">CMYK</text>
	<text transform="matrix(1 0 0 1 -122.2627 372.3921)" style="font-family:'Mali-Regular'; font-size:8.0738px;">RGB</text>
	<text transform="matrix(1 0 0 1 -122.2627 389.0777)" style="font-family:'Mali-Regular'; font-size:8.0738px;">HEX</text>
	<text transform="matrix(1 0 0 1 -122.2627 403.6099)" style="font-family:'Mali-Regular'; font-size:8.0738px;">CMYK</text>
	<text transform="matrix(1 0 0 1 -28.6309 460.7027)" style="font-family:'Mali-Regular'; font-size:8.0738px;">RGB</text>
	<text transform="matrix(1 0 0 1 -28.6309 477.3892)" style="font-family:'Mali-Regular'; font-size:8.0738px;">HEX</text>
	<text transform="matrix(1 0 0 1 -30.7832 494.6128)" style="font-family:'Mali-Regular'; font-size:8.0738px;">CMYK</text>
	<text transform="matrix(1 0 0 1 58.8672 378.8511)" style="font-family:'Mali-Regular'; font-size:8.0738px;">RGB</text>
	<text transform="matrix(1 0 0 1 58.8672 395.5367)" style="font-family:'Mali-Regular'; font-size:8.0738px;">HEX</text>
	<text transform="matrix(1 0 0 1 58.8672 410.0699)" style="font-family:'Mali-Regular'; font-size:8.0738px;">CMYK</text>
	<text transform="matrix(1 0 0 1 151.083 462.3804)" style="font-family:'Mali-Regular'; font-size:8.0738px;">RGB</text>
	<text transform="matrix(1 0 0 1 151.083 479.0659)" style="font-family:'Mali-Regular'; font-size:8.0738px;">HEX</text>
	<text transform="matrix(1 0 0 1 151.083 493.5992)" style="font-family:'Mali-Regular'; font-size:8.0738px;">CMYK</text>
	<line class="st12" x1="-136" y1="364.1" x2="-137.1" y2="491.1"/>
	<line class="st13" x1="-40.7" y1="367" x2="-41.8" y2="494"/>
	<line class="st14" x1="49.6" y1="365.2" x2="48.5" y2="492.3"/>
	<line class="st11" x1="140.2" y1="368.2" x2="139.1" y2="495.2"/>
	<g>
		<text transform="matrix(1 0 0 1 -197.8315 456.2915)" style="font-family:'Mali-Regular'; font-size:8.0738px;"> 250, 194, 117</text>
	</g>
	<g>
		<text transform="matrix(1 0 0 1 -98.998 372.1656)" style="font-family:'Mali-Regular'; font-size:8.0738px;">244, 127, 90</text>
	</g>
	<g>
		<text transform="matrix(1 0 0 1 -3.6953 460.4097)" style="font-family:'Mali-Regular'; font-size:8.0738px;">226, 88, 69</text>
	</g>
	<g>
		<text transform="matrix(1 0 0 1 81.6074 378.6372)" style="font-family:'Mali-Regular'; font-size:8.0738px;">140, 209, 197</text>
	</g>
	<g>
		<text transform="matrix(1 0 0 1 170.4395 462.1743)" style="font-family:'Mali-Regular'; font-size:8.0738px;">170, 203, 106</text>
	</g>
	<g>
		<text transform="matrix(1 0 0 1 176.9102 493.354)" style="font-family:'Mali-Regular'; font-size:8.0738px;">37, 3, 75, 0</text>
	</g>
	<g>
		<text transform="matrix(1 0 0 1 84.5488 409.8159)" style="font-family:'Mali-Regular'; font-size:8.0738px;">44, 0, 27, 0</text>
	</g>
	<g>
		<text transform="matrix(1 0 0 1 -3.6953 494.5308)" style="font-family:'Mali-Regular'; font-size:8.0738px;">6, 80, 77, 0</text>
	</g>
	<g>
		<text transform="matrix(1 0 0 1 -94.8809 403.3452)" style="font-family:'Mali-Regular'; font-size:8.0738px;">0, 62, 67, 0</text>
	</g>
	<g>
		<text transform="matrix(1 0 0 1 -189.0068 487.4712)" style="font-family:'Mali-Regular'; font-size:8.0738px;">1, 25, 61, 0</text>
	</g>
	<g>
		<text transform="matrix(1 0 0 1 -206.3618 255.7622)"><tspan x="0" y="0" style="font-family:'Mali-Regular'; font-size:11.1775px;">We decided on this colour palette because of the association these </tspan><tspan x="0" y="17.1" style="font-family:'Mali-Regular'; font-size:11.1775px;">colours all have with food.  We discovered that bright colours often pair best </tspan><tspan x="0" y="34.1" style="font-family:'Mali-Regular'; font-size:11.1775px;">with food products and would offer a more pleasurable experience our users.  </tspan><tspan x="0" y="51.2" style="font-family:'Mali-Regular'; font-size:11.1775px;">In addition, these colours represent the light and fun narrative of our </tspan><tspan x="0" y="68.2" style="font-family:'Mali-Regular'; font-size:11.1775px;">application. </tspan><tspan x="57.1" y="68.2" style="font-family:'Mali-Regular'; font-size:8.8244px;">   </tspan></text>
	</g>
</g>
<path class="st15" d="M-217.5,25"/>
<path class="st16" d="M85.7,64.3l-61.4,0l-0.7-27.6l62.9,0.2C87.6,43.1,83.7,57.8,85.7,64.3z"/>
<g>
	<path id="korea_6_" class="st8" d="M23.1,30.3c11.4-10.4,39.1,0.3,60.5,0c7.4,14.1-4.1,31.2,6.5,43.6c-24.3,8.7-47.1-7.7-65.9,1.4
		L23.1,30.3z"/>
	<path class="st9" d="M24.6,96.6l-1.6-67.8c0-0.6-0.5-1.1-1.1-1.1c-0.6,0-1.1,0.5-1.1,1.1l1.5,66.2C23.1,95.6,23.8,96.1,24.6,96.6z"
		/>
	<path class="st15" d="M23.5,44.1c28.8-3.5,52.7,3.2,62.6,2c1-5.2,0.6-11.2-2.3-16.6c-18,9.1-48.5-14-60.8,0.8L23.5,44.1z"/>
	<path class="st17" d="M24.2,75.4c10.9-9.8,48.3,5.6,66-1.6C87,69.4,85,64.7,85,59.5c-6,5.4-50.9-2.7-60.9,0L24.2,75.4z"/>
	<g>
		<circle class="st18" cx="-58.9" cy="-23.1" r="6.2"/>
		<circle class="st19" cx="-58.9" cy="-23.1" r="5.4"/>
		<circle class="st18" cx="-58.9" cy="-23.1" r="1.1"/>
		<g>
			<g>
				<g id="b_23_">
					<g id="a_47_">
						<circle class="st18" cx="-53.6" cy="-24.2" r="0.3"/>
						<path class="st18" d="M-57.1-17.9l-0.9-3.1l-0.7-1.4l0.3,1.5L-57.1-17.9z"/>
					</g>
					<g transform="rotate(15)">
						<g id="a_46_">
							<circle class="st18" cx="-53.5" cy="-22.8" r="0.3"/>
							<path class="st18" d="M-58.5-17.6l-0.1-3.3l-0.3-1.5l-0.1,1.6L-58.5-17.6z"/>
						</g>
					</g>
				</g>
				<g id="c_11_">
					<g id="b_22_">
						<g id="a_45_">
							<circle class="st18" cx="-53.7" cy="-21.4" r="0.3"/>
							<path class="st18" d="M-59.9-17.7l0.8-3.2l0.1-1.6l-0.5,1.5L-59.9-17.7z"/>
						</g>
						<g transform="rotate(30)">
							<g id="a_44_">
								<circle class="st18" cx="-54.3" cy="-20.1" r="0.3"/>
								<path class="st18" d="M-61.2-18.1l1.6-2.9l0.5-1.5l-0.8,1.3L-61.2-18.1z"/>
							</g>
						</g>
					</g>
				</g>
				<g>
					<g id="d_5_">
						<g id="b_21_">
							<g id="a_43_">
								<circle class="st18" cx="-55.2" cy="-19" r="0.3"/>
								<path class="st18" d="M-62.4-18.9l2.3-2.4l0.9-1.3l-1.1,1.1L-62.4-18.9z"/>
							</g>
							<g transform="rotate(15)">
								<g id="a_42_">
									<circle class="st18" cx="-56.4" cy="-18.2" r="0.3"/>
									<path class="st18" d="M-63.4-20l2.8-1.7l1.2-1l-1.4,0.7L-63.4-20z"/>
								</g>
							</g>
						</g>
						<g id="c_10_">
							<g id="b_20_">
								<g id="a_41_">
									<circle class="st18" cx="-57.7" cy="-17.7" r="0.3"/>
									<path class="st18" d="M-64-21.2l3.1-0.9l1.4-0.7l-1.5,0.3L-64-21.2z"/>
								</g>
								<g transform="rotate(60)">
									<g id="a_40_">
										<circle class="st18" cx="-59.2" cy="-17.6" r="0.3"/>
										<path class="st18" d="M-64.3-22.6l3.3-0.1l1.5-0.3l-1.6-0.1L-64.3-22.6z"/>
									</g>
								</g>
							</g>
						</g>
					</g>
					<g>
						<g>
							<g>
								<g id="b_19_">
									<g id="a_39_">
										<circle class="st18" cx="-60.6" cy="-17.9" r="0.3"/>
										<path class="st18" d="M-64.3-24l3.2,0.8l1.6,0.1l-1.5-0.5L-64.3-24z"/>
									</g>
									<g transform="rotate(15)">
										<g id="a_38_">
											<circle class="st18" cx="-61.8" cy="-18.5" r="0.3"/>
											<path class="st18" d="M-63.8-25.4l2.9,1.6l1.5,0.5l-1.3-0.8L-63.8-25.4z"/>
										</g>
									</g>
								</g>
								<g id="c_9_">
									<g id="b_18_">
										<g id="a_37_">
											<circle class="st18" cx="-62.9" cy="-19.4" r="0.3"/>
											<path class="st18" d="M-63-26.6l2.4,2.3l1.3,0.9l-1.1-1.1L-63-26.6z"/>
										</g>
										<g transform="rotate(30)">
											<g id="a_36_">
												<circle class="st18" cx="-63.7" cy="-20.6" r="0.3"/>
												<path class="st18" d="M-62-27.5l1.7,2.8l1,1.2l-0.7-1.4L-62-27.5z"/>
											</g>
										</g>
									</g>
								</g>
								<g>
									<g id="d_4_">
										<g id="b_17_">
											<g id="a_35_">
												<circle class="st18" cx="-64.2" cy="-21.9" r="0.3"/>
												<path class="st18" d="M-60.7-28.2l0.9,3.1l0.7,1.4l-0.3-1.5L-60.7-28.2z"/>
											</g>
											<g transform="rotate(15)">
												<g id="a_34_">
													<circle class="st18" cx="-64.3" cy="-23.3" r="0.3"/>
													<path class="st18" d="M-59.3-28.5l0.1,3.3l0.3,1.5l0.1-1.6L-59.3-28.5z"/>
												</g>
											</g>
										</g>
										<g id="c_8_">
											<g id="b_16_">
												<g id="a_33_">
													<circle class="st18" cx="-64.1" cy="-24.7" r="0.3"/>
													<path class="st18" d="M-57.9-28.4l-0.8,3.2l-0.1,1.6l0.5-1.5L-57.9-28.4z"/>
												</g>
												<g transform="rotate(120)">
													<g id="a_32_">
														<circle class="st18" cx="-63.5" cy="-26" r="0.3"/>
														<path class="st18" d="M-56.6-28l-1.6,2.9l-0.5,1.5l0.8-1.3L-56.6-28z"/>
													</g>
												</g>
											</g>
										</g>
									</g>
									<g>
										<g>
											<g>
												<g id="b_15_">
													<g id="a_31_">
														<circle class="st18" cx="-62.6" cy="-27.1" r="0.3"/>
														<path class="st18" d="M-55.4-27.2l-2.3,2.4l-0.9,1.3l1.1-1.1L-55.4-27.2z"/>
													</g>
													<g transform="rotate(15)">
														<g id="a_30_">
															<circle class="st18" cx="-61.4" cy="-27.9" r="0.3"/>
															<path class="st18" d="M-54.4-26.2l-2.8,1.7l-1.2,1l1.4-0.7L-54.4-26.2z"/>
														</g>
													</g>
												</g>
												<g id="c_7_">
													<g id="b_14_">
														<g id="a_29_">
															<circle class="st18" cx="-60.1" cy="-28.4" r="0.3"/>
															<path class="st18" d="M-53.8-24.9l-3.1,0.9l-1.4,0.7l1.5-0.3L-53.8-24.9z"/>
														</g>
														<g transform="rotate(30)">
															<g id="a_28_">
																<circle class="st18" cx="-58.6" cy="-28.5" r="0.3"/>
																<path class="st18" d="M-53.5-23.5l-3.3,0.1l-1.5,0.3l1.6,0.1L-53.5-23.5z"/>
															</g>
														</g>
													</g>
												</g>
												<g transform="translate(112.5,75)">
													<g id="d_3_">
														<g id="b_13_">
															<g id="a_27_">
																<circle class="st18" cx="-57.2" cy="-28.2" r="0.3"/>
																<path class="st18" d="M-53.5-22.1l-3.2-0.8l-1.6-0.1l1.5,0.5L-53.5-22.1z"/>
															</g>
															<g transform="rotate(15)">
																<g id="a_26_">
																	<circle class="st18" cx="-56" cy="-27.6" r="0.3"/>
																	<path class="st18" d="M-54-20.7l-2.9-1.6l-1.5-0.5L-57-22L-54-20.7z"/>
																</g>
															</g>
														</g>
														<g id="c_6_">
															<g id="b_12_">
																<g id="a_25_">
																	<circle class="st18" cx="-54.9" cy="-26.7" r="0.3"/>
																	<path class="st18" d="M-54.7-19.5l-2.4-2.3l-1.3-0.9l1.1,1.1L-54.7-19.5z"/>
																</g>
																<g transform="rotate(-120)">
																	<g id="a_24_">
																		<circle class="st18" cx="-54.1" cy="-25.5" r="0.3"/>
																		<path class="st18" d="M-55.8-18.6l-1.7-2.8l-1-1.2l0.7,1.4L-55.8-18.6z"/>
																	</g>
																</g>
															</g>
														</g>
													</g>
												</g>
											</g>
										</g>
									</g>
								</g>
							</g>
						</g>
					</g>
				</g>
			</g>
		</g>
	</g>
</g>
<path id="korea" class="st20" d="M-304.8-130c9.2-3.8,23.7,8.7,36.7,13.1c1.4,10.2-9.3,18-5.5,27.9c-16.6,0-26.9-14.9-40.3-13.5
	L-304.8-130z"/>
<path id="korea_2_" class="st20" d="M-329.4-130c-9.2-3.8-23.7,8.7-36.7,13.1c-1.4,10.2,9.3,18,5.5,27.9c16.6,0,26.9-14.9,40.3-13.5
	L-329.4-130z"/>
<rect x="-302.6" y="-124.2" transform="matrix(0.8431 -0.5377 0.5377 0.8431 19.5378 -180.0634)" width="7.5" height="1.4"/>
<rect x="-301.4" y="-122.7" transform="matrix(0.8431 -0.5377 0.5377 0.8431 18.9033 -179.2006)" width="7.5" height="1.4"/>
<rect x="-300.4" y="-121.1" transform="matrix(0.8431 -0.5377 0.5377 0.8431 18.2067 -178.3718)" width="7.5" height="1.4"/>
<rect x="-286.9" y="-100.5" transform="matrix(0.8431 -0.5377 0.5377 0.8431 9.2253 -167.8799)" width="7.5" height="1.4"/>
<rect x="-285.7" y="-98.9" transform="matrix(0.8431 -0.5377 0.5377 0.8431 8.5907 -167.0171)" width="7.5" height="1.4"/>
<rect x="-284.8" y="-97.3" transform="matrix(0.8431 -0.5377 0.5377 0.8431 7.8661 -166.2844)" width="7.5" height="1.4"/>
<rect x="-282.3" y="-112.9" transform="matrix(-0.1403 -0.9901 0.9901 -0.1403 -206.6115 -403.6906)" width="7.5" height="1.4"/>
<rect x="-280.5" y="-113.2" transform="matrix(-0.1403 -0.9901 0.9901 -0.1403 -204.2831 -402.2838)" width="7.5" height="1.4"/>
<rect x="-278.7" y="-113.5" transform="matrix(-0.1403 -0.9901 0.9901 -0.1403 -201.8693 -400.8397)" width="7.5" height="1.4"/>
<rect x="-308.9" y="-108.6" transform="matrix(-0.1403 -0.9901 0.9901 -0.1403 -241.2182 -425.1632)" width="7.5" height="1.4"/>
<rect x="-307" y="-108.9" transform="matrix(-0.1403 -0.9901 0.9901 -0.1403 -238.6861 -423.5795)" width="7.5" height="1.4"/>
<rect x="-305.2" y="-109.2" transform="matrix(-0.1403 -0.9901 0.9901 -0.1403 -236.2722 -422.1354)" width="7.5" height="1.4"/>
<path class="st21" d="M-285.7-104.2c-1.2,0.8-2.6,1.3-4.1,1.3c-4.1,0-7.4-3.3-7.4-7.4c0-2,0.8-3.8,2.1-5.1"/>
<ellipse class="st21" cx="-289.8" cy="-110.4" rx="7.5" ry="7.4"/>
<path class="st22" d="M-289.8-117.8c-2.1,0-4,0.9-5.3,2.3l-0.1,0c-0.4,0.6-0.4,1.3-0.4,2.1c0,2,1.7,3.7,3.8,3.7
	c0.5,0,0.9-0.1,1.4-0.2c3.1-2.8,8.9,0.8,4.9,5.8c2-1.3,3.3-3.6,3.3-6.1C-282.4-114.5-285.7-117.8-289.8-117.8z"/>
<path class="st9" d="M-321.6-81.6L-321.6-81.6c0.4,0.1,0.8-0.1,0.9-0.5l16.1-48.9c0.1-0.4-0.1-0.8-0.5-0.9l0,0
	c-0.4-0.1-0.8,0.1-0.9,0.5l-16.1,48.9C-322.2-82.1-322-81.7-321.6-81.6z"/>
<circle class="st22" cx="-344.9" cy="-110.4" r="8.8"/>
<rect x="-280.1" y="-112.2" transform="matrix(0.9901 -0.1403 0.1403 0.9901 12.9613 -40.2134)" class="st23" width="2.5" height="0.4"/>
<rect x="-276" y="-113" transform="matrix(0.9901 -0.1403 0.1403 0.9901 13.1022 -39.644)" class="st23" width="2.5" height="0.4"/>
<rect x="-282.6" y="-102.3" transform="matrix(0.8431 -0.5377 0.5377 0.8431 8.5562 -167.1238)" class="st23" width="0.8" height="8.2"/>
<rect x="-304.2" y="-108.5" transform="matrix(0.9837 -0.1796 0.1796 0.9837 14.4868 -56.2194)" class="st23" width="1.8" height="0.7"/>
<path class="st9" d="M-311.8-81.3L-311.8-81.3c0.4-0.1,0.6-0.5,0.4-0.9l-16.5-48.7c-0.1-0.4-0.5-0.6-0.9-0.4h0
	c-0.4,0.1-0.6,0.5-0.4,0.9l16.5,48.7C-312.6-81.4-312.2-81.2-311.8-81.3z"/>
</svg>
