<?xml version="1.0" encoding="utf-8"?>
<!-- Generator: Adobe Illustrator 22.1.0, SVG Export Plug-In . SVG Version: 6.00 Build 0)  -->
<svg version="1.1" id="Layer_1" xmlns="http://www.w3.org/2000/svg" xmlns:xlink="http://www.w3.org/1999/xlink" x="0px" y="0px"
	 viewBox="0 0 105.3 105.2" style="enable-background:new 0 0 105.3 105.2;" xml:space="preserve">
<style type="text/css">
	.st0{fill:#FCFCFC;stroke:#DB5845;stroke-width:0.5;stroke-miterlimit:10;}
	.st1{fill:#FCFCFC;stroke:#F3BB75;stroke-width:0.5;stroke-miterlimit:10;}
	.st2{fill:#FCFCFC;stroke:#A3C46A;stroke-miterlimit:10;}
	.st3{fill:#FFFFFF;stroke:#000000;stroke-width:0.25;stroke-miterlimit:10;}
	.st4{fill:#EE1A19;}
	.st5{fill:#22205F;}
	.st6{fill:#F2F2F2;stroke:#000000;stroke-width:0.25;stroke-miterlimit:10;}
	.st7{fill:#ED1C24;}
	.st8{display:none;fill:#F0EEEB;}
	.st9{fill:#4D4D4D;}
	.st10{fill:#A3C46A;stroke:#80C8BD;stroke-width:0.5;stroke-miterlimit:10;}
	.st11{fill:#85CABE;}
	.st12{fill:#F3BB75;}
	.st13{fill:#ED7F5A;}
	.st14{fill:#DB5845;}
	.st15{fill:#FC8714;}
	.st16{fill:#F7F2F2;}
	.st17{fill:#017F01;}
	.st18{fill:#000088;}
	.st19{fill:#FFFFFF;}
	.st20{fill:#F0EEEB;stroke:#020202;stroke-width:0.25;stroke-miterlimit:10;}
	.st21{fill:#32245F;}
	.st22{fill:#B00E2E;}
	.st23{fill:#F2F2F2;}
</style>
<g id="Noodles">
	<circle class="st0" cx="206.5" cy="14.4" r="51.9"/>
	<path class="st0" d="M241.7-27.4"/>
</g>
<g id="Noodles_1_">
	<circle class="st1" cx="51.8" cy="-78.6" r="51.9"/>
	<path class="st1" d="M87-120.4"/>
</g>
<g id="Noodles_2_">
	<circle class="st2" cx="52.8" cy="52.6" r="51.9"/>
	<path class="st2" d="M88,10.8"/>
</g>
<path id="korea_5_" class="st3" d="M221.8-7.7c9.3-2.4,21.4,11.6,33.2,17.6c0,9.9-11.4,15.9-9.1,25.9c-15.9-2.3-23.6-18-36.6-18.5
	L221.8-7.7z"/>
<path class="st4" d="M221,21.5c-2-1.3-7.6-3.5-11.1-4.3L221.9-8c4.1-0.1,8.7,1.5,12.2,3.5L221,21.5z"/>
<path class="st4" d="M245.9,35.9c-2.3,0.1-9.8-3.2-12.4-5l12.2-26.9c2.8,2.1,6.1,4.2,9.2,5.9C257,16.1,243.4,26.3,245.9,35.9z"/>
<path class="st4" d="M234.4,16.2l3.7-0.7l-0.4-0.8l1.3-1.4l-1.7-0.7l0.1-0.9c-3.4,1.7-2-0.1,0.2-2.4l-1.4,0l0.1-2.4l-2.1,1.3
	l-0.8-1.1c-1,4.6-1.4,4.4-1.6,1.3l-1,0.6L229.4,8l-0.3,1.9l-1,0.1l1.5,3.6c0,0-0.5,0.7-0.8,0.9c0.7,0.1,2,0.8,2.6,1.1l-0.9,1.7
	l0.3,0.2l0.9-1.7c0,0,2.1,1.6,2.4,1.7C234,17.2,234.4,16.2,234.4,16.2z"/>
<path id="korea_7_" class="st3" d="M191.1-7.7c-9.3-2.4-21.4,11.6-33.2,17.6c0,9.9,11.4,15.9,9.1,25.9c15.9-2.3,23.6-18,36.6-18.5
	L191.1-7.7z"/>
<path class="st5" d="M196.2,2.8l-17.6,8.8l-6.2-11.4c2.2-1,10.9-9.5,18.8-7.9L196.2,2.8z"/>
<polygon class="st6" points="190.3,-5.8 189.6,-5.9 189.1,-5.5 189.1,-6.1 188.5,-6.4 189.1,-6.7 189.2,-7.3 189.6,-6.8 190.3,-6.9 
	190,-6.4 "/>
<polygon class="st6" points="191.5,-3 190.8,-3.1 190.4,-2.7 190.3,-3.3 189.7,-3.7 190.3,-3.9 190.4,-4.6 190.9,-4.1 191.5,-4.2 
	191.2,-3.6 "/>
<polygon class="st6" points="192.7,-0.3 192,-0.4 191.6,0.1 191.5,-0.6 190.9,-0.9 191.5,-1.2 191.6,-1.8 192.1,-1.3 192.7,-1.4 
	192.4,-0.8 "/>
<polygon class="st6" points="194.1,2.5 193.4,2.4 192.9,2.8 192.9,2.2 192.3,1.9 192.9,1.6 193,1 193.4,1.4 194.1,1.3 193.8,1.9 "/>
<g>
	<polygon class="st6" points="187.5,-5.1 186.9,-5.2 186.4,-4.8 186.3,-5.4 185.7,-5.7 186.3,-6 186.5,-6.6 186.9,-6.2 187.5,-6.2 
		187.2,-5.7 	"/>
	<polygon class="st6" points="188.7,-2.3 188.1,-2.5 187.6,-2 187.5,-2.7 186.9,-3 187.5,-3.2 187.7,-3.9 188.1,-3.4 188.7,-3.5 
		188.4,-2.9 	"/>
	<polygon class="st6" points="189.9,0.4 189.3,0.3 188.8,0.8 188.7,0.1 188.2,-0.2 188.7,-0.5 188.9,-1.1 189.3,-0.6 190,-0.7 
		189.6,-0.2 	"/>
	<polygon class="st6" points="191.3,3.2 190.7,3.1 190.2,3.5 190.1,2.9 189.5,2.6 190.1,2.3 190.2,1.6 190.7,2.1 191.3,2 191,2.6 	
		"/>
</g>
<polygon class="st6" points="184.6,-4.1 183.9,-4.2 183.5,-3.7 183.4,-4.4 182.8,-4.7 183.4,-5 183.5,-5.6 184,-5.1 184.6,-5.2 
	184.3,-4.6 "/>
<polygon class="st6" points="185.8,-1.3 185.1,-1.4 184.7,-1 184.6,-1.6 184,-1.9 184.6,-2.2 184.7,-2.8 185.2,-2.4 185.8,-2.4 
	185.5,-1.9 "/>
<polygon class="st6" points="187,1.5 186.3,1.3 185.9,1.8 185.8,1.1 185.2,0.8 185.8,0.6 185.9,-0.1 186.4,0.4 187,0.3 186.7,0.9 
	"/>
<polygon class="st6" points="188.4,4.2 187.7,4.1 187.3,4.5 187.2,3.9 186.6,3.6 187.2,3.3 187.3,2.7 187.8,3.2 188.4,3.1 
	188.1,3.6 "/>
<g>
	<polygon class="st6" points="181.6,-2.7 181,-2.8 180.5,-2.4 180.5,-3 179.9,-3.3 180.5,-3.6 180.6,-4.2 181,-3.7 181.7,-3.8 
		181.4,-3.3 	"/>
	<polygon class="st6" points="182.8,0.1 182.2,0 181.7,0.4 181.7,-0.2 181.1,-0.6 181.7,-0.8 181.8,-1.5 182.2,-1 182.9,-1.1 
		182.6,-0.5 	"/>
	<polygon class="st6" points="184.1,2.8 183.4,2.7 182.9,3.2 182.9,2.5 182.3,2.2 182.9,1.9 183,1.3 183.4,1.8 184.1,1.7 183.8,2.3 
			"/>
	<polygon class="st6" points="185.4,5.6 184.8,5.5 184.3,5.9 184.2,5.3 183.7,5 184.3,4.7 184.4,4.1 184.8,4.5 185.5,4.4 185.1,5 	
		"/>
</g>
<g>
	<polygon class="st6" points="179.1,-0.9 178.4,-1.1 177.9,-0.6 177.9,-1.3 177.3,-1.6 177.9,-1.9 178,-2.5 178.4,-2 179.1,-2.1 
		178.8,-1.5 	"/>
	<polygon class="st6" points="180.3,1.8 179.6,1.7 179.1,2.1 179.1,1.5 178.5,1.2 179.1,0.9 179.2,0.3 179.6,0.7 180.3,0.7 180,1.2 
			"/>
	<polygon class="st6" points="181.5,4.6 180.8,4.4 180.4,4.9 180.3,4.2 179.7,3.9 180.3,3.7 180.4,3 180.9,3.5 181.5,3.4 181.2,4 	
		"/>
	<polygon class="st6" points="182.8,7.3 182.2,7.2 181.7,7.6 181.7,7 181.1,6.7 181.7,6.4 181.8,5.8 182.2,6.3 182.9,6.2 182.6,6.7 
			"/>
</g>
<g>
	<polygon class="st6" points="176.5,0.9 175.8,0.8 175.4,1.3 175.3,0.6 174.7,0.3 175.3,0 175.4,-0.6 175.9,-0.1 176.5,-0.2 
		176.2,0.4 	"/>
	<polygon class="st6" points="177.7,3.7 177,3.6 176.6,4 176.5,3.4 175.9,3.1 176.5,2.8 176.6,2.2 177.1,2.6 177.7,2.6 177.4,3.1 	
		"/>
	<polygon class="st6" points="178.9,6.5 178.2,6.3 177.8,6.8 177.7,6.1 177.1,5.8 177.7,5.6 177.8,4.9 178.3,5.4 178.9,5.3 
		178.6,5.9 	"/>
	<polygon class="st6" points="180.3,9.2 179.6,9.1 179.1,9.5 179.1,8.9 178.5,8.6 179.1,8.3 179.2,7.7 179.6,8.2 180.3,8.1 180,8.6 
			"/>
</g>
<path class="st7" d="M158,10.9l15.9-8l-1.4-2.7c-4.9,3.9-12,8.5-14.5,9.8C157.9,10,158,10.7,158,10.9z"/>
<path class="st7" d="M159,15.3c6.8-3.5,13.8-7.1,17.1-8.4l-0.7-1.6c-3.4,1.3-10.4,4.7-16.9,8.6L159,15.3z"/>
<path class="st7" d="M161.7,20.3c5.6-3.1,11.2-6,16.9-8.8l-0.7-1.4c-2.9,1.1-10.3,5.2-17.1,8.8C161.1,19.4,161.4,19.9,161.7,20.3z"
	/>
<path class="st7" d="M165.3,26.2c6.6-3,20.2-10.4,34.1-17.1l-1-2.2c-6.7,2.5-20.6,10.3-34.3,17.2L165.3,26.2z"/>
<path class="st7" d="M167.2,34.1c14.3-6.3,28.9-17.1,35.8-18l-1.3-2.5c-4.5,1.7-20.6,11.1-34.7,17.5C167.3,32,167.4,33,167.2,34.1z"
	/>
<g>
	<path id="korea_4_" class="st8" d="M221.1-7c9.3-2.3,21.3,11.7,33.2,17.8c-0.1,9.9-11.5,15.9-9.3,25.8
		c-15.9-2.4-23.5-18.1-36.5-18.6L221.1-7z"/>
	<path class="st9" d="M198.1,36.8l0.1,0.1c0.3,0.2,0.7,0,0.8-0.3l22.4-44.4c0.2-0.3,0-0.7-0.3-0.8l-0.1-0.1c-0.3-0.2-0.7,0-0.8,0.3
		L197.8,36C197.6,36.3,197.7,36.7,198.1,36.8z"/>
</g>
<g>
	<path id="korea_8_" class="st8" d="M191.9-7c-9.3-2.3-21.3,11.7-33.2,17.8c0.1,9.9,11.5,15.9,9.3,25.8
		c15.9-2.4,23.5-18.1,36.5-18.6L191.9-7z"/>
	<path class="st9" d="M214.9,36.8l-0.1,0.1c-0.3,0.2-0.7,0-0.8-0.3L191.5-7.8c-0.2-0.3,0-0.7,0.3-0.8l0.1-0.1c0.3-0.2,0.7,0,0.8,0.3
		L215.2,36C215.3,36.3,215.2,36.7,214.9,36.8z"/>
</g>
<g id="Colour_Palette">
	<g>
		<text transform="matrix(1 0 0 1 -76.877 232.7593)" style="font-family:'Ranchers-Regular'; font-size:30.0029px;">Colour Palette</text>
	</g>
	<polygon class="st10" points="155.8,386.5 170.5,410.3 198.5,409.4 211.7,384.8 197,361 169.1,361.8 	"/>
	<polygon class="st11" points="68,481.6 82.8,505.4 110.7,504.5 123.9,479.9 109.2,456.1 81.3,456.9 	"/>
	<polygon class="st12" points="-213.4,384 -198.6,407.8 -170.7,407 -157.4,382.3 -172.2,358.5 -200.1,359.4 	"/>
	<polygon class="st13" points="-116.7,478.5 -102,502.3 -74,501.5 -60.8,476.8 -75.5,453.1 -103.4,453.9 	"/>
	<polygon class="st14" points="-24,391.6 -9.3,415.4 18.7,414.6 31.9,389.9 17.2,366.1 -10.8,367 	"/>
	<text transform="matrix(1 0 0 1 -212.939 431.937)" style="font-family:'Mali-Bold'; font-size:11.3033px;">Soft Yellow</text>
	<text transform="matrix(1 0 0 1 -122.2627 431.937)" style="font-family:'Mali-Bold'; font-size:11.3033px;">Pale Orange</text>
	<g>
		<text transform="matrix(1 0 0 1 -16.9648 431.8755)" style="font-family:'Mali-Bold'; font-size:11.3033px;">Pale Red</text>
	</g>
	<g>
		<text transform="matrix(1 0 0 1 64.75 432.0249)" style="font-family:'Mali-Bold'; font-size:11.3033px;">Ocean Blue</text>
	</g>
	<g>
		<text transform="matrix(1 0 0 1 151.2285 432.0249)" style="font-family:'Mali-Bold'; font-size:11.3033px;">Lime Green</text>
	</g>
	<text transform="matrix(1 0 0 1 -217.2451 456.1587)" style="font-family:'Mali-Regular'; font-size:8.0738px;">RGB</text>
	<text transform="matrix(1 0 0 1 -217.2451 472.8452)" style="font-family:'Mali-Regular'; font-size:8.0738px;">HEX</text>
	<text transform="matrix(1 0 0 1 -217.2451 487.3784)" style="font-family:'Mali-Regular'; font-size:8.0738px;">CMYK</text>
	<text transform="matrix(1 0 0 1 -122.2627 372.3921)" style="font-family:'Mali-Regular'; font-size:8.0738px;">RGB</text>
	<text transform="matrix(1 0 0 1 -122.2627 389.0777)" style="font-family:'Mali-Regular'; font-size:8.0738px;">HEX</text>
	<text transform="matrix(1 0 0 1 -122.2627 403.6099)" style="font-family:'Mali-Regular'; font-size:8.0738px;">CMYK</text>
	<text transform="matrix(1 0 0 1 -28.6309 460.7027)" style="font-family:'Mali-Regular'; font-size:8.0738px;">RGB</text>
	<text transform="matrix(1 0 0 1 -28.6309 477.3892)" style="font-family:'Mali-Regular'; font-size:8.0738px;">HEX</text>
	<text transform="matrix(1 0 0 1 -30.7832 494.6128)" style="font-family:'Mali-Regular'; font-size:8.0738px;">CMYK</text>
	<text transform="matrix(1 0 0 1 58.8672 378.8511)" style="font-family:'Mali-Regular'; font-size:8.0738px;">RGB</text>
	<text transform="matrix(1 0 0 1 58.8672 395.5367)" style="font-family:'Mali-Regular'; font-size:8.0738px;">HEX</text>
	<text transform="matrix(1 0 0 1 58.8672 410.0699)" style="font-family:'Mali-Regular'; font-size:8.0738px;">CMYK</text>
	<text transform="matrix(1 0 0 1 151.083 462.3804)" style="font-family:'Mali-Regular'; font-size:8.0738px;">RGB</text>
	<text transform="matrix(1 0 0 1 151.083 479.0659)" style="font-family:'Mali-Regular'; font-size:8.0738px;">HEX</text>
	<text transform="matrix(1 0 0 1 151.083 493.5992)" style="font-family:'Mali-Regular'; font-size:8.0738px;">CMYK</text>
	<line class="st12" x1="-136" y1="364.1" x2="-137.1" y2="491.1"/>
	<line class="st13" x1="-40.7" y1="367" x2="-41.8" y2="494"/>
	<line class="st14" x1="49.6" y1="365.2" x2="48.5" y2="492.3"/>
	<line class="st11" x1="140.2" y1="368.2" x2="139.1" y2="495.2"/>
	<g>
		<text transform="matrix(1 0 0 1 -197.8315 456.2915)" style="font-family:'Mali-Regular'; font-size:8.0738px;"> 250, 194, 117</text>
	</g>
	<g>
		<text transform="matrix(1 0 0 1 -98.998 372.1656)" style="font-family:'Mali-Regular'; font-size:8.0738px;">244, 127, 90</text>
	</g>
	<g>
		<text transform="matrix(1 0 0 1 -3.6953 460.4097)" style="font-family:'Mali-Regular'; font-size:8.0738px;">226, 88, 69</text>
	</g>
	<g>
		<text transform="matrix(1 0 0 1 81.6074 378.6372)" style="font-family:'Mali-Regular'; font-size:8.0738px;">140, 209, 197</text>
	</g>
	<g>
		<text transform="matrix(1 0 0 1 170.4395 462.1743)" style="font-family:'Mali-Regular'; font-size:8.0738px;">170, 203, 106</text>
	</g>
	<g>
		<text transform="matrix(1 0 0 1 176.9102 493.354)" style="font-family:'Mali-Regular'; font-size:8.0738px;">37, 3, 75, 0</text>
	</g>
	<g>
		<text transform="matrix(1 0 0 1 84.5488 409.8159)" style="font-family:'Mali-Regular'; font-size:8.0738px;">44, 0, 27, 0</text>
	</g>
	<g>
		<text transform="matrix(1 0 0 1 -3.6953 494.5308)" style="font-family:'Mali-Regular'; font-size:8.0738px;">6, 80, 77, 0</text>
	</g>
	<g>
		<text transform="matrix(1 0 0 1 -94.8809 403.3452)" style="font-family:'Mali-Regular'; font-size:8.0738px;">0, 62, 67, 0</text>
	</g>
	<g>
		<text transform="matrix(1 0 0 1 -189.0068 487.4712)" style="font-family:'Mali-Regular'; font-size:8.0738px;">1, 25, 61, 0</text>
	</g>
	<g>
		<text transform="matrix(1 0 0 1 -206.3618 255.7622)"><tspan x="0" y="0" style="font-family:'Mali-Regular'; font-size:11.1775px;">We decided on this colour palette because of the association these </tspan><tspan x="0" y="17.1" style="font-family:'Mali-Regular'; font-size:11.1775px;">colours all have with food.  We discovered that bright colours often pair best </tspan><tspan x="0" y="34.1" style="font-family:'Mali-Regular'; font-size:11.1775px;">with food products and would offer a more pleasurable experience our users.  </tspan><tspan x="0" y="51.2" style="font-family:'Mali-Regular'; font-size:11.1775px;">In addition, these colours represent the light and fun narrative of our </tspan><tspan x="0" y="68.2" style="font-family:'Mali-Regular'; font-size:11.1775px;">application. </tspan><tspan x="57.1" y="68.2" style="font-family:'Mali-Regular'; font-size:8.8244px;">   </tspan></text>
	</g>
</g>
<path class="st15" d="M-217.5,25"/>
<path class="st16" d="M85.3-67.2l-61.4,0l-0.7-27.6L86-94.6C87.2-88.4,83.3-73.7,85.3-67.2z"/>
<g>
	<path id="korea_6_" class="st8" d="M22.7-101.3c11.4-10.4,39.1,0.3,60.5,0c7.4,14.1-4.1,31.2,6.5,43.6c-24.3,8.7-47.1-7.7-65.9,1.4
		L22.7-101.3z"/>
	<path class="st9" d="M24.2-34.9l-1.6-67.8c0-0.6-0.5-1.1-1.1-1.1c-0.6,0-1.1,0.5-1.1,1.1L22-36.4C22.7-35.9,23.4-35.4,24.2-34.9z"
		/>
	<path class="st15" d="M23.1-87.5c28.8-3.5,52.7,3.2,62.6,2c1-5.2,0.6-11.2-2.3-16.6c-18,9.1-48.5-14-60.8,0.8L23.1-87.5z"/>
	<path class="st17" d="M23.8-56.2c10.9-9.8,48.3,5.6,66-1.6c-3.1-4.4-5.1-9.1-5.1-14.3c-6,5.4-50.9-2.7-60.9,0L23.8-56.2z"/>
	<g>
		<circle class="st18" cx="-59.3" cy="-154.6" r="6.2"/>
		<circle class="st19" cx="-59.3" cy="-154.6" r="5.4"/>
		<circle class="st18" cx="-59.3" cy="-154.6" r="1.1"/>
		<g>
			<g>
				<g id="b_23_">
					<g id="a_47_">
						<circle class="st18" cx="-54" cy="-155.8" r="0.3"/>
						<path class="st18" d="M-57.5-149.5l-0.9-3.1l-0.7-1.4l0.3,1.5L-57.5-149.5z"/>
					</g>
					<g transform="rotate(15)">
						<g id="a_46_">
							<circle class="st18" cx="-53.9" cy="-154.3" r="0.3"/>
							<path class="st18" d="M-58.9-149.2l-0.1-3.3l-0.3-1.5l-0.1,1.6L-58.9-149.2z"/>
						</g>
					</g>
				</g>
				<g id="c_11_">
					<g id="b_22_">
						<g id="a_45_">
							<circle class="st18" cx="-54.1" cy="-152.9" r="0.3"/>
							<path class="st18" d="M-60.3-149.3l0.8-3.2l0.1-1.6l-0.5,1.5L-60.3-149.3z"/>
						</g>
						<g transform="rotate(30)">
							<g id="a_44_">
								<circle class="st18" cx="-54.7" cy="-151.7" r="0.3"/>
								<path class="st18" d="M-61.6-149.7l1.6-2.9l0.5-1.5l-0.8,1.3L-61.6-149.7z"/>
							</g>
						</g>
					</g>
				</g>
				<g>
					<g id="d_5_">
						<g id="b_21_">
							<g id="a_43_">
								<circle class="st18" cx="-55.6" cy="-150.6" r="0.3"/>
								<path class="st18" d="M-62.8-150.5l2.3-2.4l0.9-1.3l-1.1,1.1L-62.8-150.5z"/>
							</g>
							<g transform="rotate(15)">
								<g id="a_42_">
									<circle class="st18" cx="-56.8" cy="-149.8" r="0.3"/>
									<path class="st18" d="M-63.8-151.5l2.8-1.7l1.2-1l-1.4,0.7L-63.8-151.5z"/>
								</g>
							</g>
						</g>
						<g id="c_10_">
							<g id="b_20_">
								<g id="a_41_">
									<circle class="st18" cx="-58.2" cy="-149.3" r="0.3"/>
									<path class="st18" d="M-64.4-152.8l3.1-0.9l1.4-0.7l-1.5,0.3L-64.4-152.8z"/>
								</g>
								<g transform="rotate(60)">
									<g id="a_40_">
										<circle class="st18" cx="-59.6" cy="-149.2" r="0.3"/>
										<path class="st18" d="M-64.7-154.2l3.3-0.1l1.5-0.3l-1.6-0.1L-64.7-154.2z"/>
									</g>
								</g>
							</g>
						</g>
					</g>
					<g>
						<g>
							<g>
								<g id="b_19_">
									<g id="a_39_">
										<circle class="st18" cx="-61" cy="-149.4" r="0.3"/>
										<path class="st18" d="M-64.7-155.6l3.2,0.8l1.6,0.1l-1.5-0.5L-64.7-155.6z"/>
									</g>
									<g transform="rotate(15)">
										<g id="a_38_">
											<circle class="st18" cx="-62.2" cy="-150" r="0.3"/>
											<path class="st18" d="M-64.2-156.9l2.9,1.6l1.5,0.5l-1.3-0.8L-64.2-156.9z"/>
										</g>
									</g>
								</g>
								<g id="c_9_">
									<g id="b_18_">
										<g id="a_37_">
											<circle class="st18" cx="-63.3" cy="-150.9" r="0.3"/>
											<path class="st18" d="M-63.5-158.1l2.4,2.3l1.3,0.9l-1.1-1.1L-63.5-158.1z"/>
										</g>
										<g transform="rotate(30)">
											<g id="a_36_">
												<circle class="st18" cx="-64.1" cy="-152.1" r="0.3"/>
												<path class="st18" d="M-62.4-159.1l1.7,2.8l1,1.2l-0.7-1.4L-62.4-159.1z"/>
											</g>
										</g>
									</g>
								</g>
								<g>
									<g id="d_4_">
										<g id="b_17_">
											<g id="a_35_">
												<circle class="st18" cx="-64.6" cy="-153.5" r="0.3"/>
												<path class="st18" d="M-61.1-159.7l0.9,3.1l0.7,1.4l-0.3-1.5L-61.1-159.7z"/>
											</g>
											<g transform="rotate(15)">
												<g id="a_34_">
													<circle class="st18" cx="-64.7" cy="-154.9" r="0.3"/>
													<path class="st18" d="M-59.7-160l0.1,3.3l0.3,1.5l0.1-1.6L-59.7-160z"/>
												</g>
											</g>
										</g>
										<g id="c_8_">
											<g id="b_16_">
												<g id="a_33_">
													<circle class="st18" cx="-64.5" cy="-156.3" r="0.3"/>
													<path class="st18" d="M-58.3-160l-0.8,3.2l-0.1,1.6l0.5-1.5L-58.3-160z"/>
												</g>
												<g transform="rotate(120)">
													<g id="a_32_">
														<circle class="st18" cx="-63.9" cy="-157.5" r="0.3"/>
														<path class="st18" d="M-57-159.5l-1.6,2.9l-0.5,1.5l0.8-1.3L-57-159.5z"/>
													</g>
												</g>
											</g>
										</g>
									</g>
									<g>
										<g>
											<g>
												<g id="b_15_">
													<g id="a_31_">
														<circle class="st18" cx="-63" cy="-158.6" r="0.3"/>
														<path class="st18" d="M-55.8-158.8l-2.3,2.4l-0.9,1.3l1.1-1.1L-55.8-158.8z"/>
													</g>
													<g transform="rotate(15)">
														<g id="a_30_">
															<circle class="st18" cx="-61.8" cy="-159.4" r="0.3"/>
															<path class="st18" d="M-54.8-157.7l-2.8,1.7l-1.2,1l1.4-0.7L-54.8-157.7z"/>
														</g>
													</g>
												</g>
												<g id="c_7_">
													<g id="b_14_">
														<g id="a_29_">
															<circle class="st18" cx="-60.5" cy="-159.9" r="0.3"/>
															<path class="st18" d="M-54.2-156.4l-3.1,0.9l-1.4,0.7l1.5-0.3L-54.2-156.4z"/>
														</g>
														<g transform="rotate(30)">
															<g id="a_28_">
																<circle class="st18" cx="-59" cy="-160" r="0.3"/>
																<path class="st18" d="M-53.9-155.1l-3.3,0.1l-1.5,0.3l1.6,0.1L-53.9-155.1z"/>
															</g>
														</g>
													</g>
												</g>
												<g transform="translate(112.5,75)">
													<g id="d_3_">
														<g id="b_13_">
															<g id="a_27_">
																<circle class="st18" cx="-57.6" cy="-159.8" r="0.3"/>
																<path class="st18" d="M-53.9-153.6l-3.2-0.8l-1.6-0.1l1.5,0.5L-53.9-153.6z"/>
															</g>
															<g transform="rotate(15)">
																<g id="a_26_">
																	<circle class="st18" cx="-56.4" cy="-159.2" r="0.3"/>
																	<path class="st18" d="M-54.4-152.3l-2.9-1.6l-1.5-0.5l1.3,0.8L-54.4-152.3z"/>
																</g>
															</g>
														</g>
														<g id="c_6_">
															<g id="b_12_">
																<g id="a_25_">
																	<circle class="st18" cx="-55.3" cy="-158.3" r="0.3"/>
																	<path class="st18" d="M-55.2-151.1l-2.4-2.3l-1.3-0.9l1.1,1.1L-55.2-151.1z"/>
																</g>
																<g transform="rotate(-120)">
																	<g id="a_24_">
																		<circle class="st18" cx="-54.5" cy="-157.1" r="0.3"/>
																		<path class="st18" d="M-56.2-150.1l-1.7-2.8l-1-1.2l0.7,1.4L-56.2-150.1z"/>
																	</g>
																</g>
															</g>
														</g>
													</g>
												</g>
											</g>
										</g>
									</g>
								</g>
							</g>
						</g>
					</g>
				</g>
			</g>
		</g>
	</g>
</g>
<path id="korea" class="st20" d="M65.2,31.1c9.2-3.8,23.7,8.7,36.7,13.1c1.4,10.2-9.3,18-5.5,27.9c-16.6,0-26.9-14.9-40.3-13.5
	L65.2,31.1z"/>
<path id="korea_2_" class="st20" d="M40.5,31.1c-9.2-3.8-23.7,8.7-36.7,13.1c-1.4,10.2,9.3,18,5.5,27.9c16.6,0,26.9-14.9,40.3-13.5
	L40.5,31.1z"/>
<rect x="67.4" y="36.9" transform="matrix(0.8431 -0.5377 0.5377 0.8431 -9.0652 44.1443)" width="7.5" height="1.4"/>
<rect x="68.5" y="38.4" transform="matrix(0.8431 -0.5377 0.5377 0.8431 -9.6997 45.0071)" width="7.5" height="1.4"/>
<rect x="69.6" y="40" transform="matrix(0.8431 -0.5377 0.5377 0.8431 -10.3963 45.8359)" width="7.5" height="1.4"/>
<rect x="83.1" y="60.7" transform="matrix(0.8431 -0.5377 0.5377 0.8431 -19.3777 56.3277)" width="7.5" height="1.4"/>
<rect x="84.3" y="62.2" transform="matrix(0.8431 -0.5377 0.5377 0.8431 -20.0122 57.1905)" width="7.5" height="1.4"/>
<rect x="85.2" y="63.8" transform="matrix(0.8431 -0.5377 0.5377 0.8431 -20.7368 57.9232)" width="7.5" height="1.4"/>
<rect x="87.7" y="48.3" transform="matrix(-0.1403 -0.9901 0.9901 -0.1403 55.7209 146.3557)" width="7.5" height="1.4"/>
<rect x="89.4" y="48" transform="matrix(-0.1403 -0.9901 0.9901 -0.1403 58.0492 147.7625)" width="7.5" height="1.4"/>
<rect x="91.3" y="47.6" transform="matrix(-0.1403 -0.9901 0.9901 -0.1403 60.463 149.2066)" width="7.5" height="1.4"/>
<rect x="61" y="52.6" transform="matrix(-0.1403 -0.9901 0.9901 -0.1403 21.1141 124.8831)" width="7.5" height="1.4"/>
<rect x="63" y="52.3" transform="matrix(-0.1403 -0.9901 0.9901 -0.1403 23.6462 126.4668)" width="7.5" height="1.4"/>
<rect x="64.8" y="51.9" transform="matrix(-0.1403 -0.9901 0.9901 -0.1403 26.0601 127.911)" width="7.5" height="1.4"/>
<path class="st21" d="M84.3,56.9c-1.2,0.8-2.6,1.3-4.1,1.3c-4.1,0-7.4-3.3-7.4-7.4c0-2,0.8-3.8,2.1-5.1"/>
<ellipse class="st21" cx="80.2" cy="50.8" rx="7.5" ry="7.4"/>
<path class="st22" d="M80.2,43.3c-2.1,0-4,0.9-5.3,2.3l-0.1,0c-0.4,0.6-0.4,1.3-0.4,2.1c0,2,1.7,3.7,3.8,3.7c0.5,0,0.9-0.1,1.4-0.2
	c3.1-2.8,8.9,0.8,4.9,5.8c2-1.3,3.3-3.6,3.3-6.1C87.6,46.7,84.3,43.3,80.2,43.3z"/>
<path class="st9" d="M48.4,79.5L48.4,79.5c0.4,0.1,0.8-0.1,0.9-0.5l16.1-48.9c0.1-0.4-0.1-0.8-0.5-0.9v0c-0.4-0.1-0.8,0.1-0.9,0.5
	L47.9,78.6C47.8,79,48,79.4,48.4,79.5z"/>
<circle class="st22" cx="25.1" cy="50.8" r="8.8"/>
<rect x="89.9" y="48.9" transform="matrix(0.9901 -0.1403 0.1403 0.9901 -5.9803 13.2695)" class="st23" width="2.5" height="0.4"/>
<rect x="94" y="48.2" transform="matrix(0.9901 -0.1403 0.1403 0.9901 -5.8394 13.8388)" class="st23" width="2.5" height="0.4"/>
<rect x="87.4" y="58.8" transform="matrix(0.8431 -0.5377 0.5377 0.8431 -20.0468 57.0838)" class="st23" width="0.8" height="8.2"/>
<rect x="65.8" y="52.6" transform="matrix(0.9837 -0.1796 0.1796 0.9837 -8.4322 12.833)" class="st23" width="1.8" height="0.7"/>
<path class="st9" d="M58.2,79.8L58.2,79.8c0.4-0.1,0.6-0.5,0.4-0.9L42.1,30.2c-0.1-0.4-0.5-0.6-0.9-0.4l0,0
	c-0.4,0.1-0.6,0.5-0.4,0.9l16.5,48.7C57.4,79.8,57.8,80,58.2,79.8z"/>
</svg>
