<?xml version="1.0" encoding="utf-8"?>
<!-- Generator: Adobe Illustrator 22.1.0, SVG Export Plug-In . SVG Version: 6.00 Build 0)  -->
<svg version="1.1" id="Layer_1" xmlns="http://www.w3.org/2000/svg" xmlns:xlink="http://www.w3.org/1999/xlink" x="0px" y="0px"
	 viewBox="0 0 105.3 105.2" style="enable-background:new 0 0 105.3 105.2;" xml:space="preserve">
<style type="text/css">
	.st0{fill:#E25944;stroke:#3D8A7E;stroke-width:1.1112;stroke-miterlimit:10;}
	.st1{fill:#FFFFFF;stroke:#3D8A7E;stroke-width:1.1112;stroke-miterlimit:10;}
	.st2{fill:#835213;stroke:#000000;stroke-width:0.2778;stroke-miterlimit:10;}
	.st3{fill:#EB937F;stroke:#000000;stroke-width:0.2778;stroke-miterlimit:10;}
	.st4{fill:#FFFFFF;stroke:#E25944;stroke-width:0.2778;stroke-miterlimit:10;}
</style>
<path class="st0" d="M52.7,104.6C24,104.6,0.7,81.3,0.7,52.6S24,0.7,52.7,0.7s51.9,23.3,51.9,51.9S81.4,104.6,52.7,104.6"/>
<path class="st1" d="M83.7,67c-1.1,0-2.1,0.5-2.7,1.4L66.3,58l-3.2,4.5l14.2,10c-0.2,0.4-0.2,0.8-0.2,1.2c0,1.8,1.5,3.3,3.3,3.3
	c1.8,0,3.3-1.5,3.3-3.3c1.8,0,3.3-1.5,3.3-3.3S85.6,67,83.7,67z"/>
<path class="st2" d="M27.9,58C15.8,50.3,34.6,18.7,46,26C62.2,31.2,64,43.1,71.7,52c8.5,12.8,3.9,24.2-15.1,19.3
	C47.9,66.7,34.9,67.2,27.9,58z"/>
<path class="st3" d="M46.6,48.8c0,2.7-15.1,14.1-20.5,8.5c-4.6-4.8-5.1-13.7,0.8-22.1c4.2-6,10-9.6,14.9-9.9c2.1-0.1,4,0.3,5.6,1.4
	C58.9,31.7,49.3,48.9,46.6,48.8z"/>
<circle class="st4" cx="36.8" cy="41.9" r="3.8"/>
</svg>
