<?xml version="1.0" encoding="utf-8"?>
<!-- Generator: Adobe Illustrator 22.1.0, SVG Export Plug-In . SVG Version: 6.00 Build 0)  -->
<svg version="1.1" id="Layer_1" xmlns="http://www.w3.org/2000/svg" xmlns:xlink="http://www.w3.org/1999/xlink" x="0px" y="0px"
	 viewBox="0 0 105.3 105.2" style="enable-background:new 0 0 105.3 105.2;" xml:space="preserve">
<style type="text/css">
	.st0{fill:#EEAEA7;stroke:#000000;stroke-width:0.6028;stroke-miterlimit:10;}
	.st1{fill:#E3B183;stroke:#231916;stroke-width:0.6885;stroke-miterlimit:10;}
	.st2{fill:#A97546;stroke:#231916;stroke-width:0.973;stroke-miterlimit:10;}
	.st3{fill:#AA7551;stroke:#231916;stroke-width:0.973;stroke-miterlimit:10;}
	.st4{fill:#A97546;stroke:#231916;stroke-width:0.6885;stroke-miterlimit:10;}
	.st5{opacity:0.66;fill:#F90808;}
</style>
<g>
	<circle class="st0" cx="53.4" cy="51.9" r="51.9"/>
	<ellipse transform="matrix(0.784 -0.6208 0.6208 0.784 -20.6957 44.2793)" class="st1" cx="53.3" cy="51.9" rx="37.7" ry="17.7"/>
	<path class="st2" d="M44.3,41.3c11.3,0.3,17.7,10.6,19,20.2c0.9,6.7-10.4-17.7-24.2-17.5L44.3,41.3z"/>
	<path class="st3" d="M59.9,31.7C70.4,32,76.7,41.4,78,49.5c0.8,5.7-9.1-14.6-22-14.4L59.9,31.7z"/>
	<path class="st4" d="M33.7,55.4c7.4,0.2,12.4,7.5,13.3,13.2c0.6,4-6.7-10-15.8-9.9L33.7,55.4z"/>
</g>
<path class="st5" d="M86,14.5L53.4,47.2L20.8,14.5c-0.8-0.8-2-0.8-2.8,0L16,16.4c-0.8,0.8-0.8,2,0,2.8l32.6,32.6L16,84.5
	c-0.8,0.8-0.8,2,0,2.8l1.9,1.9c0.8,0.8,2,0.8,2.8,0l32.6-32.6L86,89.3c0.8,0.8,2,0.8,2.8,0l1.9-1.9c0.8-0.8,0.8-2,0-2.8L58.1,51.9
	l32.6-32.6c0.8-0.8,0.8-2,0-2.8l-1.9-1.9C88.1,13.7,86.8,13.7,86,14.5z"/>
</svg>
