<?xml version="1.0" encoding="utf-8"?>
<!-- Generator: Adobe Illustrator 22.1.0, SVG Export Plug-In . SVG Version: 6.00 Build 0)  -->
<svg version="1.1" id="Layer_1" xmlns="http://www.w3.org/2000/svg" xmlns:xlink="http://www.w3.org/1999/xlink" x="0px" y="0px"
	 viewBox="0 0 105.3 105.2" style="enable-background:new 0 0 105.3 105.2;" xml:space="preserve">
<style type="text/css">
	.st0{fill:#DC9563;stroke:#69802F;stroke-width:1.1112;stroke-miterlimit:10;}
	.st1{fill:#050400;}
	.st2{fill:#F9C275;stroke:#F9C275;stroke-width:0.2778;stroke-miterlimit:10;}
	.st3{fill:#F9C275;}
	.st4{fill:#8ACFC3;stroke:#000000;stroke-width:0.2778;stroke-miterlimit:10;}
	.st5{fill:none;stroke:#000000;stroke-width:0.2778;stroke-miterlimit:10;}
	.st6{opacity:0.66;fill:#F90808;}
</style>
<g id="Noodles">
	<circle class="st0" cx="52.7" cy="52.6" r="51.9"/>
	<polyline class="st1" points="93.6,21.7 36.2,30.6 91.5,19 	"/>
	<g>
		<g>
			<path class="st2" d="M58.3,57.4c-1-0.6-1.8-1.8-2.1-3.5c-0.6-3.1,0.3-6.8,2.4-9.4c2.5-4,0.6-10.7-1.3-12.6
				c-2.3-2.9-1.7-5.2-0.6-6.3c1.1-1,2.7-1.1,3.9-0.2l-0.3,0.4c-1-0.8-2.4-0.7-3.3,0.1c-1,1-1.5,3,0.6,5.6c2.2,2.2,3.8,9.3,1.4,13.2
				c-2.5,3.1-2.8,6.8-2.4,9.1c0.3,1.5,1,2.7,1.9,3.2L58.3,57.4z"/>
		</g>
		<g>
			<g>
				<path class="st3" d="M61.8,56.6c-1-0.6-1.8-1.8-2.1-3.5c-0.6-3.1,0.3-6.8,2.4-9.4c2.5-4,0.6-10.7-1.3-12.6
					c-2.3-2.9-1.7-5.2-0.6-6.3c1.1-1,2.7-1.1,3.9-0.2L63.8,25c-1-0.8-2.4-0.7-3.3,0.1c-1,1-1.5,3,0.6,5.6c2.2,2.2,3.8,9.3,1.4,13.2
					C60,47,59.6,50.7,60.1,53c0.3,1.5,1,2.7,1.9,3.2L61.8,56.6z"/>
				<path class="st3" d="M61.8,56.7c-0.1,0-0.2-0.1-0.3-0.1l-0.2-0.1c-0.1-0.1-0.2-0.2-0.3-0.3c-0.2-0.2-0.4-0.5-0.6-0.7
					c-0.3-0.5-0.5-1.1-0.7-1.7c-0.3-1.2-0.4-2.4-0.3-3.6c0.2-2.4,1.1-4.7,2.6-6.6l0,0c0.6-0.9,0.9-2,1-3.1s0.1-2.2,0-3.3
					c-0.2-1.1-0.4-2.2-0.8-3.2c-0.4-1-0.9-2-1.6-2.8l0,0l0,0c-0.6-0.7-1.1-1.6-1.5-2.5c-0.3-0.9-0.4-2,0-3s1.2-1.7,2.3-2
					c1-0.3,2.1,0.1,2.8,0.8l0,0l0.1,0.1l-0.1,0.1L63.9,25l0,0l-0.1,0.1L63.7,25c-0.6-0.5-1.5-0.7-2.2-0.4c-0.8,0.2-1.3,0.8-1.6,1.6
					c-0.3,0.7-0.2,1.6,0.1,2.3c0.3,0.8,0.7,1.5,1.2,2.1l0,0c0.8,0.9,1.3,1.9,1.7,3s0.6,2.3,0.8,3.4c0.1,1.2,0.1,2.3,0,3.5
					c-0.2,1.2-0.5,2.3-1.1,3.3l0,0l0,0c-1.4,1.8-2.2,3.9-2.4,6.1c-0.1,1.1,0,2.2,0.2,3.3c0.3,1.1,0.8,2.1,1.7,2.7l0,0l0.1,0.1
					l-0.1,0.1C62,56.4,61.9,56.6,61.8,56.7z M61.7,56.5c0-0.1,0.1-0.2,0.2-0.3l0.1,0.2l0,0c-1-0.6-1.5-1.8-1.8-2.9
					c-0.3-1.1-0.3-2.3-0.2-3.4c0.2-2.3,1.1-4.5,2.5-6.2l0,0c0.6-1,0.9-2.1,1.1-3.3c0.2-1.1,0.1-2.3,0-3.5c-0.1-1.1-0.4-2.3-0.8-3.4
					c-0.4-1.1-0.9-2.2-1.7-3l0,0l0,0c-0.5-0.6-1-1.4-1.2-2.1c-0.3-0.8-0.4-1.7-0.1-2.5c0.3-0.8,0.9-1.5,1.7-1.8s1.8-0.1,2.4,0.5
					h-0.2l0,0l0.3-0.3v0.2l0,0c-0.8-0.5-1.7-0.6-2.5-0.3c-0.8,0.2-1.5,0.9-1.8,1.6c-0.3,0.8-0.3,1.7-0.1,2.5
					c0.3,0.8,0.7,1.7,1.2,2.4l0,0c0.8,0.9,1.3,1.9,1.6,3c0.4,1.1,0.6,2.2,0.7,3.3c0.1,1.1,0.1,2.2,0,3.4c-0.2,1.1-0.5,2.2-1.1,3.2
					l0,0l0,0c-1.5,1.9-2.4,4.2-2.5,6.5c-0.1,1.2,0,2.4,0.3,3.5c0.2,0.6,0.4,1.1,0.7,1.6c0.2,0.2,0.3,0.5,0.6,0.7
					c0.1,0.1,0.2,0.2,0.3,0.3L61.7,56.5C61.7,56.4,61.7,56.4,61.7,56.5z"/>
			</g>
		</g>
		<g>
			<path class="st2" d="M54,58.6c-1-0.6-1.8-1.8-2.1-3.5c-0.6-3.1,0.3-6.8,2.4-9.4c2.5-4,0.6-10.7-1.3-12.6
				c-2.3-2.9-1.7-5.2-0.6-6.3c1.1-1,2.7-1.1,3.9-0.2L56,27c-1-0.8-2.4-0.7-3.3,0.1c-1,1-1.5,3,0.6,5.6c2.2,2.2,3.8,9.3,1.4,13.2
				c-2.5,3.1-2.8,6.8-2.4,9.1c0.3,1.5,1,2.7,1.9,3.2L54,58.6z"/>
		</g>
		<g>
			<path class="st2" d="M49.3,59.7c-1-0.6-1.8-1.8-2.1-3.5c-0.6-3.1,0.3-6.8,2.4-9.4c2.5-4,0.6-10.7-1.3-12.6
				c-2.3-2.9-1.7-5.2-0.6-6.3c1.1-1,2.7-1.1,3.9-0.2L51.3,28c-1-0.8-2.4-0.7-3.3,0.1c-1,1-1.5,3,0.6,5.6c2.2,2.2,3.8,9.3,1.4,13.2
				c-2.5,3.1-2.8,6.8-2.4,9.1c0.3,1.5,1,2.7,1.9,3.2L49.3,59.7z"/>
		</g>
		<g>
			<path class="st2" d="M44.9,60.8c-1-0.6-1.8-1.8-2.1-3.5c-0.6-3.1,0.3-6.8,2.4-9.4c2.5-4,0.6-10.7-1.3-12.6
				c-2.3-2.9-1.7-5.2-0.6-6.3c1.1-1,2.7-1.1,3.9-0.2l-0.3,0.4c-1-0.8-2.4-0.7-3.3,0.1c-1,1-1.5,3,0.6,5.6c2.2,2.2,3.8,9.3,1.4,13.2
				c-2.5,3.1-2.8,6.8-2.4,9.1c0.3,1.5,1,2.7,1.9,3.2L44.9,60.8z"/>
		</g>
		<g>
			<path class="st2" d="M41.2,61.9c-1-0.6-1.8-1.8-2.1-3.5c-0.6-3.1,0.3-6.8,2.4-9.4c2.5-4,0.6-10.7-1.3-12.6
				c-2.3-2.9-1.7-5.2-0.6-6.3c1.1-1,2.7-1.1,3.9-0.2l-0.3,0.4c-1-0.8-2.4-0.7-3.3,0.1c-1,1-1.5,3,0.6,5.6c2.2,2.2,3.8,9.3,1.4,13.2
				c-2.5,3.1-2.8,6.8-2.4,9.1c0.3,1.5,1,2.7,1.9,3.2L41.2,61.9z"/>
		</g>
	</g>
	<polyline class="st1" points="87.9,15.2 32.9,29.8 85.4,12.8 	"/>
	<g>
		<polygon class="st4" points="60.2,90.8 41,90.8 38.6,65.5 63.4,65.5 		"/>
		<line class="st5" x1="30.3" y1="58" x2="38.9" y2="65.7"/>
		<line class="st5" x1="72" y1="58" x2="63.5" y2="71.7"/>
	</g>
	<path class="st1" d="M87.9,10.8"/>
</g>
<path class="st6" d="M84.7,14.5L52.1,47.2L19.5,14.5c-0.8-0.8-2-0.8-2.8,0l-1.9,1.9c-0.8,0.8-0.8,2,0,2.8l32.6,32.6L14.7,84.5
	c-0.8,0.8-0.8,2,0,2.8l1.9,1.9c0.8,0.8,2,0.8,2.8,0l32.6-32.6l32.6,32.6c0.8,0.8,2,0.8,2.8,0l1.9-1.9c0.8-0.8,0.8-2,0-2.8L56.8,51.9
	l32.6-32.6c0.8-0.8,0.8-2,0-2.8l-1.9-1.9C86.8,13.7,85.5,13.7,84.7,14.5z"/>
</svg>
