<?xml version="1.0" encoding="utf-8"?>
<!-- Generator: Adobe Illustrator 22.1.0, SVG Export Plug-In . SVG Version: 6.00 Build 0)  -->
<svg version="1.1" id="Layer_1" xmlns="http://www.w3.org/2000/svg" xmlns:xlink="http://www.w3.org/1999/xlink" x="0px" y="0px"
	 viewBox="0 0 105.3 105.2" style="enable-background:new 0 0 105.3 105.2;" xml:space="preserve">
<style type="text/css">
	.st0{fill:#8ACFC3;stroke:#3D8A7E;stroke-width:1.1112;stroke-miterlimit:10;}
	.st1{fill:#5E4A31;}
	.st2{fill:#F5F5F5;stroke:#000000;stroke-width:0.8334;stroke-miterlimit:10;}
	.st3{fill:#E25944;stroke:#050300;stroke-width:1.1112;stroke-miterlimit:10;}
	.st4{opacity:0.66;fill:#F90808;}
</style>
<path class="st0" d="M52.6,104.5c-28.7,0-51.9-23.3-51.9-51.9s23.2-52,51.9-52s51.9,23.3,51.9,51.9S81.3,104.5,52.6,104.5"/>
<path class="st1" d="M58.7,43.2l-0.3-0.3c-0.1-0.1-0.1-0.4,0-0.5l25.6-22c0.1-0.1,0.4-0.1,0.5,0l0.3,0.3c0.1,0.1,0.1,0.4,0,0.5
	l-25.6,22C59,43.4,58.8,43.4,58.7,43.2z"/>
<path class="st1" d="M63.7,46.7l-0.4-0.1c-0.2-0.1-0.3-0.3-0.2-0.4L73.2,14c0.1-0.2,0.3-0.3,0.4-0.2l0.4,0.1
	c0.2,0.1,0.3,0.3,0.2,0.4l-10,32.2C64.1,46.6,63.9,46.7,63.7,46.7z"/>
<path class="st2" d="M81.3,46.3c0-0.8-0.5-1.5-1.1-1.8v-0.1c0-0.9-0.5-1.6-1.3-1.8c0.1-0.3,0.2-0.7,0.2-1c0-1.6-1-2.8-2.2-2.8
	c-0.7,0-1.3,0.4-1.7,1c-0.4-0.6-1-1-1.7-1c-0.6,0-1.2,0.3-1.6,0.9c-0.9,0.1-1.8,0.4-2.7,1.1c-0.4,0.3-0.9,0.7-1.4,1
	c-0.2-1.7-1.1-2.9-2.2-2.9c-0.5,0-1,0.3-1.4,0.8c-0.4-1.6-1.4-2.7-2.5-2.7c-0.5,0-1,0.3-1.5,0.7c-0.4-0.5-0.8-0.7-1.3-0.7
	c-1,0-1.8,1.1-2.1,2.5c-0.4-0.4-0.8-0.6-1.2-0.6c-1.2,0-2.2,1.7-2.2,3.8c0,0.2,0,0.5,0,0.7c-0.3-0.2-0.6-0.3-0.9-0.5
	c0.1-0.2,0.2-0.5,0.2-0.7c0.2-1.4-0.3-2.7-1.1-3.1c-0.3-0.1-0.7-0.1-1,0.2c-0.1-1.2-0.6-2.1-1.4-2.5c-0.2-0.1-0.4-0.1-0.5-0.1
	c-0.1-0.9-0.5-1.7-1.1-1.9c-0.8-0.3-1.6,0.5-1.8,1.8c0,0.1,0,0.2,0,0.4c-0.2-0.3-0.4-0.6-0.7-0.7c-0.5-0.2-0.9,0-1.3,0.5
	c-0.5-0.2-0.9-0.4-1.4-0.5c-0.5-0.8-1.1-1.2-1.8-1.2c-1,0-1.8,0.8-2.3,2.1c-0.9,0.6-2.2,2.1-3.2,3.9c-0.3-0.2-0.7-0.3-1.1-0.3
	c-1.5,0-2.8,1.7-2.8,3.8c0,1.4,0.6,2.6,1.4,3.2c-0.4,0.1-1,0.1-1.5,0.1c0.1-0.4,0.2-0.9,0.2-1.5c0-2.1-1-3.8-2.2-3.8
	c-1.1,0-2,1.3-2.2,3.1c-1.4-0.2-3.4,1.6-3.4,4.5h56.7c0-0.6-0.1-1.3-0.3-1.9C80.7,48,81.3,47.2,81.3,46.3z"/>
<path class="st3" d="M86.3,48.4H17.9c0,16.5,11.7,30.3,27.2,33.5v3.2h14.4v-3.3l0,0C74.8,78.3,86.3,64.7,86.3,48.4z"/>
<path class="st4" d="M85.2,15.2L52.6,47.8L20,15.2c-0.8-0.8-2-0.8-2.8,0l-1.9,1.9c-0.8,0.8-0.8,2,0,2.8l32.6,32.6L15.2,85.2
	c-0.8,0.8-0.8,2,0,2.8l1.9,1.9c0.8,0.8,2,0.8,2.8,0l32.6-32.6l32.6,32.6c0.8,0.8,2,0.8,2.8,0L90,88c0.8-0.8,0.8-2,0-2.8L57.3,52.5
	L90,19.9c0.8-0.8,0.8-2,0-2.8l-1.9-1.9C87.3,14.4,86,14.4,85.2,15.2z"/>
</svg>
