<?xml version="1.0" encoding="utf-8"?>
<!-- Generator: Adobe Illustrator 22.1.0, SVG Export Plug-In . SVG Version: 6.00 Build 0)  -->
<svg version="1.1" id="Layer_1" xmlns="http://www.w3.org/2000/svg" xmlns:xlink="http://www.w3.org/1999/xlink" x="0px" y="0px"
	 viewBox="0 0 105.3 105.2" style="enable-background:new 0 0 105.3 105.2;" xml:space="preserve">
<style type="text/css">
	.st0{fill:#8ACFC3;stroke:#337F71;stroke-width:1.1112;stroke-miterlimit:10;}
	.st1{fill:#E25944;stroke:#000000;stroke-width:0.2778;stroke-miterlimit:10;}
	.st2{fill:#FFFFFF;stroke:#000000;stroke-width:0.5556;stroke-miterlimit:10;}
	.st3{fill:#72716F;stroke:#000000;stroke-width:0.2778;stroke-miterlimit:10;}
	.st4{fill:#E1AC63;}
	.st5{opacity:0.66;fill:#F90808;}
</style>
<path class="st0" d="M52.7,104.6c-28.7,0-52-23.3-52-52S24,0.7,52.7,0.7s51.9,23.3,51.9,51.9S81.4,104.6,52.7,104.6"/>
<path class="st1" d="M76.5,59.6c-4.9,1.4-13.7,2.5-22.2,2.6v0.1v-0.1c-8.5-0.1-17.3-1.1-22.2-2.6c-3.1-1.9,0.1,3.3,1.4,4.5
	c2,1.7,3.3,3.5,3.5,5.3c3.3,2.7,10.3,3.8,17.3,3.7c6.9,0.1,14-1,17.3-3.7c0.2-1.8,1.5-3.6,3.5-5.3C76.4,62.9,79.6,57.8,76.5,59.6z"
	/>
<ellipse class="st2" cx="54.3" cy="53.3" rx="32.4" ry="8.5"/>
<path class="st3" d="M41.5,59.9c-1.4-2.3-3.4-4.4-5.5-6.5c-2.5-4.4-11.8-9.8-10.6-12.1C31.1,32.8,36.9,50.5,41.5,59.9z"/>
<path class="st4" d="M79.9,58.2c0-3.6-11.2-6.6-25.1-6.6s-25.1,2.9-25.1,6.6c6.2,2.6,14.4,3.6,24,3.6C64.1,61.8,73,60.7,79.9,58.2z"
	/>
<g>
	<path d="M41.6,30.3c-0.5,0.7-1.1,1.3-1.4,2c-0.1,0.2-0.2,0.3-0.2,0.5c-0.1,0.2-0.1,0.3-0.1,0.4c0,0.3,0,0.4,0.3,0.6
		c0.4,0.4,1.2,0.7,2,1s1.6,0.7,2.4,1.2l0,0l0.1,0.1c0.3,0.3,0.6,0.9,0.6,1.4s-0.1,1-0.2,1.3c-0.3,0.7-0.8,1.3-1.3,1.8s-1,1-1.5,1.4
		c-0.3,0.2-0.5,0.4-0.7,0.6c-0.2,0.2-0.5,0.5-0.4,0.5l-0.1,0.2c-0.1,0-0.2-0.2-0.2-0.3s0-0.2,0-0.3c0.1-0.2,0.1-0.4,0.2-0.5
		c0.2-0.3,0.4-0.6,0.5-0.9l1.1-1.6c0.3-0.5,0.7-1,0.8-1.5c0.1-0.2,0.1-0.5,0.1-0.6s-0.1-0.2-0.2-0.4l0.1,0.1c-0.6-0.4-1.3-0.8-2-1.1
		c-0.4-0.2-0.8-0.4-1.1-0.6c-0.4-0.2-0.8-0.5-1.2-0.9c-0.2-0.2-0.3-0.5-0.5-0.8c0-0.3-0.1-0.7,0-0.9c0.1-0.3,0.2-0.5,0.3-0.7
		s0.3-0.4,0.4-0.6c0.6-0.7,1.3-1.2,2-1.6L41.6,30.3z"/>
</g>
<g>
	<path d="M53.9,29.4c-0.5,0.7-1.1,1.3-1.4,2c-0.1,0.2-0.2,0.3-0.2,0.5c-0.1,0.2-0.1,0.3-0.1,0.4c0,0.3,0,0.4,0.3,0.6
		c0.4,0.4,1.2,0.7,2,1s1.6,0.7,2.4,1.2l0,0l0.1,0.1c0.3,0.3,0.6,0.9,0.6,1.4s-0.1,1-0.2,1.3c-0.3,0.7-0.8,1.3-1.3,1.8s-1,1-1.5,1.4
		c-0.3,0.2-0.5,0.4-0.7,0.6c-0.2,0.2-0.5,0.5-0.4,0.5l-0.1,0.2c-0.1,0-0.2-0.2-0.2-0.3s0-0.2,0-0.3c0.1-0.2,0.1-0.4,0.2-0.5
		c0.2-0.3,0.4-0.6,0.5-0.9l1.1-1.6c0.3-0.5,0.7-1,0.8-1.5c0.1-0.2,0.1-0.5,0.1-0.6s-0.1-0.2-0.2-0.4l0.1,0.1c-0.6-0.4-1.3-0.8-2-1.1
		c-0.4-0.2-0.8-0.4-1.1-0.6c-0.4-0.2-0.8-0.5-1.2-0.9c-0.2-0.2-0.3-0.5-0.5-0.8c0-0.3-0.1-0.7,0-0.9c0.1-0.3,0.2-0.5,0.3-0.7
		s0.3-0.4,0.4-0.6c0.6-0.7,1.3-1.2,2-1.6L53.9,29.4z"/>
</g>
<g>
	<path d="M65.9,29.8c-0.5,0.7-1.1,1.3-1.4,2c-0.1,0.2-0.2,0.3-0.2,0.5c-0.1,0.2-0.1,0.3-0.1,0.4c0,0.3,0,0.4,0.3,0.6
		c0.4,0.4,1.2,0.7,2,1s1.6,0.7,2.4,1.2l0,0l0.1,0.1c0.3,0.3,0.6,0.9,0.6,1.4s-0.1,1-0.2,1.3c-0.3,0.7-0.8,1.3-1.3,1.8s-1,1-1.5,1.4
		c-0.3,0.2-0.5,0.4-0.7,0.6c-0.2,0.2-0.5,0.5-0.4,0.5L65.2,43c-0.1,0-0.2-0.2-0.2-0.3s0-0.2,0-0.3c0.1-0.2,0.1-0.4,0.2-0.5
		c0.2-0.3,0.4-0.6,0.5-0.9l1.1-1.6c0.3-0.5,0.7-1,0.8-1.5c0.1-0.2,0.1-0.5,0.1-0.6s-0.1-0.2-0.2-0.4l0.1,0.1c-0.6-0.4-1.3-0.8-2-1.1
		c-0.4-0.2-0.8-0.4-1.1-0.6c-0.4-0.2-0.8-0.5-1.2-0.9c-0.2-0.2-0.3-0.5-0.5-0.8c0-0.3-0.1-0.7,0-0.9c0.1-0.3,0.2-0.5,0.3-0.7
		s0.3-0.4,0.4-0.6c0.6-0.7,1.3-1.2,2-1.6H65.9z"/>
</g>
<path class="st5" d="M84.2,14.2L51.6,46.8L19,14.2c-0.8-0.8-2-0.8-2.8,0l-1.9,1.9c-0.8,0.8-0.8,2,0,2.8l32.6,32.6L14.2,84.2
	c-0.8,0.8-0.8,2,0,2.8l1.9,1.9c0.8,0.8,2,0.8,2.8,0l32.6-32.6l32.6,32.6c0.8,0.8,2,0.8,2.8,0L89,87c0.8-0.8,0.8-2,0-2.8L56.3,51.5
	L89,18.9c0.8-0.8,0.8-2,0-2.8l-1.9-1.9C86.3,13.4,85,13.4,84.2,14.2z"/>
</svg>
