<?xml version="1.0" encoding="utf-8"?>
<!-- Generator: Adobe Illustrator 22.1.0, SVG Export Plug-In . SVG Version: 6.00 Build 0)  -->
<svg version="1.1" id="Layer_1" xmlns="http://www.w3.org/2000/svg" xmlns:xlink="http://www.w3.org/1999/xlink" x="0px" y="0px"
	 viewBox="0 0 105.3 105.2" style="enable-background:new 0 0 105.3 105.2;" xml:space="preserve">
<style type="text/css">
	.st0{fill:#F47F5A;stroke:#E25944;stroke-width:1.1112;stroke-miterlimit:10;}
	.st1{fill:#DE1C13;stroke:#000000;stroke-width:0.5556;stroke-miterlimit:10;}
	.st2{fill:#73950A;}
</style>
<g id="Spicy">
	<circle class="st0" cx="52.7" cy="52.6" r="51.9"/>
	<path class="st1" d="M18,62c40.4,33,53-1.6,57.9-23.2l-4.6-5.9C45.7,32.3,61,70.4,18,62z"/>
	<path class="st2" d="M71,32.5c0.5-2.4,0.9-5.3,1.2-8.6c0.2-1.1-0.5-2.1-1.5-2.3l0,0c-1-0.2-2.1,0.3-2.1,1.6c0.9,4.1-1.1,8.9-1.1,9
		c-4.4-0.8-8.5,3.5-9.5,6.4c3-0.3,4.5-3.3,6.6-3.2c-1.5,1.6-0.8,2.6,0.1,3.8c4.7-6.3,5.2-3.5,4.8,1c2-1.6,2.6-1.9,3-3.6
		c1.7,1,1.6,3.7,2.6,5.1C76.7,37.9,75.6,34.9,71,32.5z"/>
</g>
</svg>
