<?xml version="1.0" encoding="utf-8"?>
<!-- Generator: Adobe Illustrator 22.1.0, SVG Export Plug-In . SVG Version: 6.00 Build 0)  -->
<svg version="1.1" id="Layer_1" xmlns="http://www.w3.org/2000/svg" xmlns:xlink="http://www.w3.org/1999/xlink" x="0px" y="0px"
	 viewBox="0 0 110.3 17.9" style="enable-background:new 0 0 110.3 17.9;" xml:space="preserve">
<style type="text/css">
	.st0{fill:#F4B4A2;}
	.st1{fill:#FFFFFF;}
	.st2{font-family:'Ranchers-Regular';}
	.st3{font-size:8.4382px;}
	.st4{fill:url(#SVGID_1_);}
	.st5{fill:url(#SVGID_2_);}
</style>
<g>
	<path class="st0" d="M46.1,17.7H21.8c-4.2,0-7.6-3.4-7.6-7.6V7.6c0-4.2,3.4-7.6,7.6-7.6h24.3c4.2,0,7.6,3.4,7.6,7.6v2.5
		C53.7,14.3,50.3,17.7,46.1,17.7z"/>
	<text transform="matrix(1.1272 0 0 1 22.3535 11.8719)" class="st1 st2 st3">STEP 2</text>
	<path class="st0" d="M102.5,17.7H78.2c-4.2,0-7.6-3.4-7.6-7.6V7.6C70.6,3.4,74,0,78.2,0h24.3c4.2,0,7.6,3.4,7.6,7.6v2.5
		C110.1,14.3,106.7,17.7,102.5,17.7z"/>
	
		<linearGradient id="SVGID_1_" gradientUnits="userSpaceOnUse" x1="468.7336" y1="-108.3406" x2="469.8889" y2="-113.242" gradientTransform="matrix(0 1 1 0 118.1261 -460.3043)">
		<stop  offset="0" style="stop-color:#F5DDBB"/>
		<stop  offset="0.2027" style="stop-color:#F4D9B4"/>
		<stop  offset="0.4926" style="stop-color:#F1D0A1"/>
		<stop  offset="0.8335" style="stop-color:#EDC082"/>
		<stop  offset="1" style="stop-color:#EAB871"/>
	</linearGradient>
	<polygon class="st4" points="10.5,9.7 7.4,11.3 4.2,12.9 4.2,9.7 4.2,6.5 7.4,8.1 	"/>
	
		<linearGradient id="SVGID_2_" gradientUnits="userSpaceOnUse" x1="468.2366" y1="-51.9537" x2="469.3919" y2="-56.855" gradientTransform="matrix(0 1 1 0 118.1261 -460.3043)">
		<stop  offset="0" style="stop-color:#F5DDBB"/>
		<stop  offset="0.2027" style="stop-color:#F4D9B4"/>
		<stop  offset="0.4926" style="stop-color:#F1D0A1"/>
		<stop  offset="0.8335" style="stop-color:#EDC082"/>
		<stop  offset="1" style="stop-color:#EAB871"/>
	</linearGradient>
	<polygon class="st5" points="66.9,9.2 63.7,10.8 60.6,12.4 60.6,9.2 60.6,6 63.7,7.6 	"/>
	<text transform="matrix(1.1272 0 0 1 78.7035 11.866)" class="st1 st2 st3">STEP 3</text>
</g>
</svg>
