<?xml version="1.0" encoding="utf-8"?>
<!-- Generator: Adobe Illustrator 22.1.0, SVG Export Plug-In . SVG Version: 6.00 Build 0)  -->
<svg version="1.1" id="Layer_1" xmlns="http://www.w3.org/2000/svg" xmlns:xlink="http://www.w3.org/1999/xlink" x="0px" y="0px"
	 viewBox="0 0 105.3 105.2" style="enable-background:new 0 0 105.3 105.2;" xml:space="preserve">
<style type="text/css">
	.st0{fill:#EDD4BB;stroke:#231916;stroke-width:0.672;stroke-miterlimit:10;}
	.st1{fill:#00B451;stroke:#231916;stroke-width:0.7202;stroke-miterlimit:10;}
	.st2{fill:#00953B;stroke:#231916;stroke-width:0.7202;stroke-miterlimit:10;}
	.st3{fill:#00BC70;stroke:#231916;stroke-width:0.7202;stroke-miterlimit:10;}
	.st4{fill:#00CE7C;stroke:#231916;stroke-width:0.7202;stroke-miterlimit:10;}
	.st5{fill:#00AE42;stroke:#231916;stroke-width:0.7202;stroke-miterlimit:10;}
	.st6{fill:#45A041;stroke:#231916;stroke-width:0.7202;stroke-miterlimit:10;}
	.st7{fill:#FF9015;stroke:#231916;stroke-width:0.7202;stroke-miterlimit:10;}
</style>
<g>
	<circle class="st0" cx="52.7" cy="52.6" r="51.9"/>
	<circle class="st1" cx="42" cy="52.6" r="23.8"/>
	<path class="st2" d="M65.8,50.1c0,13.1-10.7,23.8-23.8,23.8S18.2,63.2,18.2,50.1S37.6,28.2,50,32.4C59.8,35.8,65.8,36.9,65.8,50.1z
		"/>
	<path class="st3" d="M65.8,57.4c0,5.3-1.8,10.3-4.7,14.2c-4.3,5.8-10-5.1-17.8-5.1c-13.1,0-6.3-4.2-0.6-16
		c4.1-8.5,0.4-11.9,5.5-17.4c3.7-3.9,5,2.6,9.2,6.1C62.5,43.6,65.8,50.1,65.8,57.4z"/>
	<path class="st4" d="M65.8,50.6c0,5.1-1.6,9.8-4.3,13.6C57.2,70.4,50.1,74.4,42,74.4c-13.1,0,5.6-7.5,5.6-20.6s7.8-5.8,8.3-6
		c4.7-0.9-1.2-19.3,2.6-16.8C65,35.3,65.8,42.3,65.8,50.6z"/>
	<path class="st5" d="M99,39.7c0-3.5-2.6-6.4-6-6.8c-0.9-2.7-3.5-4.6-6.5-4.6c-2.2,0-4.2,1.1-5.5,2.7c-0.8-0.3-1.6-0.4-2.4-0.4
		c-3.9,0-7,3.1-7,7c0,3.3,2.3,6,5.3,6.8l-4.9,4.9c-1.5,1.5-1.5,4,0,5.5h0c1.5,1.5,4,1.5,5.5,0l7.8-7.8c0.9,2.7,3.5,4.7,6.5,4.7
		c3.8,0,6.8-3,6.8-6.8c0-0.8-0.1-1.5-0.4-2.2C98.8,41.9,99,40.8,99,39.7z"/>
	<path class="st6" d="M60.3,63.6c3.4,0.3,3.7,1.2-1,5.4c-3.5,3.1-9.8,6.8-17.3,6.5c-13.4-0.4-23.7-10.1-23.8-23.8
		c-0.1-11.7,6.3-27.1,10-20.4c1.2,2.2,0.3,7,3,9.9c2.3,2.4,8.1,2.9,10.8,5.4c2.2,2.1-0.5,9.8,1.7,11.8
		C50.3,64.3,58.6,63.4,60.3,63.6z"/>
	<path class="st7" d="M45,71.7c-2.6,1.2-4.7-1.3-3.1-3.6l10.3-14.3l13.6-19c1.1-1.6,3.3-1.9,4.4-0.6l6.5,7.7l6.5,7.7
		c1.1,1.3,0.4,3.4-1.3,4.2L60.9,64L45,71.7z"/>
	<line class="st7" x1="66.3" y1="56.5" x2="61.7" y2="48.7"/>
	<line class="st7" x1="66.6" y1="55.3" x2="62" y2="47.5"/>
	<line class="st7" x1="54.5" y1="74.8" x2="51.6" y2="70.1"/>
</g>
</svg>
