<?xml version="1.0" encoding="utf-8"?>
<!-- Generator: Adobe Illustrator 22.1.0, SVG Export Plug-In . SVG Version: 6.00 Build 0)  -->
<svg version="1.1" id="Layer_1" xmlns="http://www.w3.org/2000/svg" xmlns:xlink="http://www.w3.org/1999/xlink" x="0px" y="0px"
	 viewBox="0 0 105.3 105.2" style="enable-background:new 0 0 105.3 105.2;" xml:space="preserve">
<style type="text/css">
	.st0{fill:#FCFCFC;stroke:#DB5845;stroke-width:0.5;stroke-miterlimit:10;}
	.st1{fill:#FCFCFC;stroke:#F3BB75;stroke-width:0.5;stroke-miterlimit:10;}
	.st2{fill:#FCFCFC;stroke:#A3C46A;stroke-miterlimit:10;}
	.st3{fill:#FFFFFF;stroke:#000000;stroke-width:0.25;stroke-miterlimit:10;}
	.st4{fill:#EE1A19;}
	.st5{fill:#22205F;}
	.st6{fill:#F2F2F2;stroke:#000000;stroke-width:0.25;stroke-miterlimit:10;}
	.st7{fill:#ED1C24;}
	.st8{display:none;fill:#F0EEEB;}
	.st9{fill:#4D4D4D;}
	.st10{fill:#A3C46A;stroke:#80C8BD;stroke-width:0.5;stroke-miterlimit:10;}
	.st11{fill:#85CABE;}
	.st12{fill:#F3BB75;}
	.st13{fill:#ED7F5A;}
	.st14{fill:#DB5845;}
	.st15{fill:#FC8714;}
	.st16{fill:#F7F2F2;}
	.st17{fill:#017F01;}
	.st18{fill:#000088;}
	.st19{fill:#FFFFFF;}
	.st20{fill:#F0EEEB;stroke:#020202;stroke-width:0.25;stroke-miterlimit:10;}
	.st21{fill:#32245F;}
	.st22{fill:#B00E2E;}
	.st23{fill:#F2F2F2;}
</style>
<g id="Noodles">
	<circle class="st0" cx="52.6" cy="52.6" r="51.9"/>
	<path class="st0" d="M87.8,10.8"/>
</g>
<g id="Noodles_1_">
	<circle class="st1" cx="51.8" cy="-78.6" r="51.9"/>
	<path class="st1" d="M87-120.4"/>
</g>
<g id="Noodles_2_">
	<circle class="st2" cx="-317.1" cy="-108.5" r="51.9"/>
	<path class="st2" d="M-281.9-150.3"/>
</g>
<path id="korea_5_" class="st3" d="M67.9,30.5c9.3-2.4,21.4,11.6,33.2,17.6c0,9.9-11.4,15.9-9.1,25.9c-15.9-2.3-23.6-18-36.6-18.5
	L67.9,30.5z"/>
<path class="st4" d="M67.1,59.7c-2-1.3-7.6-3.5-11.1-4.3l11.9-25.2c4.1-0.1,8.7,1.5,12.2,3.5L67.1,59.7z"/>
<path class="st4" d="M92,74.1c-2.3,0.1-9.8-3.2-12.4-5l12.2-26.9c2.8,2.1,6.1,4.2,9.2,5.9C103.1,54.3,89.4,64.5,92,74.1z"/>
<path class="st4" d="M80.5,54.4l3.7-0.7l-0.4-0.8l1.3-1.4l-1.7-0.7l0.1-0.9c-3.4,1.7-2-0.1,0.2-2.4l-1.4,0l0.1-2.4l-2.1,1.3
	l-0.8-1.1c-1,4.6-1.4,4.4-1.6,1.3l-1,0.6l-1.5-1.1l-0.3,1.9l-1,0.1l1.5,3.6c0,0-0.5,0.7-0.8,0.9c0.7,0.1,2,0.8,2.6,1.1l-0.9,1.7
	l0.3,0.2l0.9-1.7c0,0,2.1,1.6,2.4,1.7C80,55.4,80.5,54.4,80.5,54.4z"/>
<path id="korea_7_" class="st3" d="M37.2,30.5C27.9,28.1,15.8,42.1,4,48.1c0,9.9,11.4,15.9,9.1,25.9C29,71.7,36.7,56,49.7,55.5
	L37.2,30.5z"/>
<path class="st5" d="M42.3,40.9l-17.6,8.8l-6.2-11.4c2.2-1,10.9-9.5,18.8-7.9L42.3,40.9z"/>
<polygon class="st6" points="36.3,32.4 35.7,32.3 35.2,32.7 35.1,32.1 34.6,31.8 35.2,31.5 35.3,30.9 35.7,31.3 36.4,31.3 36,31.8 
	"/>
<polygon class="st6" points="37.5,35.2 36.9,35 36.4,35.5 36.4,34.8 35.8,34.5 36.4,34.3 36.5,33.6 36.9,34.1 37.6,34 37.3,34.6 "/>
<polygon class="st6" points="38.7,37.9 38.1,37.8 37.6,38.2 37.6,37.6 37,37.3 37.6,37 37.7,36.4 38.1,36.9 38.8,36.8 38.5,37.3 "/>
<polygon class="st6" points="40.1,40.7 39.5,40.6 39,41 38.9,40.4 38.4,40 39,39.8 39.1,39.1 39.5,39.6 40.2,39.5 39.8,40.1 "/>
<g>
	<polygon class="st6" points="33.6,33.1 32.9,33 32.5,33.4 32.4,32.8 31.8,32.5 32.4,32.2 32.5,31.5 33,32 33.6,31.9 33.3,32.5 	"/>
	<polygon class="st6" points="34.8,35.9 34.1,35.7 33.7,36.2 33.6,35.5 33,35.2 33.6,35 33.7,34.3 34.2,34.8 34.8,34.7 34.5,35.3 	
		"/>
	<polygon class="st6" points="36,38.6 35.3,38.5 34.9,38.9 34.8,38.3 34.2,38 34.8,37.7 34.9,37.1 35.4,37.5 36,37.5 35.7,38 	"/>
	<polygon class="st6" points="37.4,41.4 36.7,41.2 36.3,41.7 36.2,41 35.6,40.7 36.2,40.5 36.3,39.8 36.8,40.3 37.4,40.2 37.1,40.8 
			"/>
</g>
<polygon class="st6" points="30.6,34.1 30,34 29.5,34.5 29.5,33.8 28.9,33.5 29.5,33.2 29.6,32.6 30,33.1 30.7,33 30.4,33.5 "/>
<polygon class="st6" points="31.8,36.9 31.2,36.8 30.7,37.2 30.7,36.6 30.1,36.3 30.7,36 30.8,35.3 31.2,35.8 31.9,35.7 31.6,36.3 
	"/>
<polygon class="st6" points="33.1,39.6 32.4,39.5 31.9,40 31.9,39.3 31.3,39 31.9,38.7 32,38.1 32.4,38.6 33.1,38.5 32.8,39.1 "/>
<polygon class="st6" points="34.4,42.4 33.8,42.3 33.3,42.7 33.3,42.1 32.7,41.8 33.3,41.5 33.4,40.9 33.8,41.3 34.5,41.3 
	34.1,41.8 "/>
<g>
	<polygon class="st6" points="27.7,35.5 27.1,35.4 26.6,35.8 26.5,35.2 26,34.9 26.5,34.6 26.7,34 27.1,34.4 27.7,34.4 27.4,34.9 	
		"/>
	<polygon class="st6" points="28.9,38.3 28.3,38.1 27.8,38.6 27.7,37.9 27.2,37.6 27.8,37.4 27.9,36.7 28.3,37.2 29,37.1 28.6,37.7 
			"/>
	<polygon class="st6" points="30.1,41 29.5,40.9 29,41.3 28.9,40.7 28.4,40.4 29,40.1 29.1,39.5 29.5,40 30.2,39.9 29.8,40.4 	"/>
	<polygon class="st6" points="31.5,43.8 30.9,43.7 30.4,44.1 30.3,43.5 29.7,43.2 30.3,42.9 30.5,42.2 30.9,42.7 31.5,42.6 
		31.2,43.2 	"/>
</g>
<g>
	<polygon class="st6" points="25.1,37.2 24.5,37.1 24,37.6 23.9,36.9 23.4,36.6 24,36.3 24.1,35.7 24.5,36.2 25.2,36.1 24.8,36.6 	
		"/>
	<polygon class="st6" points="26.3,40 25.7,39.9 25.2,40.3 25.1,39.7 24.6,39.4 25.2,39.1 25.3,38.4 25.7,38.9 26.4,38.8 26,39.4 	
		"/>
	<polygon class="st6" points="27.5,42.8 26.9,42.6 26.4,43.1 26.4,42.4 25.8,42.1 26.4,41.8 26.5,41.2 26.9,41.7 27.6,41.6 
		27.3,42.2 	"/>
	<polygon class="st6" points="28.9,45.5 28.3,45.4 27.8,45.8 27.7,45.2 27.2,44.9 27.8,44.6 27.9,44 28.3,44.4 29,44.4 28.6,44.9 	
		"/>
</g>
<g>
	<polygon class="st6" points="22.5,39.1 21.9,39 21.4,39.5 21.4,38.8 20.8,38.5 21.4,38.2 21.5,37.6 21.9,38.1 22.6,38 22.3,38.5 	
		"/>
	<polygon class="st6" points="23.7,41.9 23.1,41.8 22.6,42.2 22.6,41.6 22,41.3 22.6,41 22.7,40.3 23.1,40.8 23.8,40.7 23.5,41.3 	
		"/>
	<polygon class="st6" points="25,44.6 24.3,44.5 23.8,45 23.8,44.3 23.2,44 23.8,43.7 23.9,43.1 24.3,43.6 25,43.5 24.7,44.1 	"/>
	<polygon class="st6" points="26.3,47.4 25.7,47.3 25.2,47.7 25.1,47.1 24.6,46.8 25.2,46.5 25.3,45.9 25.7,46.3 26.4,46.3 26,46.8 
			"/>
</g>
<path class="st7" d="M4,49.1l15.9-8l-1.4-2.7c-4.9,3.9-12,8.5-14.5,9.8C4,48.2,4,48.9,4,49.1z"/>
<path class="st7" d="M5,53.5c6.8-3.5,13.8-7.1,17.1-8.4l-0.7-1.6C18,44.8,11,48.2,4.5,52.1L5,53.5z"/>
<path class="st7" d="M7.8,58.5c5.6-3.1,11.2-6,16.9-8.8L24,48.4c-2.9,1.1-10.3,5.2-17.1,8.8C7.2,57.6,7.5,58.1,7.8,58.5z"/>
<path class="st7" d="M11.4,64.4c6.6-3,20.2-10.4,34.1-17.1l-1-2.2C37.8,47.6,24,55.4,10.2,62.3L11.4,64.4z"/>
<path class="st7" d="M13.3,72.3c14.3-6.3,28.9-17.1,35.8-18l-1.3-2.5c-4.5,1.7-20.6,11.1-34.7,17.5C13.4,70.2,13.4,71.2,13.3,72.3z"
	/>
<g>
	<path id="korea_4_" class="st8" d="M67.1,31.2c9.3-2.3,21.3,11.7,33.2,17.8c-0.1,9.9-11.5,15.9-9.3,25.8
		c-15.9-2.4-23.5-18.1-36.5-18.6L67.1,31.2z"/>
	<path class="st9" d="M44.1,75l0.1,0.1c0.3,0.2,0.7,0,0.8-0.3l22.4-44.4c0.2-0.3,0-0.7-0.3-0.8l-0.1-0.1c-0.3-0.2-0.7,0-0.8,0.3
		L43.9,74.2C43.7,74.5,43.8,74.8,44.1,75z"/>
</g>
<g>
	<path id="korea_8_" class="st8" d="M37.9,31.2C28.6,28.9,16.6,42.9,4.8,49c0.1,9.9,11.5,15.9,9.3,25.8
		c15.9-2.4,23.5-18.1,36.5-18.6L37.9,31.2z"/>
	<path class="st9" d="M61,75l-0.1,0.1c-0.3,0.2-0.7,0-0.8-0.3L37.5,30.3c-0.2-0.3,0-0.7,0.3-0.8l0.1-0.1c0.3-0.2,0.7,0,0.8,0.3
		l22.4,44.4C61.4,74.5,61.3,74.8,61,75z"/>
</g>
<g id="Colour_Palette">
	<g>
		<text transform="matrix(1 0 0 1 -76.877 232.7593)" style="font-family:'Ranchers-Regular'; font-size:30.0029px;">Colour Palette</text>
	</g>
	<polygon class="st10" points="155.8,386.5 170.5,410.3 198.5,409.4 211.7,384.8 197,361 169.1,361.8 	"/>
	<polygon class="st11" points="68,481.6 82.8,505.4 110.7,504.5 123.9,479.9 109.2,456.1 81.3,456.9 	"/>
	<polygon class="st12" points="-213.4,384 -198.6,407.8 -170.7,407 -157.4,382.3 -172.2,358.5 -200.1,359.4 	"/>
	<polygon class="st13" points="-116.7,478.5 -102,502.3 -74,501.5 -60.8,476.8 -75.5,453.1 -103.4,453.9 	"/>
	<polygon class="st14" points="-24,391.6 -9.3,415.4 18.7,414.6 31.9,389.9 17.2,366.1 -10.8,367 	"/>
	<text transform="matrix(1 0 0 1 -212.939 431.937)" style="font-family:'Mali-Bold'; font-size:11.3033px;">Soft Yellow</text>
	<text transform="matrix(1 0 0 1 -122.2627 431.937)" style="font-family:'Mali-Bold'; font-size:11.3033px;">Pale Orange</text>
	<g>
		<text transform="matrix(1 0 0 1 -16.9648 431.8755)" style="font-family:'Mali-Bold'; font-size:11.3033px;">Pale Red</text>
	</g>
	<g>
		<text transform="matrix(1 0 0 1 64.75 432.0249)" style="font-family:'Mali-Bold'; font-size:11.3033px;">Ocean Blue</text>
	</g>
	<g>
		<text transform="matrix(1 0 0 1 151.2285 432.0249)" style="font-family:'Mali-Bold'; font-size:11.3033px;">Lime Green</text>
	</g>
	<text transform="matrix(1 0 0 1 -217.2451 456.1587)" style="font-family:'Mali-Regular'; font-size:8.0738px;">RGB</text>
	<text transform="matrix(1 0 0 1 -217.2451 472.8452)" style="font-family:'Mali-Regular'; font-size:8.0738px;">HEX</text>
	<text transform="matrix(1 0 0 1 -217.2451 487.3784)" style="font-family:'Mali-Regular'; font-size:8.0738px;">CMYK</text>
	<text transform="matrix(1 0 0 1 -122.2627 372.3921)" style="font-family:'Mali-Regular'; font-size:8.0738px;">RGB</text>
	<text transform="matrix(1 0 0 1 -122.2627 389.0777)" style="font-family:'Mali-Regular'; font-size:8.0738px;">HEX</text>
	<text transform="matrix(1 0 0 1 -122.2627 403.6099)" style="font-family:'Mali-Regular'; font-size:8.0738px;">CMYK</text>
	<text transform="matrix(1 0 0 1 -28.6309 460.7027)" style="font-family:'Mali-Regular'; font-size:8.0738px;">RGB</text>
	<text transform="matrix(1 0 0 1 -28.6309 477.3892)" style="font-family:'Mali-Regular'; font-size:8.0738px;">HEX</text>
	<text transform="matrix(1 0 0 1 -30.7832 494.6128)" style="font-family:'Mali-Regular'; font-size:8.0738px;">CMYK</text>
	<text transform="matrix(1 0 0 1 58.8672 378.8511)" style="font-family:'Mali-Regular'; font-size:8.0738px;">RGB</text>
	<text transform="matrix(1 0 0 1 58.8672 395.5367)" style="font-family:'Mali-Regular'; font-size:8.0738px;">HEX</text>
	<text transform="matrix(1 0 0 1 58.8672 410.0699)" style="font-family:'Mali-Regular'; font-size:8.0738px;">CMYK</text>
	<text transform="matrix(1 0 0 1 151.083 462.3804)" style="font-family:'Mali-Regular'; font-size:8.0738px;">RGB</text>
	<text transform="matrix(1 0 0 1 151.083 479.0659)" style="font-family:'Mali-Regular'; font-size:8.0738px;">HEX</text>
	<text transform="matrix(1 0 0 1 151.083 493.5992)" style="font-family:'Mali-Regular'; font-size:8.0738px;">CMYK</text>
	<line class="st12" x1="-136" y1="364.1" x2="-137.1" y2="491.1"/>
	<line class="st13" x1="-40.7" y1="367" x2="-41.8" y2="494"/>
	<line class="st14" x1="49.6" y1="365.2" x2="48.5" y2="492.3"/>
	<line class="st11" x1="140.2" y1="368.2" x2="139.1" y2="495.2"/>
	<g>
		<text transform="matrix(1 0 0 1 -197.8315 456.2915)" style="font-family:'Mali-Regular'; font-size:8.0738px;"> 250, 194, 117</text>
	</g>
	<g>
		<text transform="matrix(1 0 0 1 -98.998 372.1656)" style="font-family:'Mali-Regular'; font-size:8.0738px;">244, 127, 90</text>
	</g>
	<g>
		<text transform="matrix(1 0 0 1 -3.6953 460.4097)" style="font-family:'Mali-Regular'; font-size:8.0738px;">226, 88, 69</text>
	</g>
	<g>
		<text transform="matrix(1 0 0 1 81.6074 378.6372)" style="font-family:'Mali-Regular'; font-size:8.0738px;">140, 209, 197</text>
	</g>
	<g>
		<text transform="matrix(1 0 0 1 170.4395 462.1743)" style="font-family:'Mali-Regular'; font-size:8.0738px;">170, 203, 106</text>
	</g>
	<g>
		<text transform="matrix(1 0 0 1 176.9102 493.354)" style="font-family:'Mali-Regular'; font-size:8.0738px;">37, 3, 75, 0</text>
	</g>
	<g>
		<text transform="matrix(1 0 0 1 84.5488 409.8159)" style="font-family:'Mali-Regular'; font-size:8.0738px;">44, 0, 27, 0</text>
	</g>
	<g>
		<text transform="matrix(1 0 0 1 -3.6953 494.5308)" style="font-family:'Mali-Regular'; font-size:8.0738px;">6, 80, 77, 0</text>
	</g>
	<g>
		<text transform="matrix(1 0 0 1 -94.8809 403.3452)" style="font-family:'Mali-Regular'; font-size:8.0738px;">0, 62, 67, 0</text>
	</g>
	<g>
		<text transform="matrix(1 0 0 1 -189.0068 487.4712)" style="font-family:'Mali-Regular'; font-size:8.0738px;">1, 25, 61, 0</text>
	</g>
	<g>
		<text transform="matrix(1 0 0 1 -206.3618 255.7622)"><tspan x="0" y="0" style="font-family:'Mali-Regular'; font-size:11.1775px;">We decided on this colour palette because of the association these </tspan><tspan x="0" y="17.1" style="font-family:'Mali-Regular'; font-size:11.1775px;">colours all have with food.  We discovered that bright colours often pair best </tspan><tspan x="0" y="34.1" style="font-family:'Mali-Regular'; font-size:11.1775px;">with food products and would offer a more pleasurable experience our users.  </tspan><tspan x="0" y="51.2" style="font-family:'Mali-Regular'; font-size:11.1775px;">In addition, these colours represent the light and fun narrative of our </tspan><tspan x="0" y="68.2" style="font-family:'Mali-Regular'; font-size:11.1775px;">application. </tspan><tspan x="57.1" y="68.2" style="font-family:'Mali-Regular'; font-size:8.8244px;">   </tspan></text>
	</g>
</g>
<path class="st15" d="M-217.5,25"/>
<path class="st16" d="M85.3-67.2l-61.4,0l-0.7-27.6L86-94.6C87.2-88.4,83.3-73.7,85.3-67.2z"/>
<g>
	<path id="korea_6_" class="st8" d="M22.7-101.3c11.4-10.4,39.1,0.3,60.5,0c7.4,14.1-4.1,31.2,6.5,43.6c-24.3,8.7-47.1-7.7-65.9,1.4
		L22.7-101.3z"/>
	<path class="st9" d="M24.2-34.9l-1.6-67.8c0-0.6-0.5-1.1-1.1-1.1c-0.6,0-1.1,0.5-1.1,1.1L22-36.4C22.7-35.9,23.4-35.4,24.2-34.9z"
		/>
	<path class="st15" d="M23.1-87.5c28.8-3.5,52.7,3.2,62.6,2c1-5.2,0.6-11.2-2.3-16.6c-18,9.1-48.5-14-60.8,0.8L23.1-87.5z"/>
	<path class="st17" d="M23.8-56.2c10.9-9.8,48.3,5.6,66-1.6c-3.1-4.4-5.1-9.1-5.1-14.3c-6,5.4-50.9-2.7-60.9,0L23.8-56.2z"/>
	<g>
		<circle class="st18" cx="-59.3" cy="-154.6" r="6.2"/>
		<circle class="st19" cx="-59.3" cy="-154.6" r="5.4"/>
		<circle class="st18" cx="-59.3" cy="-154.6" r="1.1"/>
		<g>
			<g>
				<g id="b_23_">
					<g id="a_47_">
						<circle class="st18" cx="-54" cy="-155.8" r="0.3"/>
						<path class="st18" d="M-57.5-149.5l-0.9-3.1l-0.7-1.4l0.3,1.5L-57.5-149.5z"/>
					</g>
					<g transform="rotate(15)">
						<g id="a_46_">
							<circle class="st18" cx="-53.9" cy="-154.3" r="0.3"/>
							<path class="st18" d="M-58.9-149.2l-0.1-3.3l-0.3-1.5l-0.1,1.6L-58.9-149.2z"/>
						</g>
					</g>
				</g>
				<g id="c_11_">
					<g id="b_22_">
						<g id="a_45_">
							<circle class="st18" cx="-54.1" cy="-152.9" r="0.3"/>
							<path class="st18" d="M-60.3-149.3l0.8-3.2l0.1-1.6l-0.5,1.5L-60.3-149.3z"/>
						</g>
						<g transform="rotate(30)">
							<g id="a_44_">
								<circle class="st18" cx="-54.7" cy="-151.7" r="0.3"/>
								<path class="st18" d="M-61.6-149.7l1.6-2.9l0.5-1.5l-0.8,1.3L-61.6-149.7z"/>
							</g>
						</g>
					</g>
				</g>
				<g>
					<g id="d_5_">
						<g id="b_21_">
							<g id="a_43_">
								<circle class="st18" cx="-55.6" cy="-150.6" r="0.3"/>
								<path class="st18" d="M-62.8-150.5l2.3-2.4l0.9-1.3l-1.1,1.1L-62.8-150.5z"/>
							</g>
							<g transform="rotate(15)">
								<g id="a_42_">
									<circle class="st18" cx="-56.8" cy="-149.8" r="0.3"/>
									<path class="st18" d="M-63.8-151.5l2.8-1.7l1.2-1l-1.4,0.7L-63.8-151.5z"/>
								</g>
							</g>
						</g>
						<g id="c_10_">
							<g id="b_20_">
								<g id="a_41_">
									<circle class="st18" cx="-58.2" cy="-149.3" r="0.3"/>
									<path class="st18" d="M-64.4-152.8l3.1-0.9l1.4-0.7l-1.5,0.3L-64.4-152.8z"/>
								</g>
								<g transform="rotate(60)">
									<g id="a_40_">
										<circle class="st18" cx="-59.6" cy="-149.2" r="0.3"/>
										<path class="st18" d="M-64.7-154.2l3.3-0.1l1.5-0.3l-1.6-0.1L-64.7-154.2z"/>
									</g>
								</g>
							</g>
						</g>
					</g>
					<g>
						<g>
							<g>
								<g id="b_19_">
									<g id="a_39_">
										<circle class="st18" cx="-61" cy="-149.4" r="0.3"/>
										<path class="st18" d="M-64.7-155.6l3.2,0.8l1.6,0.1l-1.5-0.5L-64.7-155.6z"/>
									</g>
									<g transform="rotate(15)">
										<g id="a_38_">
											<circle class="st18" cx="-62.2" cy="-150" r="0.3"/>
											<path class="st18" d="M-64.2-156.9l2.9,1.6l1.5,0.5l-1.3-0.8L-64.2-156.9z"/>
										</g>
									</g>
								</g>
								<g id="c_9_">
									<g id="b_18_">
										<g id="a_37_">
											<circle class="st18" cx="-63.3" cy="-150.9" r="0.3"/>
											<path class="st18" d="M-63.5-158.1l2.4,2.3l1.3,0.9l-1.1-1.1L-63.5-158.1z"/>
										</g>
										<g transform="rotate(30)">
											<g id="a_36_">
												<circle class="st18" cx="-64.1" cy="-152.1" r="0.3"/>
												<path class="st18" d="M-62.4-159.1l1.7,2.8l1,1.2l-0.7-1.4L-62.4-159.1z"/>
											</g>
										</g>
									</g>
								</g>
								<g>
									<g id="d_4_">
										<g id="b_17_">
											<g id="a_35_">
												<circle class="st18" cx="-64.6" cy="-153.5" r="0.3"/>
												<path class="st18" d="M-61.1-159.7l0.9,3.1l0.7,1.4l-0.3-1.5L-61.1-159.7z"/>
											</g>
											<g transform="rotate(15)">
												<g id="a_34_">
													<circle class="st18" cx="-64.7" cy="-154.9" r="0.3"/>
													<path class="st18" d="M-59.7-160l0.1,3.3l0.3,1.5l0.1-1.6L-59.7-160z"/>
												</g>
											</g>
										</g>
										<g id="c_8_">
											<g id="b_16_">
												<g id="a_33_">
													<circle class="st18" cx="-64.5" cy="-156.3" r="0.3"/>
													<path class="st18" d="M-58.3-160l-0.8,3.2l-0.1,1.6l0.5-1.5L-58.3-160z"/>
												</g>
												<g transform="rotate(120)">
													<g id="a_32_">
														<circle class="st18" cx="-63.9" cy="-157.5" r="0.3"/>
														<path class="st18" d="M-57-159.5l-1.6,2.9l-0.5,1.5l0.8-1.3L-57-159.5z"/>
													</g>
												</g>
											</g>
										</g>
									</g>
									<g>
										<g>
											<g>
												<g id="b_15_">
													<g id="a_31_">
														<circle class="st18" cx="-63" cy="-158.6" r="0.3"/>
														<path class="st18" d="M-55.8-158.8l-2.3,2.4l-0.9,1.3l1.1-1.1L-55.8-158.8z"/>
													</g>
													<g transform="rotate(15)">
														<g id="a_30_">
															<circle class="st18" cx="-61.8" cy="-159.4" r="0.3"/>
															<path class="st18" d="M-54.8-157.7l-2.8,1.7l-1.2,1l1.4-0.7L-54.8-157.7z"/>
														</g>
													</g>
												</g>
												<g id="c_7_">
													<g id="b_14_">
														<g id="a_29_">
															<circle class="st18" cx="-60.5" cy="-159.9" r="0.3"/>
															<path class="st18" d="M-54.2-156.4l-3.1,0.9l-1.4,0.7l1.5-0.3L-54.2-156.4z"/>
														</g>
														<g transform="rotate(30)">
															<g id="a_28_">
																<circle class="st18" cx="-59" cy="-160" r="0.3"/>
																<path class="st18" d="M-53.9-155.1l-3.3,0.1l-1.5,0.3l1.6,0.1L-53.9-155.1z"/>
															</g>
														</g>
													</g>
												</g>
												<g transform="translate(112.5,75)">
													<g id="d_3_">
														<g id="b_13_">
															<g id="a_27_">
																<circle class="st18" cx="-57.6" cy="-159.8" r="0.3"/>
																<path class="st18" d="M-53.9-153.6l-3.2-0.8l-1.6-0.1l1.5,0.5L-53.9-153.6z"/>
															</g>
															<g transform="rotate(15)">
																<g id="a_26_">
																	<circle class="st18" cx="-56.4" cy="-159.2" r="0.3"/>
																	<path class="st18" d="M-54.4-152.3l-2.9-1.6l-1.5-0.5l1.3,0.8L-54.4-152.3z"/>
																</g>
															</g>
														</g>
														<g id="c_6_">
															<g id="b_12_">
																<g id="a_25_">
																	<circle class="st18" cx="-55.3" cy="-158.3" r="0.3"/>
																	<path class="st18" d="M-55.2-151.1l-2.4-2.3l-1.3-0.9l1.1,1.1L-55.2-151.1z"/>
																</g>
																<g transform="rotate(-120)">
																	<g id="a_24_">
																		<circle class="st18" cx="-54.5" cy="-157.1" r="0.3"/>
																		<path class="st18" d="M-56.2-150.1l-1.7-2.8l-1-1.2l0.7,1.4L-56.2-150.1z"/>
																	</g>
																</g>
															</g>
														</g>
													</g>
												</g>
											</g>
										</g>
									</g>
								</g>
							</g>
						</g>
					</g>
				</g>
			</g>
		</g>
	</g>
</g>
<path id="korea" class="st20" d="M-304.8-130c9.2-3.8,23.7,8.7,36.7,13.1c1.4,10.2-9.3,18-5.5,27.9c-16.6,0-26.9-14.9-40.3-13.5
	L-304.8-130z"/>
<path id="korea_2_" class="st20" d="M-329.4-130c-9.2-3.8-23.7,8.7-36.7,13.1c-1.4,10.2,9.3,18,5.5,27.9c16.6,0,26.9-14.9,40.3-13.5
	L-329.4-130z"/>
<rect x="-302.6" y="-124.2" transform="matrix(0.8431 -0.5377 0.5377 0.8431 19.5378 -180.0634)" width="7.5" height="1.4"/>
<rect x="-301.4" y="-122.7" transform="matrix(0.8431 -0.5377 0.5377 0.8431 18.9033 -179.2006)" width="7.5" height="1.4"/>
<rect x="-300.4" y="-121.1" transform="matrix(0.8431 -0.5377 0.5377 0.8431 18.2067 -178.3718)" width="7.5" height="1.4"/>
<rect x="-286.9" y="-100.5" transform="matrix(0.8431 -0.5377 0.5377 0.8431 9.2253 -167.8799)" width="7.5" height="1.4"/>
<rect x="-285.7" y="-98.9" transform="matrix(0.8431 -0.5377 0.5377 0.8431 8.5907 -167.0171)" width="7.5" height="1.4"/>
<rect x="-284.8" y="-97.3" transform="matrix(0.8431 -0.5377 0.5377 0.8431 7.8661 -166.2844)" width="7.5" height="1.4"/>
<rect x="-282.3" y="-112.9" transform="matrix(-0.1403 -0.9901 0.9901 -0.1403 -206.6115 -403.6906)" width="7.5" height="1.4"/>
<rect x="-280.5" y="-113.2" transform="matrix(-0.1403 -0.9901 0.9901 -0.1403 -204.2831 -402.2838)" width="7.5" height="1.4"/>
<rect x="-278.7" y="-113.5" transform="matrix(-0.1403 -0.9901 0.9901 -0.1403 -201.8693 -400.8397)" width="7.5" height="1.4"/>
<rect x="-308.9" y="-108.6" transform="matrix(-0.1403 -0.9901 0.9901 -0.1403 -241.2182 -425.1632)" width="7.5" height="1.4"/>
<rect x="-307" y="-108.9" transform="matrix(-0.1403 -0.9901 0.9901 -0.1403 -238.6861 -423.5795)" width="7.5" height="1.4"/>
<rect x="-305.2" y="-109.2" transform="matrix(-0.1403 -0.9901 0.9901 -0.1403 -236.2722 -422.1354)" width="7.5" height="1.4"/>
<path class="st21" d="M-285.7-104.2c-1.2,0.8-2.6,1.3-4.1,1.3c-4.1,0-7.4-3.3-7.4-7.4c0-2,0.8-3.8,2.1-5.1"/>
<ellipse class="st21" cx="-289.8" cy="-110.4" rx="7.5" ry="7.4"/>
<path class="st22" d="M-289.8-117.8c-2.1,0-4,0.9-5.3,2.3l-0.1,0c-0.4,0.6-0.4,1.3-0.4,2.1c0,2,1.7,3.7,3.8,3.7
	c0.5,0,0.9-0.1,1.4-0.2c3.1-2.8,8.9,0.8,4.9,5.8c2-1.3,3.3-3.6,3.3-6.1C-282.4-114.5-285.7-117.8-289.8-117.8z"/>
<path class="st9" d="M-321.6-81.6L-321.6-81.6c0.4,0.1,0.8-0.1,0.9-0.5l16.1-48.9c0.1-0.4-0.1-0.8-0.5-0.9l0,0
	c-0.4-0.1-0.8,0.1-0.9,0.5l-16.1,48.9C-322.2-82.1-322-81.7-321.6-81.6z"/>
<circle class="st22" cx="-344.9" cy="-110.4" r="8.8"/>
<rect x="-280.1" y="-112.2" transform="matrix(0.9901 -0.1403 0.1403 0.9901 12.9613 -40.2134)" class="st23" width="2.5" height="0.4"/>
<rect x="-276" y="-113" transform="matrix(0.9901 -0.1403 0.1403 0.9901 13.1022 -39.644)" class="st23" width="2.5" height="0.4"/>
<rect x="-282.6" y="-102.3" transform="matrix(0.8431 -0.5377 0.5377 0.8431 8.5562 -167.1238)" class="st23" width="0.8" height="8.2"/>
<rect x="-304.2" y="-108.5" transform="matrix(0.9837 -0.1796 0.1796 0.9837 14.4868 -56.2194)" class="st23" width="1.8" height="0.7"/>
<path class="st9" d="M-311.8-81.3L-311.8-81.3c0.4-0.1,0.6-0.5,0.4-0.9l-16.5-48.7c-0.1-0.4-0.5-0.6-0.9-0.4h0
	c-0.4,0.1-0.6,0.5-0.4,0.9l16.5,48.7C-312.6-81.4-312.2-81.2-311.8-81.3z"/>
</svg>
