<?xml version="1.0" encoding="utf-8"?>
<!-- Generator: Adobe Illustrator 22.1.0, SVG Export Plug-In . SVG Version: 6.00 Build 0)  -->
<svg version="1.1" id="Layer_1" xmlns="http://www.w3.org/2000/svg" xmlns:xlink="http://www.w3.org/1999/xlink" x="0px" y="0px"
	 viewBox="0 0 331 283" style="enable-background:new 0 0 331 283;" xml:space="preserve">
<style type="text/css">
	.st0{fill:#DBC6BD;stroke:#000000;stroke-width:0.8135;stroke-miterlimit:10;}
	.st1{fill:none;stroke:#BFA39B;stroke-width:0.8135;stroke-miterlimit:10;}
</style>
<polyline class="st0" points="138.4,187.2 138.4,123.5 299.8,123.5 299.8,187.2 "/>
<line class="st1" x1="150.4" y1="123.9" x2="139.2" y2="156.7"/>
<line class="st1" x1="163.7" y1="123.8" x2="142.5" y2="186.1"/>
<line class="st1" x1="176.8" y1="123.8" x2="155.3" y2="186.7"/>
<line class="st1" x1="189.9" y1="123.8" x2="168.5" y2="186.4"/>
<line class="st1" x1="202.9" y1="123.9" x2="181.7" y2="186.3"/>
<line class="st1" x1="216" y1="123.9" x2="194.7" y2="186.5"/>
<line class="st1" x1="229.1" y1="123.9" x2="207.7" y2="186.5"/>
<line class="st1" x1="242.1" y1="124" x2="221.2" y2="186.6"/>
<line class="st1" x1="255.2" y1="124" x2="233.8" y2="186.8"/>
<line class="st1" x1="268.3" y1="124" x2="246.9" y2="186.7"/>
<line class="st1" x1="281.3" y1="124.1" x2="260" y2="186.5"/>
<line class="st1" x1="294.4" y1="124.1" x2="273.1" y2="186.7"/>
<line class="st1" x1="299" y1="148.8" x2="286.1" y2="186.7"/>
</svg>
