<?xml version="1.0" encoding="utf-8"?>
<!-- Generator: Adobe Illustrator 22.1.0, SVG Export Plug-In . SVG Version: 6.00 Build 0)  -->
<svg version="1.1" id="Layer_1" xmlns="http://www.w3.org/2000/svg" xmlns:xlink="http://www.w3.org/1999/xlink" x="0px" y="0px"
	 viewBox="0 0 331 283" style="enable-background:new 0 0 331 283;" xml:space="preserve">
<style type="text/css">
	.st0{fill:#8E1E23;stroke:#000000;stroke-width:0.8257;stroke-miterlimit:10;}
	.st1{fill:#E2211A;}
	.st2{fill:#EFD925;}
</style>
<g>
	<rect x="85.4" y="108.2" class="st0" width="160.4" height="66"/>
	<path class="st1" d="M90.7,124c-0.2,0-0.4-0.1-0.5-0.2c-1.2-0.9-1.5-2-0.7-3.2c0.7-1.1,0-2-0.7-2.9c0.9,0,1.8,0.1,2.1,1.2
		c0-2.3,0.5-4.3,2.3-5.6c-0.4,1.1-0.5,2.2-0.1,3.1c1.9,3.5,2.2,3.8,1.7,6.1c-0.1,0.6-0.5,1.1-1,1.4C92.6,124.6,92.5,124.4,90.7,124z
		"/>
	<path class="st2" d="M92.6,123.3c-0.1,0-0.5-0.1-0.9-0.2c-0.2,0-0.4-0.1-0.6-0.2c0,0,0,0,0,0c-0.8-0.6-0.6-0.6-0.4-1.2l0.1-0.3l0,0
		c0.1-0.9-0.3-1.4-0.4-2l1,1.1c0-0.4,0.8-2.9,0.8-3.3c1.5,2.8,1.7,3.5,1.4,5.3c0,0.2-0.2,0.4-0.4,0.5
		C92.8,123.3,92.7,123.3,92.6,123.3z"/>
	<path class="st1" d="M105,123.9c-0.2,0-0.4-0.1-0.5-0.2c-1.2-0.9-1.5-2-0.7-3.2c0.7-1.1,0-2-0.7-2.9c0.9,0,1.8,0.1,2.1,1.2
		c0-2.3,0.5-4.3,2.3-5.6c-0.4,1.1-0.5,2.2-0.1,3.1c1.9,3.5,2.2,3.8,1.7,6.1c-0.1,0.6-0.5,1.1-1,1.4
		C106.9,124.5,106.8,124.4,105,123.9z"/>
	<path class="st2" d="M106.9,123.2c-0.1,0-0.5-0.1-0.9-0.2c-0.2,0-0.4-0.1-0.6-0.2c0,0,0,0,0,0c-0.8-0.6-0.6-0.6-0.4-1.2l0.1-0.3
		l0,0c0.1-0.9-0.3-1.4-0.4-2l1,1.1c0-0.4,0.8-2.9,0.8-3.3c1.5,2.8,1.7,3.5,1.4,5.3c0,0.2-0.2,0.4-0.4,0.5
		C107.1,123.2,107,123.2,106.9,123.2z"/>
	<path class="st1" d="M119.3,123.9c-0.2,0-0.4-0.1-0.5-0.2c-1.2-0.9-1.5-2-0.7-3.2c0.7-1.1,0-2-0.7-2.9c0.9,0,1.8,0.1,2.1,1.2
		c0-2.3,0.5-4.3,2.3-5.6c-0.4,1.1-0.5,2.2-0.1,3.1c1.9,3.5,2.2,3.8,1.7,6.1c-0.1,0.6-0.5,1.1-1,1.4
		C121.2,124.5,121.1,124.3,119.3,123.9z"/>
	<path class="st2" d="M121.2,123.2c-0.1,0-0.5-0.1-0.9-0.2c-0.2,0-0.4-0.1-0.6-0.2c0,0,0,0,0,0c-0.8-0.6-0.6-0.6-0.4-1.2l0.1-0.3
		l0,0c0.1-0.9-0.3-1.4-0.4-2l1,1.1c0-0.4,0.8-2.9,0.8-3.3c1.5,2.8,1.7,3.5,1.4,5.3c0,0.2-0.2,0.4-0.4,0.5
		C121.4,123.1,121.2,123.2,121.2,123.2z"/>
	<path class="st1" d="M133.5,123.8c-0.2,0-0.4-0.1-0.5-0.2c-1.2-0.9-1.5-2-0.7-3.2c0.7-1.1,0-2-0.7-2.9c0.9,0,1.8,0.1,2.1,1.2
		c0-2.3,0.5-4.3,2.3-5.6c-0.4,1.1-0.5,2.2-0.1,3.1c1.9,3.5,2.2,3.8,1.7,6.1c-0.1,0.6-0.5,1.1-1,1.4
		C135.4,124.4,135.4,124.3,133.5,123.8z"/>
	<path class="st2" d="M135.5,123.1c-0.1,0-0.5-0.1-0.9-0.2c-0.2,0-0.4-0.1-0.6-0.2c0,0,0,0,0,0c-0.8-0.6-0.6-0.6-0.4-1.2l0.1-0.3
		l0,0c0.1-0.9-0.3-1.4-0.4-2l1,1.1c0-0.4,0.8-2.9,0.8-3.3c1.5,2.8,1.7,3.5,1.4,5.3c0,0.2-0.2,0.4-0.4,0.5
		C135.6,123.1,135.5,123.1,135.5,123.1z"/>
	<path class="st1" d="M147.8,123.8c-0.2,0-0.4-0.1-0.5-0.2c-1.2-0.9-1.5-2-0.7-3.2c0.7-1.1,0-2-0.7-2.9c0.9,0,1.8,0.1,2.1,1.2
		c0-2.3,0.5-4.3,2.3-5.6c-0.4,1.1-0.5,2.2-0.1,3.1c1.9,3.5,2.2,3.8,1.7,6.1c-0.1,0.6-0.5,1.1-1,1.4
		C149.7,124.4,149.7,124.2,147.8,123.8z"/>
	<path class="st2" d="M149.8,123.1c-0.1,0-0.5-0.1-0.9-0.2c-0.2,0-0.4-0.1-0.6-0.2c0,0,0,0,0,0c-0.8-0.6-0.6-0.6-0.4-1.2l0.1-0.3
		l0,0c0.1-0.9-0.3-1.4-0.4-2l1,1.1c0-0.4,0.8-2.9,0.8-3.3c1.5,2.8,1.7,3.5,1.4,5.3c0,0.2-0.2,0.4-0.4,0.5
		C149.9,123,149.8,123.1,149.8,123.1z"/>
	<path class="st1" d="M162.1,123.7c-0.2,0-0.4-0.1-0.5-0.2c-1.2-0.9-1.5-2-0.7-3.2c0.7-1.1,0-2-0.7-2.9c0.9,0,1.8,0.1,2.1,1.2
		c0-2.3,0.5-4.3,2.3-5.6c-0.4,1.1-0.5,2.2-0.1,3.1c1.9,3.5,2.2,3.8,1.7,6.1c-0.1,0.6-0.5,1.1-1,1.4C164,124.3,164,124.1,162.1,123.7
		z"/>
	<path class="st2" d="M164.1,123c-0.1,0-0.5-0.1-0.9-0.2c-0.2,0-0.4-0.1-0.6-0.2c0,0,0,0,0,0c-0.8-0.6-0.6-0.6-0.4-1.2l0.1-0.3l0,0
		c0.1-0.9-0.3-1.4-0.4-2l1,1.1c0-0.4,0.8-2.9,0.8-3.3c1.5,2.8,1.7,3.5,1.4,5.3c0,0.2-0.2,0.4-0.4,0.5C164.2,123,164.1,123,164.1,123
		z"/>
	<path class="st1" d="M176.4,123.6c-0.2,0-0.4-0.1-0.5-0.2c-1.2-0.9-1.5-2-0.7-3.2c0.7-1.1,0-2-0.7-2.9c0.9,0,1.8,0.1,2.1,1.2
		c0-2.3,0.5-4.3,2.3-5.6c-0.4,1.1-0.5,2.2-0.1,3.1c1.9,3.5,2.2,3.8,1.7,6.1c-0.1,0.6-0.5,1.1-1,1.4
		C178.3,124.2,178.2,124.1,176.4,123.6z"/>
	<path class="st2" d="M178.4,122.9c-0.1,0-0.5-0.1-0.9-0.2c-0.2,0-0.4-0.1-0.6-0.2c0,0,0,0,0,0c-0.8-0.6-0.6-0.6-0.4-1.2l0.1-0.3
		l0,0c0.1-0.9-0.3-1.4-0.4-2l1,1.1c0-0.4,0.8-2.9,0.8-3.3c1.5,2.8,1.7,3.5,1.4,5.3c0,0.2-0.2,0.4-0.4,0.5
		C178.5,122.9,178.4,122.9,178.4,122.9z"/>
	<path class="st1" d="M190.7,123.6c-0.2,0-0.4-0.1-0.5-0.2c-1.2-0.9-1.5-2-0.7-3.2c0.7-1.1,0-2-0.7-2.9c0.9,0,1.8,0.1,2.1,1.2
		c0-2.3,0.5-4.3,2.3-5.6c-0.4,1.1-0.5,2.2-0.1,3.1c1.9,3.5,2.2,3.8,1.7,6.1c-0.1,0.6-0.5,1.1-1,1.4
		C192.6,124.2,192.5,124,190.7,123.6z"/>
	<path class="st2" d="M192.7,122.9c-0.1,0-0.5-0.1-0.9-0.2c-0.2,0-0.4-0.1-0.6-0.2c0,0,0,0,0,0c-0.8-0.6-0.6-0.6-0.4-1.2l0.1-0.3
		l0,0c0.1-0.9-0.3-1.4-0.4-2l1,1.1c0-0.4,0.8-2.9,0.8-3.3c1.5,2.8,1.7,3.5,1.4,5.3c0,0.2-0.2,0.4-0.4,0.5
		C192.8,122.9,192.7,122.9,192.7,122.9z"/>
	<path class="st1" d="M205,123.5c-0.2,0-0.4-0.1-0.5-0.2c-1.2-0.9-1.5-2-0.7-3.2c0.7-1.1,0-2-0.7-2.9c0.9,0,1.8,0.1,2.1,1.2
		c0-2.3,0.5-4.3,2.3-5.6c-0.4,1.1-0.5,2.2-0.1,3.1c1.9,3.5,2.2,3.8,1.7,6.1c-0.1,0.6-0.5,1.1-1,1.4C206.9,124.1,206.8,124,205,123.5
		z"/>
	<path class="st2" d="M206.9,122.8c-0.1,0-0.5-0.1-0.9-0.2c-0.2,0-0.4-0.1-0.6-0.2c0,0,0,0,0,0c-0.8-0.6-0.6-0.6-0.4-1.2l0.1-0.3
		l0,0c0.1-0.9-0.3-1.4-0.4-2l1,1.1c0-0.4,0.8-2.9,0.8-3.3c1.5,2.8,1.7,3.5,1.4,5.3c0,0.2-0.2,0.4-0.4,0.5
		C207.1,122.8,207,122.8,206.9,122.8z"/>
	<path class="st1" d="M219.3,123.5c-0.2,0-0.4-0.1-0.5-0.2c-1.2-0.9-1.5-2-0.7-3.2c0.7-1.1,0-2-0.7-2.9c0.9,0,1.8,0.1,2.1,1.2
		c0-2.3,0.5-4.3,2.3-5.6c-0.4,1.1-0.5,2.2-0.1,3.1c1.9,3.5,2.2,3.8,1.7,6.1c-0.1,0.6-0.5,1.1-1,1.4
		C221.2,124.1,221.1,123.9,219.3,123.5z"/>
	<path class="st2" d="M221.2,122.8c-0.1,0-0.5-0.1-0.9-0.2c-0.2,0-0.4-0.1-0.6-0.2c0,0,0,0,0,0c-0.8-0.6-0.6-0.6-0.4-1.2l0.1-0.3
		l0,0c0.1-0.9-0.3-1.4-0.4-2l1,1.1c0-0.4,0.8-2.9,0.8-3.3c1.5,2.8,1.7,3.5,1.4,5.3c0,0.2-0.2,0.4-0.4,0.5
		C221.4,122.7,221.3,122.8,221.2,122.8z"/>
	<path class="st1" d="M233.6,123.4c-0.2,0-0.4-0.1-0.5-0.2c-1.2-0.9-1.5-2-0.7-3.2c0.7-1.1,0-2-0.7-2.9c0.9,0,1.8,0.1,2.1,1.2
		c0-2.3,0.5-4.3,2.3-5.6c-0.4,1.1-0.5,2.2-0.1,3.1c1.9,3.5,2.2,3.8,1.7,6.1c-0.1,0.6-0.5,1.1-1,1.4
		C235.5,124,235.4,123.9,233.6,123.4z"/>
	<path class="st2" d="M235.5,122.7c-0.1,0-0.5-0.1-0.9-0.2c-0.2,0-0.4-0.1-0.6-0.2c0,0,0,0,0,0c-0.8-0.6-0.6-0.6-0.4-1.2l0.1-0.3
		l0,0c0.1-0.9-0.3-1.4-0.4-2l1,1.1c0-0.4,0.8-2.9,0.8-3.3c1.5,2.8,1.7,3.5,1.4,5.3c0,0.2-0.2,0.4-0.4,0.5
		C235.7,122.7,235.5,122.7,235.5,122.7z"/>
	<path class="st1" d="M97.4,145.2c-0.2,0-0.4-0.1-0.5-0.2c-1.2-0.9-1.5-2-0.7-3.2c0.7-1.1,0-2-0.7-2.9c0.9,0,1.8,0.1,2.1,1.2
		c0-2.3,0.5-4.3,2.3-5.6c-0.4,1.1-0.5,2.2-0.1,3.1c1.9,3.5,2.2,3.8,1.7,6.1c-0.1,0.6-0.5,1.1-1,1.4
		C99.3,145.8,99.2,145.6,97.4,145.2z"/>
	<path class="st2" d="M99.4,144.5c-0.1,0-0.5-0.1-0.9-0.2c-0.2,0-0.4-0.1-0.6-0.2c0,0,0,0,0,0c-0.8-0.6-0.6-0.6-0.4-1.2l0.1-0.3l0,0
		c0.1-0.9-0.3-1.4-0.4-2l1,1.1c0-0.4,0.8-2.9,0.8-3.3c1.5,2.8,1.7,3.5,1.4,5.3c0,0.2-0.2,0.4-0.4,0.5
		C99.5,144.4,99.4,144.5,99.4,144.5z"/>
	<path class="st1" d="M111.7,145.1c-0.2,0-0.4-0.1-0.5-0.2c-1.2-0.9-1.5-2-0.7-3.2c0.7-1.1,0-2-0.7-2.9c0.9,0,1.8,0.1,2.1,1.2
		c0-2.3,0.5-4.3,2.3-5.6c-0.4,1.1-0.5,2.2-0.1,3.1c1.9,3.5,2.2,3.8,1.7,6.1c-0.1,0.6-0.5,1.1-1,1.4
		C113.6,145.7,113.5,145.5,111.7,145.1z"/>
	<path class="st2" d="M113.6,144.4c-0.1,0-0.5-0.1-0.9-0.2c-0.2,0-0.4-0.1-0.6-0.2c0,0,0,0,0,0c-0.8-0.6-0.6-0.6-0.4-1.2l0.1-0.3
		l0,0c0.1-0.9-0.3-1.4-0.4-2l1,1.1c0-0.4,0.8-2.9,0.8-3.3c1.5,2.8,1.7,3.5,1.4,5.3c0,0.2-0.2,0.4-0.4,0.5
		C113.8,144.4,113.7,144.4,113.6,144.4z"/>
	<path class="st1" d="M126,145c-0.2,0-0.4-0.1-0.5-0.2c-1.2-0.9-1.5-2-0.7-3.2c0.7-1.1,0-2-0.7-2.9c0.9,0,1.8,0.1,2.1,1.2
		c0-2.3,0.5-4.3,2.3-5.6c-0.4,1.1-0.5,2.2-0.1,3.1c1.9,3.5,2.2,3.8,1.7,6.1c-0.1,0.6-0.5,1.1-1,1.4C127.9,145.6,127.8,145.5,126,145
		z"/>
	<path class="st2" d="M127.9,144.3c-0.1,0-0.5-0.1-0.9-0.2c-0.2,0-0.4-0.1-0.6-0.2c0,0,0,0,0,0c-0.8-0.6-0.6-0.6-0.4-1.2l0.1-0.3
		l0,0c0.1-0.9-0.3-1.4-0.4-2l1,1.1c0-0.4,0.8-2.9,0.8-3.3c1.5,2.8,1.7,3.5,1.4,5.3c0,0.2-0.2,0.4-0.4,0.5
		C128.1,144.3,128,144.3,127.9,144.3z"/>
	<path class="st1" d="M140.3,145c-0.2,0-0.4-0.1-0.5-0.2c-1.2-0.9-1.5-2-0.7-3.2c0.7-1.1,0-2-0.7-2.9c0.9,0,1.8,0.1,2.1,1.2
		c0-2.3,0.5-4.3,2.3-5.6c-0.4,1.1-0.5,2.2-0.1,3.1c1.9,3.5,2.2,3.8,1.7,6.1c-0.1,0.6-0.5,1.1-1,1.4
		C142.2,145.6,142.1,145.4,140.3,145z"/>
	<path class="st2" d="M142.2,144.3c-0.1,0-0.5-0.1-0.9-0.2c-0.2,0-0.4-0.1-0.6-0.2c0,0,0,0,0,0c-0.8-0.6-0.6-0.6-0.4-1.2l0.1-0.3
		l0,0c0.1-0.9-0.3-1.4-0.4-2l1,1.1c0-0.4,0.8-2.9,0.8-3.3c1.5,2.8,1.7,3.5,1.4,5.3c0,0.2-0.2,0.4-0.4,0.5
		C142.4,144.3,142.2,144.3,142.2,144.3z"/>
	<path class="st1" d="M154.6,144.9c-0.2,0-0.4-0.1-0.5-0.2c-1.2-0.9-1.5-2-0.7-3.2c0.7-1.1,0-2-0.7-2.9c0.9,0,1.8,0.1,2.1,1.2
		c0-2.3,0.5-4.3,2.3-5.6c-0.4,1.1-0.5,2.2-0.1,3.1c1.9,3.5,2.2,3.8,1.7,6.1c-0.1,0.6-0.5,1.1-1,1.4
		C156.5,145.5,156.4,145.4,154.6,144.9z"/>
	<path class="st2" d="M156.5,144.2c-0.1,0-0.5-0.1-0.9-0.2c-0.2,0-0.4-0.1-0.6-0.2c0,0,0,0,0,0c-0.8-0.6-0.6-0.6-0.4-1.2l0.1-0.3
		l0,0c0.1-0.9-0.3-1.4-0.4-2l1,1.1c0-0.4,0.8-2.9,0.8-3.3c1.5,2.8,1.7,3.5,1.4,5.3c0,0.2-0.2,0.4-0.4,0.5
		C156.6,144.2,156.5,144.2,156.5,144.2z"/>
	<path class="st1" d="M168.8,144.9c-0.2,0-0.4-0.1-0.5-0.2c-1.2-0.9-1.5-2-0.7-3.2c0.7-1.1,0-2-0.7-2.9c0.9,0,1.8,0.1,2.1,1.2
		c0-2.3,0.5-4.3,2.3-5.6c-0.4,1.1-0.5,2.2-0.1,3.1c1.9,3.5,2.2,3.8,1.7,6.1c-0.1,0.6-0.5,1.1-1,1.4
		C170.7,145.5,170.7,145.3,168.8,144.9z"/>
	<path class="st2" d="M170.8,144.2c-0.1,0-0.5-0.1-0.9-0.2c-0.2,0-0.4-0.1-0.6-0.2c0,0,0,0,0,0c-0.8-0.6-0.6-0.6-0.4-1.2l0.1-0.3
		l0,0c0.1-0.9-0.3-1.4-0.4-2l1,1.1c0-0.4,0.8-2.9,0.8-3.3c1.5,2.8,1.7,3.5,1.4,5.3c0,0.2-0.2,0.4-0.4,0.5
		C170.9,144.1,170.8,144.2,170.8,144.2z"/>
	<path class="st1" d="M183.1,144.8c-0.2,0-0.4-0.1-0.5-0.2c-1.2-0.9-1.5-2-0.7-3.2c0.7-1.1,0-2-0.7-2.9c0.9,0,1.8,0.1,2.1,1.2
		c0-2.3,0.5-4.3,2.3-5.6c-0.4,1.1-0.5,2.2-0.1,3.1c1.9,3.5,2.2,3.8,1.7,6.1c-0.1,0.6-0.5,1.1-1,1.4C185,145.4,185,145.3,183.1,144.8
		z"/>
	<path class="st2" d="M185.1,144.1c-0.1,0-0.5-0.1-0.9-0.2c-0.2,0-0.4-0.1-0.6-0.2c0,0,0,0,0,0c-0.8-0.6-0.6-0.6-0.4-1.2l0.1-0.3
		l0,0c0.1-0.9-0.3-1.4-0.4-2l1,1.1c0-0.4,0.8-2.9,0.8-3.3c1.5,2.8,1.7,3.5,1.4,5.3c0,0.2-0.2,0.4-0.4,0.5
		C185.2,144.1,185.1,144.1,185.1,144.1z"/>
	<path class="st1" d="M197.4,144.8c-0.2,0-0.4-0.1-0.5-0.2c-1.2-0.9-1.5-2-0.7-3.2c0.7-1.1,0-2-0.7-2.9c0.9,0,1.8,0.1,2.1,1.2
		c0-2.3,0.5-4.3,2.3-5.6c-0.4,1.1-0.5,2.2-0.1,3.1c1.9,3.5,2.2,3.8,1.7,6.1c-0.1,0.6-0.5,1.1-1,1.4
		C199.3,145.4,199.2,145.2,197.4,144.8z"/>
	<path class="st2" d="M199.4,144.1c-0.1,0-0.5-0.1-0.9-0.2c-0.2,0-0.4-0.1-0.6-0.2c0,0,0,0,0,0c-0.8-0.6-0.6-0.6-0.4-1.2l0.1-0.3
		l0,0c0.1-0.9-0.3-1.4-0.4-2l1,1.1c0-0.4,0.8-2.9,0.8-3.3c1.5,2.8,1.7,3.5,1.4,5.3c0,0.2-0.2,0.4-0.4,0.5
		C199.5,144,199.4,144.1,199.4,144.1z"/>
	<path class="st1" d="M211.7,144.7c-0.2,0-0.4-0.1-0.5-0.2c-1.2-0.9-1.5-2-0.7-3.2c0.7-1.1,0-2-0.7-2.9c0.9,0,1.8,0.1,2.1,1.2
		c0-2.3,0.5-4.3,2.3-5.6c-0.4,1.1-0.5,2.2-0.1,3.1c1.9,3.5,2.2,3.8,1.7,6.1c-0.1,0.6-0.5,1.1-1,1.4
		C213.6,145.3,213.5,145.1,211.7,144.7z"/>
	<path class="st2" d="M213.7,144c-0.1,0-0.5-0.1-0.9-0.2c-0.2,0-0.4-0.1-0.6-0.2c0,0,0,0,0,0c-0.8-0.6-0.6-0.6-0.4-1.2l0.1-0.3l0,0
		c0.1-0.9-0.3-1.4-0.4-2l1,1.1c0-0.4,0.8-2.9,0.8-3.3c1.5,2.8,1.7,3.5,1.4,5.3c0,0.2-0.2,0.4-0.4,0.5C213.8,144,213.7,144,213.7,144
		z"/>
	<path class="st1" d="M226,144.6c-0.2,0-0.4-0.1-0.5-0.2c-1.2-0.9-1.5-2-0.7-3.2c0.7-1.1,0-2-0.7-2.9c0.9,0,1.8,0.1,2.1,1.2
		c0-2.3,0.5-4.3,2.3-5.6c-0.4,1.1-0.5,2.2-0.1,3.1c1.9,3.5,2.2,3.8,1.7,6.1c-0.1,0.6-0.5,1.1-1,1.4
		C227.9,145.2,227.8,145.1,226,144.6z"/>
	<path class="st2" d="M227.9,143.9c-0.1,0-0.5-0.1-0.9-0.2c-0.2,0-0.4-0.1-0.6-0.2c0,0,0,0,0,0c-0.8-0.6-0.6-0.6-0.4-1.2l0.1-0.3
		l0,0c0.1-0.9-0.3-1.4-0.4-2l1,1.1c0-0.4,0.8-2.9,0.8-3.3c1.5,2.8,1.7,3.5,1.4,5.3c0,0.2-0.2,0.4-0.4,0.5
		C228.1,143.9,228,143.9,227.9,143.9z"/>
	<path class="st1" d="M240.3,144.6c-0.2,0-0.4-0.1-0.5-0.2c-1.2-0.9-1.5-2-0.7-3.2c0.7-1.1,0-2-0.7-2.9c0.9,0,1.8,0.1,2.1,1.2
		c0-2.3,0.5-4.3,2.3-5.6c-0.4,1.1-0.5,2.2-0.1,3.1c1.9,3.5,2.2,3.8,1.7,6.1c-0.1,0.6-0.5,1.1-1,1.4
		C242.2,145.2,242.1,145,240.3,144.6z"/>
	<path class="st2" d="M242.2,143.9c-0.1,0-0.5-0.1-0.9-0.2c-0.2,0-0.4-0.1-0.6-0.2c0,0,0,0,0,0c-0.8-0.6-0.6-0.6-0.4-1.2l0.1-0.3
		l0,0c0.1-0.9-0.3-1.4-0.4-2l1,1.1c0-0.4,0.8-2.9,0.8-3.3c1.5,2.8,1.7,3.5,1.4,5.3c0,0.2-0.2,0.4-0.4,0.5
		C242.4,143.9,242.3,143.9,242.2,143.9z"/>
	<path class="st1" d="M91.7,165.3c-0.2,0-0.4-0.1-0.5-0.2c-1.2-0.9-1.5-2-0.7-3.2c0.7-1.1,0-2-0.7-2.9c0.9,0,1.8,0.1,2.1,1.2
		c0-2.3,0.5-4.3,2.3-5.6c-0.4,1.1-0.5,2.2-0.1,3.1c1.9,3.5,2.2,3.8,1.7,6.1c-0.1,0.6-0.5,1.1-1,1.4
		C93.6,165.9,93.5,165.8,91.7,165.3z"/>
	<path class="st2" d="M93.7,164.6c-0.1,0-0.5-0.1-0.9-0.2c-0.2,0-0.4-0.1-0.6-0.2c0,0,0,0,0,0c-0.8-0.6-0.6-0.6-0.4-1.2l0.1-0.3l0,0
		c0.1-0.9-0.3-1.4-0.4-2l1,1.1c0-0.4,0.8-2.9,0.8-3.3c1.5,2.8,1.7,3.5,1.4,5.3c0,0.2-0.2,0.4-0.4,0.5
		C93.8,164.6,93.7,164.6,93.7,164.6z"/>
	<path class="st1" d="M106,165.3c-0.2,0-0.4-0.1-0.5-0.2c-1.2-0.9-1.5-2-0.7-3.2c0.7-1.1,0-2-0.7-2.9c0.9,0,1.8,0.1,2.1,1.2
		c0-2.3,0.5-4.3,2.3-5.6c-0.4,1.1-0.5,2.2-0.1,3.1c1.9,3.5,2.2,3.8,1.7,6.1c-0.1,0.6-0.5,1.1-1,1.4
		C107.9,165.9,107.8,165.7,106,165.3z"/>
	<path class="st2" d="M107.9,164.6c-0.1,0-0.5-0.1-0.9-0.2c-0.2,0-0.4-0.1-0.6-0.2c0,0,0,0,0,0c-0.8-0.6-0.6-0.6-0.4-1.2l0.1-0.3
		l0,0c0.1-0.9-0.3-1.4-0.4-2l1,1.1c0-0.4,0.8-2.9,0.8-3.3c1.5,2.8,1.7,3.5,1.4,5.3c0,0.2-0.2,0.4-0.4,0.5
		C108.1,164.5,108,164.6,107.9,164.6z"/>
	<path class="st1" d="M120.3,165.2c-0.2,0-0.4-0.1-0.5-0.2c-1.2-0.9-1.5-2-0.7-3.2c0.7-1.1,0-2-0.7-2.9c0.9,0,1.8,0.1,2.1,1.2
		c0-2.3,0.5-4.3,2.3-5.6c-0.4,1.1-0.5,2.2-0.1,3.1c1.9,3.5,2.2,3.8,1.7,6.1c-0.1,0.6-0.5,1.1-1,1.4
		C122.2,165.8,122.1,165.6,120.3,165.2z"/>
	<path class="st2" d="M122.2,164.5c-0.1,0-0.5-0.1-0.9-0.2c-0.2,0-0.4-0.1-0.6-0.2c0,0,0,0,0,0c-0.8-0.6-0.6-0.6-0.4-1.2l0.1-0.3
		l0,0c0.1-0.9-0.3-1.4-0.4-2l1,1.1c0-0.4,0.8-2.9,0.8-3.3c1.5,2.8,1.7,3.5,1.4,5.3c0,0.2-0.2,0.4-0.4,0.5
		C122.4,164.5,122.3,164.5,122.2,164.5z"/>
	<path class="st1" d="M134.6,165.1c-0.2,0-0.4-0.1-0.5-0.2c-1.2-0.9-1.5-2-0.7-3.2c0.7-1.1,0-2-0.7-2.9c0.9,0,1.8,0.1,2.1,1.2
		c0-2.3,0.5-4.3,2.3-5.6c-0.4,1.1-0.5,2.2-0.1,3.1c1.9,3.5,2.2,3.8,1.7,6.1c-0.1,0.6-0.5,1.1-1,1.4
		C136.5,165.7,136.4,165.6,134.6,165.1z"/>
	<path class="st2" d="M136.5,164.4c-0.1,0-0.5-0.1-0.9-0.2c-0.2,0-0.4-0.1-0.6-0.2c0,0,0,0,0,0c-0.8-0.6-0.6-0.6-0.4-1.2l0.1-0.3
		l0,0c0.1-0.9-0.3-1.4-0.4-2l1,1.1c0-0.4,0.8-2.9,0.8-3.3c1.5,2.8,1.7,3.5,1.4,5.3c0,0.2-0.2,0.4-0.4,0.5
		C136.7,164.4,136.5,164.4,136.5,164.4z"/>
	<path class="st1" d="M148.9,165.1c-0.2,0-0.4-0.1-0.5-0.2c-1.2-0.9-1.5-2-0.7-3.2c0.7-1.1,0-2-0.7-2.9c0.9,0,1.8,0.1,2.1,1.2
		c0-2.3,0.5-4.3,2.3-5.6c-0.4,1.1-0.5,2.2-0.1,3.1c1.9,3.5,2.2,3.8,1.7,6.1c-0.1,0.6-0.5,1.1-1,1.4
		C150.7,165.7,150.7,165.5,148.9,165.1z"/>
	<path class="st2" d="M150.8,164.4c-0.1,0-0.5-0.1-0.9-0.2c-0.2,0-0.4-0.1-0.6-0.2c0,0,0,0,0,0c-0.8-0.6-0.6-0.6-0.4-1.2l0.1-0.3
		l0,0c0.1-0.9-0.3-1.4-0.4-2l1,1.1c0-0.4,0.8-2.9,0.8-3.3c1.5,2.8,1.7,3.5,1.4,5.3c0,0.2-0.2,0.4-0.4,0.5
		C150.9,164.4,150.8,164.4,150.8,164.4z"/>
	<path class="st1" d="M163.1,165c-0.2,0-0.4-0.1-0.5-0.2c-1.2-0.9-1.5-2-0.7-3.2c0.7-1.1,0-2-0.7-2.9c0.9,0,1.8,0.1,2.1,1.2
		c0-2.3,0.5-4.3,2.3-5.6c-0.4,1.1-0.5,2.2-0.1,3.1c1.9,3.5,2.2,3.8,1.7,6.1c-0.1,0.6-0.5,1.1-1,1.4C165,165.6,165,165.5,163.1,165z"
		/>
	<path class="st2" d="M165.1,164.3c-0.1,0-0.5-0.1-0.9-0.2c-0.2,0-0.4-0.1-0.6-0.2c0,0,0,0,0,0c-0.8-0.6-0.6-0.6-0.4-1.2l0.1-0.3
		l0,0c0.1-0.9-0.3-1.4-0.4-2l1,1.1c0-0.4,0.8-2.9,0.8-3.3c1.5,2.8,1.7,3.5,1.4,5.3c0,0.2-0.2,0.4-0.4,0.5
		C165.2,164.3,165.1,164.3,165.1,164.3z"/>
	<path class="st1" d="M177.4,165c-0.2,0-0.4-0.1-0.5-0.2c-1.2-0.9-1.5-2-0.7-3.2c0.7-1.1,0-2-0.7-2.9c0.9,0,1.8,0.1,2.1,1.2
		c0-2.3,0.5-4.3,2.3-5.6c-0.4,1.1-0.5,2.2-0.1,3.1c1.9,3.5,2.2,3.8,1.7,6.1c-0.1,0.6-0.5,1.1-1,1.4
		C179.3,165.6,179.3,165.4,177.4,165z"/>
	<path class="st2" d="M179.4,164.3c-0.1,0-0.5-0.1-0.9-0.2c-0.2,0-0.4-0.1-0.6-0.2c0,0,0,0,0,0c-0.8-0.6-0.6-0.6-0.4-1.2l0.1-0.3
		l0,0c0.1-0.9-0.3-1.4-0.4-2l1,1.1c0-0.4,0.8-2.9,0.8-3.3c1.5,2.8,1.7,3.5,1.4,5.3c0,0.2-0.2,0.4-0.4,0.5
		C179.5,164.2,179.4,164.3,179.4,164.3z"/>
	<path class="st1" d="M191.7,164.9c-0.2,0-0.4-0.1-0.5-0.2c-1.2-0.9-1.5-2-0.7-3.2c0.7-1.1,0-2-0.7-2.9c0.9,0,1.8,0.1,2.1,1.2
		c0-2.3,0.5-4.3,2.3-5.6c-0.4,1.1-0.5,2.2-0.1,3.1c1.9,3.5,2.2,3.8,1.7,6.1c-0.1,0.6-0.5,1.1-1,1.4
		C193.6,165.5,193.5,165.4,191.7,164.9z"/>
	<path class="st2" d="M193.7,164.2c-0.1,0-0.5-0.1-0.9-0.2c-0.2,0-0.4-0.1-0.6-0.2c0,0,0,0,0,0c-0.8-0.6-0.6-0.6-0.4-1.2l0.1-0.3
		l0,0c0.1-0.9-0.3-1.4-0.4-2l1,1.1c0-0.4,0.8-2.9,0.8-3.3c1.5,2.8,1.7,3.5,1.4,5.3c0,0.2-0.2,0.4-0.4,0.5
		C193.8,164.2,193.7,164.2,193.7,164.2z"/>
	<path class="st1" d="M206,164.9c-0.2,0-0.4-0.1-0.5-0.2c-1.2-0.9-1.5-2-0.7-3.2c0.7-1.1,0-2-0.7-2.9c0.9,0,1.8,0.1,2.1,1.2
		c0-2.3,0.5-4.3,2.3-5.6c-0.4,1.1-0.5,2.2-0.1,3.1c1.9,3.5,2.2,3.8,1.7,6.1c-0.1,0.6-0.5,1.1-1,1.4
		C207.9,165.5,207.8,165.3,206,164.9z"/>
	<path class="st2" d="M208,164.2c-0.1,0-0.5-0.1-0.9-0.2c-0.2,0-0.4-0.1-0.6-0.2c0,0,0,0,0,0c-0.8-0.6-0.6-0.6-0.4-1.2l0.1-0.3l0,0
		c0.1-0.9-0.3-1.4-0.4-2l1,1.1c0-0.4,0.8-2.9,0.8-3.3c1.5,2.8,1.7,3.5,1.4,5.3c0,0.2-0.2,0.4-0.4,0.5
		C208.1,164.1,208,164.2,208,164.2z"/>
	<path class="st1" d="M220.3,164.8c-0.2,0-0.4-0.1-0.5-0.2c-1.2-0.9-1.5-2-0.7-3.2c0.7-1.1,0-2-0.7-2.9c0.9,0,1.8,0.1,2.1,1.2
		c0-2.3,0.5-4.3,2.3-5.6c-0.4,1.1-0.5,2.2-0.1,3.1c1.9,3.5,2.2,3.8,1.7,6.1c-0.1,0.6-0.5,1.1-1,1.4
		C222.2,165.4,222.1,165.2,220.3,164.8z"/>
	<path class="st2" d="M222.2,164.1c-0.1,0-0.5-0.1-0.9-0.2c-0.2,0-0.4-0.1-0.6-0.2c0,0,0,0,0,0c-0.8-0.6-0.6-0.6-0.4-1.2l0.1-0.3
		l0,0c0.1-0.9-0.3-1.4-0.4-2l1,1.1c0-0.4,0.8-2.9,0.8-3.3c1.5,2.8,1.7,3.5,1.4,5.3c0,0.2-0.2,0.4-0.4,0.5
		C222.4,164.1,222.3,164.1,222.2,164.1z"/>
	<path class="st1" d="M234.6,164.7c-0.2,0-0.4-0.1-0.5-0.2c-1.2-0.9-1.5-2-0.7-3.2c0.7-1.1,0-2-0.7-2.9c0.9,0,1.8,0.1,2.1,1.2
		c0-2.3,0.5-4.3,2.3-5.6c-0.4,1.1-0.5,2.2-0.1,3.1c1.9,3.5,2.2,3.8,1.7,6.1c-0.1,0.6-0.5,1.1-1,1.4
		C236.5,165.4,236.4,165.2,234.6,164.7z"/>
	<path class="st2" d="M236.5,164c-0.1,0-0.5-0.1-0.9-0.2c-0.2,0-0.4-0.1-0.6-0.2c0,0,0,0,0,0c-0.8-0.6-0.6-0.6-0.4-1.2l0.1-0.3l0,0
		c0.1-0.9-0.3-1.4-0.4-2l1,1.1c0-0.4,0.8-2.9,0.8-3.3c1.5,2.8,1.7,3.5,1.4,5.3c0,0.2-0.2,0.4-0.4,0.5C236.7,164,236.6,164,236.5,164
		z"/>
</g>
</svg>
