<?xml version="1.0" encoding="utf-8"?>
<!-- Generator: Adobe Illustrator 22.1.0, SVG Export Plug-In . SVG Version: 6.00 Build 0)  -->
<svg version="1.1" id="Layer_1" xmlns="http://www.w3.org/2000/svg" xmlns:xlink="http://www.w3.org/1999/xlink" x="0px" y="0px"
	 viewBox="0 0 331 283" style="enable-background:new 0 0 331 283;" xml:space="preserve">
<style type="text/css">
	.st0{fill:#C8E0BF;stroke:#000000;stroke-width:0.7799;stroke-miterlimit:10;}
	.st1{fill:none;stroke:#A6C795;stroke-width:0.7799;stroke-miterlimit:10;}
	.st2{fill:none;stroke:#8BA280;stroke-width:0.7799;stroke-miterlimit:10;}
</style>
<g>
	
		<rect x="102" y="117.2" transform="matrix(-1 -2.693940e-10 2.693940e-10 -1 355.6292 296.6936)" class="st0" width="151.5" height="62.3"/>
	<path class="st1" d="M253,169.8c-3.9,5.7-8.3,5.2-12.9,0.3 M240.3,170.3c-4.7-4.9-9-5.4-12.9,0.3 M215.2,169.9
		c4.7,4.9,9,5.4,12.9-0.3 M215.4,170.1c-4.7-4.9-9-5.4-12.9,0.3 M190.3,169.7c4.7,4.9,9,5.4,12.9-0.3 M190.5,169.9
		c-4.7-4.9-9-5.4-12.9,0.3 M165.5,169.5c4.7,4.9,9,5.4,12.9-0.3 M165.7,169.7c-4.7-4.9-9-5.4-12.9,0.3 M140.6,169.3
		c4.7,4.9,9,5.4,12.9-0.3 M140.8,169.5c-4.7-4.9-9-5.4-12.9,0.3 M115.7,169.1c4.7,4.9,9,5.4,12.9-0.3 M115.9,169.3
		c-4.7-4.9-9-5.4-12.9,0.3"/>
	<path class="st2" d="M253.2,158.2c-3.9,5.7-8.3,5.2-13,0.3 M240.5,158.7c-4.7-4.9-9-5.4-13,0.3 M215.3,158.2c4.7,4.9,9,5.4,13-0.3
		 M215.5,158.4c-4.7-4.9-9-5.4-13,0.3 M190.3,158c4.7,4.9,9,5.4,13-0.3 M190.5,158.2c-4.7-4.9-9-5.4-13,0.3 M165.2,157.8
		c4.7,4.9,9,5.4,13-0.3 M165.5,158c-4.7-4.9-9-5.4-13,0.3 M140.2,157.6c4.7,4.9,9,5.4,13-0.3 M140.4,157.8c-4.7-4.9-9-5.4-13,0.3
		 M115.2,157.4c4.7,4.9,9,5.4,13-0.3 M115.4,157.6c-4.7-4.9-9-5.4-13,0.3"/>
	<path class="st1" d="M253.2,146.5c-3.9,5.7-8.3,5.2-13,0.3 M240.5,147c-4.7-4.9-9-5.4-13,0.3 M215.3,146.6c4.7,4.9,9,5.4,13-0.3
		 M215.5,146.8c-4.7-4.9-9-5.4-13,0.3 M190.3,146.4c4.7,4.9,9,5.4,13-0.3 M190.5,146.6c-4.7-4.9-9-5.4-13,0.3 M165.2,146.2
		c4.7,4.9,9,5.4,13-0.3 M165.5,146.4c-4.7-4.9-9-5.4-13,0.3 M140.2,145.9c4.7,4.9,9,5.4,13-0.3 M140.4,146.1c-4.7-4.9-9-5.4-13,0.3
		 M115.2,145.7c4.7,4.9,9,5.4,13-0.3 M115.4,145.9c-4.7-4.9-9-5.4-13,0.3"/>
	<path class="st2" d="M253.5,134.8c-3.9,5.7-8.3,5.2-13,0.3 M240.7,135.3c-4.7-4.9-9.1-5.4-13,0.3 M215.5,134.9
		c4.7,4.9,9.1,5.4,13-0.3 M215.7,135.1c-4.7-4.9-9.1-5.4-13,0.3 M190.4,134.7c4.7,4.9,9.1,5.4,13-0.3 M190.6,134.9
		c-4.7-4.9-9.1-5.4-13,0.3 M165.4,134.5c4.7,4.9,9.1,5.4,13-0.3 M165.6,134.7c-4.7-4.9-9.1-5.4-13,0.3 M140.3,134.3
		c4.7,4.9,9.1,5.4,13-0.3 M140.5,134.5c-4.7-4.9-9.1-5.4-13,0.3 M115.3,134.1c4.7,4.9,9.1,5.4,13-0.3 M115.5,134.3
		c-4.7-4.9-9.1-5.4-13,0.3"/>
	<path class="st1" d="M253.2,123.2c-3.9,5.7-8.3,5.2-13,0.3 M240.5,123.7c-4.7-4.9-9-5.4-13,0.3 M215.3,123.2c4.7,4.9,9,5.4,13-0.3
		 M215.5,123.4c-4.7-4.9-9-5.4-13,0.3 M190.3,123c4.7,4.9,9,5.4,13-0.3 M190.5,123.2c-4.7-4.9-9-5.4-13,0.3 M165.2,122.8
		c4.7,4.9,9,5.4,13-0.3 M165.5,123c-4.7-4.9-9-5.4-13,0.3 M140.2,122.6c4.7,4.9,9,5.4,13-0.3 M140.4,122.8c-4.7-4.9-9-5.4-13,0.3
		 M115.2,122.4c4.7,4.9,9,5.4,13-0.3 M115.4,122.6c-4.7-4.9-9-5.4-13,0.3"/>
</g>
</svg>
