<?xml version="1.0" encoding="utf-8"?>
<!-- Generator: Adobe Illustrator 22.1.0, SVG Export Plug-In . SVG Version: 6.00 Build 0)  -->
<svg version="1.1" id="Layer_1" xmlns="http://www.w3.org/2000/svg" xmlns:xlink="http://www.w3.org/1999/xlink" x="0px" y="0px"
	 viewBox="0 0 331 283" style="enable-background:new 0 0 331 283;" xml:space="preserve">
<style type="text/css">
	.st0{fill:#82BDE5;stroke:#000000;stroke-width:0.7969;stroke-miterlimit:10;}
	.st1{fill:#3F5FA6;}
</style>
<g>
	<rect x="62.6" y="109.4" class="st0" width="154.8" height="63.7"/>
	<rect x="68.4" y="118.6" transform="matrix(1 -8.212009e-03 8.212009e-03 1 -0.981 0.5745)" class="st1" width="2" height="2.2"/>
	<rect x="66.7" y="119.9" transform="matrix(1 -8.212009e-03 8.212009e-03 1 -0.9914 0.5603)" class="st1" width="2" height="2.2"/>
	<rect x="69.8" y="120.2" transform="matrix(1 -8.212009e-03 8.212009e-03 1 -0.9933 0.5858)" class="st1" width="2" height="2.2"/>
	<rect x="81.4" y="118.6" transform="matrix(1 -8.212009e-03 8.212009e-03 1 -0.9801 0.6806)" class="st1" width="2" height="2.2"/>
	<rect x="79.6" y="119.8" transform="matrix(1 -8.212009e-03 8.212009e-03 1 -0.9905 0.6664)" class="st1" width="2" height="2.2"/>
	<rect x="82.7" y="120.1" transform="matrix(1 -8.212009e-03 8.212009e-03 1 -0.9924 0.6919)" class="st1" width="2" height="2.2"/>
	<rect x="94.3" y="118.5" transform="matrix(1 -8.212009e-03 8.212009e-03 1 -0.9792 0.7867)" class="st1" width="2" height="2.2"/>
	<rect x="92.5" y="119.8" transform="matrix(1 -8.212009e-03 8.212009e-03 1 -0.9896 0.7725)" class="st1" width="2" height="2.2"/>
	<rect x="95.7" y="120" transform="matrix(1 -8.212009e-03 8.212009e-03 1 -0.9915 0.798)" class="st1" width="2" height="2.2"/>
	
		<rect x="107.2" y="118.5" transform="matrix(1 -8.212009e-03 8.212009e-03 1 -0.9783 0.8928)" class="st1" width="2" height="2.2"/>
	
		<rect x="105.5" y="119.7" transform="matrix(1 -8.212009e-03 8.212009e-03 1 -0.9887 0.8785)" class="st1" width="2" height="2.2"/>
	<rect x="108.6" y="120" transform="matrix(1 -8.212009e-03 8.212009e-03 1 -0.9906 0.9041)" class="st1" width="2" height="2.2"/>
	
		<rect x="120.1" y="118.4" transform="matrix(1 -8.212009e-03 8.212009e-03 1 -0.9774 0.9989)" class="st1" width="2" height="2.2"/>
	
		<rect x="118.4" y="119.7" transform="matrix(1 -8.212009e-03 8.212009e-03 1 -0.9878 0.9846)" class="st1" width="2" height="2.2"/>
	
		<rect x="121.5" y="119.9" transform="matrix(1 -8.212009e-03 8.212009e-03 1 -0.9897 1.0102)" class="st1" width="2" height="2.2"/>
	<rect x="133" y="118.4" transform="matrix(1 -8.212009e-03 8.212009e-03 1 -0.9765 1.105)" class="st1" width="2" height="2.2"/>
	
		<rect x="131.3" y="119.6" transform="matrix(1 -8.212009e-03 8.212009e-03 1 -0.9868 1.0907)" class="st1" width="2" height="2.2"/>
	
		<rect x="134.4" y="119.9" transform="matrix(1 -8.212009e-03 8.212009e-03 1 -0.9888 1.1163)" class="st1" width="2" height="2.2"/>
	<rect x="146" y="118.3" transform="matrix(1 -8.212009e-03 8.212009e-03 1 -0.9756 1.211)" class="st1" width="2" height="2.2"/>
	
		<rect x="144.2" y="119.6" transform="matrix(1 -8.212009e-03 8.212009e-03 1 -0.9859 1.1968)" class="st1" width="2" height="2.2"/>
	
		<rect x="147.3" y="119.8" transform="matrix(1 -8.212009e-03 8.212009e-03 1 -0.9879 1.2224)" class="st1" width="2" height="2.2"/>
	
		<rect x="158.9" y="118.2" transform="matrix(1 -8.212009e-03 8.212009e-03 1 -0.9747 1.3171)" class="st1" width="2" height="2.2"/>
	<rect x="157.1" y="119.5" transform="matrix(1 -8.212009e-03 8.212009e-03 1 -0.985 1.3029)" class="st1" width="2" height="2.2"/>
	<rect x="160.3" y="119.8" transform="matrix(1 -8.212009e-03 8.212009e-03 1 -0.987 1.3285)" class="st1" width="2" height="2.2"/>
	
		<rect x="171.8" y="118.2" transform="matrix(1 -8.212009e-03 8.212009e-03 1 -0.9738 1.4232)" class="st1" width="2" height="2.2"/>
	<rect x="170.1" y="119.4" transform="matrix(1 -8.212009e-03 8.212009e-03 1 -0.9841 1.409)" class="st1" width="2" height="2.2"/>
	
		<rect x="173.2" y="119.7" transform="matrix(1 -8.212009e-03 8.212009e-03 1 -0.9861 1.4346)" class="st1" width="2" height="2.2"/>
	
		<rect x="184.7" y="118.1" transform="matrix(1 -8.212009e-03 8.212009e-03 1 -0.9729 1.5293)" class="st1" width="2" height="2.2"/>
	<rect x="183" y="119.4" transform="matrix(1 -8.212009e-03 8.212009e-03 1 -0.9832 1.5151)" class="st1" width="2" height="2.2"/>
	
		<rect x="186.1" y="119.6" transform="matrix(1 -8.212009e-03 8.212009e-03 1 -0.9852 1.5407)" class="st1" width="2" height="2.2"/>
	<rect x="197.6" y="118.1" transform="matrix(1 -8.212009e-03 8.212009e-03 1 -0.972 1.6354)" class="st1" width="2" height="2.2"/>
	
		<rect x="195.9" y="119.3" transform="matrix(1 -8.212009e-03 8.212009e-03 1 -0.9823 1.6212)" class="st1" width="2" height="2.2"/>
	<rect x="199" y="119.6" transform="matrix(1 -8.212009e-03 8.212009e-03 1 -0.9843 1.6468)" class="st1" width="2" height="2.2"/>
	<rect x="210.6" y="118" transform="matrix(1 -8.212009e-03 8.212009e-03 1 -0.9711 1.7415)" class="st1" width="2" height="2.2"/>
	
		<rect x="208.8" y="119.3" transform="matrix(1 -8.212009e-03 8.212009e-03 1 -0.9814 1.7273)" class="st1" width="2" height="2.2"/>
	
		<rect x="211.9" y="119.5" transform="matrix(1 -8.212009e-03 8.212009e-03 1 -0.9834 1.7529)" class="st1" width="2" height="2.2"/>
	<rect x="74.2" y="132" transform="matrix(1 -8.212009e-03 8.212009e-03 1 -1.0906 0.6221)" class="st1" width="2" height="2.2"/>
	<rect x="72.4" y="133.3" transform="matrix(1 -8.212009e-03 8.212009e-03 1 -1.101 0.6079)" class="st1" width="2" height="2.2"/>
	<rect x="75.6" y="133.5" transform="matrix(1 -8.212009e-03 8.212009e-03 1 -1.1029 0.6334)" class="st1" width="2" height="2.2"/>
	<rect x="87.1" y="132" transform="matrix(1 -8.212009e-03 8.212009e-03 1 -1.0897 0.7282)" class="st1" width="2" height="2.2"/>
	<rect x="85.4" y="133.2" transform="matrix(1 -8.212009e-03 8.212009e-03 1 -1.1001 0.714)" class="st1" width="2" height="2.2"/>
	<rect x="88.5" y="133.5" transform="matrix(1 -8.212009e-03 8.212009e-03 1 -1.102 0.7395)" class="st1" width="2" height="2.2"/>
	<rect x="100" y="131.9" transform="matrix(1 -8.212009e-03 8.212009e-03 1 -1.0888 0.8343)" class="st1" width="2" height="2.2"/>
	<rect x="98.3" y="133.2" transform="matrix(1 -8.212009e-03 8.212009e-03 1 -1.0991 0.8201)" class="st1" width="2" height="2.2"/>
	
		<rect x="101.4" y="133.4" transform="matrix(1 -8.212009e-03 8.212009e-03 1 -1.1011 0.8456)" class="st1" width="2" height="2.2"/>
	
		<rect x="112.9" y="131.8" transform="matrix(1 -8.212009e-03 8.212009e-03 1 -1.0879 0.9404)" class="st1" width="2" height="2.2"/>
	
		<rect x="111.2" y="133.1" transform="matrix(1 -8.212009e-03 8.212009e-03 1 -1.0982 0.9261)" class="st1" width="2" height="2.2"/>
	
		<rect x="114.3" y="133.4" transform="matrix(1 -8.212009e-03 8.212009e-03 1 -1.1002 0.9517)" class="st1" width="2" height="2.2"/>
	<rect x="125.9" y="131.8" transform="matrix(1 -8.212009e-03 8.212009e-03 1 -1.087 1.0465)" class="st1" width="2" height="2.2"/>
	<rect x="124.1" y="133" transform="matrix(1 -8.212009e-03 8.212009e-03 1 -1.0973 1.0322)" class="st1" width="2" height="2.2"/>
	
		<rect x="127.2" y="133.3" transform="matrix(1 -8.212009e-03 8.212009e-03 1 -1.0993 1.0578)" class="st1" width="2" height="2.2"/>
	
		<rect x="138.8" y="131.7" transform="matrix(1 -8.212009e-03 8.212009e-03 1 -1.0861 1.1526)" class="st1" width="2" height="2.2"/>
	<rect x="137" y="133" transform="matrix(1 -8.212009e-03 8.212009e-03 1 -1.0964 1.1383)" class="st1" width="2" height="2.2"/>
	
		<rect x="140.2" y="133.2" transform="matrix(1 -8.212009e-03 8.212009e-03 1 -1.0984 1.1639)" class="st1" width="2" height="2.2"/>
	
		<rect x="151.7" y="131.7" transform="matrix(1 -8.212009e-03 8.212009e-03 1 -1.0852 1.2586)" class="st1" width="2" height="2.2"/>
	<rect x="150" y="132.9" transform="matrix(1 -8.212009e-03 8.212009e-03 1 -1.0955 1.2444)" class="st1" width="2" height="2.2"/>
	<rect x="153.1" y="133.2" transform="matrix(1 -8.212009e-03 8.212009e-03 1 -1.0975 1.27)" class="st1" width="2" height="2.2"/>
	
		<rect x="164.6" y="131.6" transform="matrix(1 -8.212009e-03 8.212009e-03 1 -1.0843 1.3647)" class="st1" width="2" height="2.2"/>
	
		<rect x="162.9" y="132.9" transform="matrix(1 -8.212009e-03 8.212009e-03 1 -1.0946 1.3505)" class="st1" width="2" height="2.2"/>
	<rect x="166" y="133.1" transform="matrix(1 -8.212009e-03 8.212009e-03 1 -1.0966 1.3761)" class="st1" width="2" height="2.2"/>
	
		<rect x="177.5" y="131.6" transform="matrix(1 -8.212009e-03 8.212009e-03 1 -1.0834 1.4708)" class="st1" width="2" height="2.2"/>
	
		<rect x="175.8" y="132.8" transform="matrix(1 -8.212009e-03 8.212009e-03 1 -1.0937 1.4566)" class="st1" width="2" height="2.2"/>
	
		<rect x="178.9" y="133.1" transform="matrix(1 -8.212009e-03 8.212009e-03 1 -1.0957 1.4822)" class="st1" width="2" height="2.2"/>
	
		<rect x="190.5" y="131.5" transform="matrix(1 -8.212009e-03 8.212009e-03 1 -1.0825 1.5769)" class="st1" width="2" height="2.2"/>
	
		<rect x="188.7" y="132.8" transform="matrix(1 -8.212009e-03 8.212009e-03 1 -1.0928 1.5627)" class="st1" width="2" height="2.2"/>
	<rect x="191.8" y="133" transform="matrix(1 -8.212009e-03 8.212009e-03 1 -1.0948 1.5883)" class="st1" width="2" height="2.2"/>
	<rect x="203.4" y="131.4" transform="matrix(1 -8.212009e-03 8.212009e-03 1 -1.0816 1.683)" class="st1" width="2" height="2.2"/>
	
		<rect x="201.6" y="132.7" transform="matrix(1 -8.212009e-03 8.212009e-03 1 -1.0919 1.6688)" class="st1" width="2" height="2.2"/>
	<rect x="204.8" y="133" transform="matrix(1 -8.212009e-03 8.212009e-03 1 -1.0939 1.6944)" class="st1" width="2" height="2.2"/>
	<rect x="68.3" y="147.1" transform="matrix(1 -8.212009e-03 8.212009e-03 1 -1.2144 0.5742)" class="st1" width="2" height="2.2"/>
	<rect x="66.6" y="148.3" transform="matrix(1 -8.212009e-03 8.212009e-03 1 -1.2247 0.56)" class="st1" width="2" height="2.2"/>
	<rect x="69.7" y="148.6" transform="matrix(1 -8.212009e-03 8.212009e-03 1 -1.2267 0.5855)" class="st1" width="2" height="2.2"/>
	<rect x="81.2" y="147" transform="matrix(1 -8.212009e-03 8.212009e-03 1 -1.2135 0.6803)" class="st1" width="2" height="2.2"/>
	<rect x="79.5" y="148.3" transform="matrix(1 -8.212009e-03 8.212009e-03 1 -1.2238 0.6661)" class="st1" width="2" height="2.2"/>
	<rect x="82.6" y="148.5" transform="matrix(1 -8.212009e-03 8.212009e-03 1 -1.2258 0.6916)" class="st1" width="2" height="2.2"/>
	<rect x="94.1" y="146.9" transform="matrix(1 -8.212009e-03 8.212009e-03 1 -1.2126 0.7864)" class="st1" width="2" height="2.2"/>
	<rect x="92.4" y="148.2" transform="matrix(1 -8.212009e-03 8.212009e-03 1 -1.2229 0.7722)" class="st1" width="2" height="2.2"/>
	<rect x="95.5" y="148.5" transform="matrix(1 -8.212009e-03 8.212009e-03 1 -1.2249 0.7977)" class="st1" width="2" height="2.2"/>
	<rect x="107" y="146.9" transform="matrix(1 -8.212009e-03 8.212009e-03 1 -1.2117 0.8925)" class="st1" width="2" height="2.2"/>
	<rect x="105.3" y="148.1" transform="matrix(1 -8.212009e-03 8.212009e-03 1 -1.222 0.8782)" class="st1" width="2" height="2.2"/>
	<rect x="108.4" y="148.4" transform="matrix(1 -8.212009e-03 8.212009e-03 1 -1.224 0.9038)" class="st1" width="2" height="2.2"/>
	<rect x="120" y="146.8" transform="matrix(1 -8.212009e-03 8.212009e-03 1 -1.2108 0.9986)" class="st1" width="2" height="2.2"/>
	
		<rect x="118.2" y="148.1" transform="matrix(1 -8.212009e-03 8.212009e-03 1 -1.2211 0.9843)" class="st1" width="2" height="2.2"/>
	
		<rect x="121.3" y="148.3" transform="matrix(1 -8.212009e-03 8.212009e-03 1 -1.2231 1.0099)" class="st1" width="2" height="2.2"/>
	
		<rect x="132.9" y="146.8" transform="matrix(1 -8.212009e-03 8.212009e-03 1 -1.2099 1.1046)" class="st1" width="2" height="2.2"/>
	<rect x="131.2" y="148" transform="matrix(1 -8.212009e-03 8.212009e-03 1 -1.2202 1.0904)" class="st1" width="2" height="2.2"/>
	<rect x="134.3" y="148.3" transform="matrix(1 -8.212009e-03 8.212009e-03 1 -1.2222 1.116)" class="st1" width="2" height="2.2"/>
	<rect x="145.8" y="146.7" transform="matrix(1 -8.212009e-03 8.212009e-03 1 -1.209 1.2107)" class="st1" width="2" height="2.2"/>
	<rect x="144.1" y="148" transform="matrix(1 -8.212009e-03 8.212009e-03 1 -1.2193 1.1965)" class="st1" width="2" height="2.2"/>
	
		<rect x="147.2" y="148.2" transform="matrix(1 -8.212009e-03 8.212009e-03 1 -1.2213 1.2221)" class="st1" width="2" height="2.2"/>
	
		<rect x="158.7" y="146.7" transform="matrix(1 -8.212009e-03 8.212009e-03 1 -1.2081 1.3168)" class="st1" width="2" height="2.2"/>
	<rect x="157" y="147.9" transform="matrix(1 -8.212009e-03 8.212009e-03 1 -1.2184 1.3026)" class="st1" width="2" height="2.2"/>
	
		<rect x="160.1" y="148.2" transform="matrix(1 -8.212009e-03 8.212009e-03 1 -1.2204 1.3282)" class="st1" width="2" height="2.2"/>
	
		<rect x="171.6" y="146.6" transform="matrix(1 -8.212009e-03 8.212009e-03 1 -1.2072 1.4229)" class="st1" width="2" height="2.2"/>
	
		<rect x="169.9" y="147.9" transform="matrix(1 -8.212009e-03 8.212009e-03 1 -1.2175 1.4087)" class="st1" width="2" height="2.2"/>
	<rect x="173" y="148.1" transform="matrix(1 -8.212009e-03 8.212009e-03 1 -1.2195 1.4343)" class="st1" width="2" height="2.2"/>
	<rect x="184.6" y="146.5" transform="matrix(1 -8.212009e-03 8.212009e-03 1 -1.2062 1.529)" class="st1" width="2" height="2.2"/>
	
		<rect x="182.8" y="147.8" transform="matrix(1 -8.212009e-03 8.212009e-03 1 -1.2166 1.5148)" class="st1" width="2" height="2.2"/>
	
		<rect x="185.9" y="148.1" transform="matrix(1 -8.212009e-03 8.212009e-03 1 -1.2186 1.5404)" class="st1" width="2" height="2.2"/>
	
		<rect x="197.5" y="146.5" transform="matrix(1 -8.212009e-03 8.212009e-03 1 -1.2053 1.6351)" class="st1" width="2" height="2.2"/>
	
		<rect x="195.7" y="147.7" transform="matrix(1 -8.212009e-03 8.212009e-03 1 -1.2157 1.6209)" class="st1" width="2" height="2.2"/>
	<rect x="198.9" y="148" transform="matrix(1 -8.212009e-03 8.212009e-03 1 -1.2177 1.6465)" class="st1" width="2" height="2.2"/>
	
		<rect x="210.4" y="146.4" transform="matrix(1 -8.212009e-03 8.212009e-03 1 -1.2044 1.7412)" class="st1" width="2" height="2.2"/>
	<rect x="208.7" y="147.7" transform="matrix(1 -8.212009e-03 8.212009e-03 1 -1.2148 1.727)" class="st1" width="2" height="2.2"/>
	
		<rect x="211.8" y="147.9" transform="matrix(1 -8.212009e-03 8.212009e-03 1 -1.2168 1.7525)" class="st1" width="2" height="2.2"/>
	<rect x="75" y="162" transform="matrix(1 -8.212009e-03 8.212009e-03 1 -1.3368 0.6296)" class="st1" width="2" height="2.2"/>
	<rect x="73.2" y="163.3" transform="matrix(1 -8.212009e-03 8.212009e-03 1 -1.3472 0.6153)" class="st1" width="2" height="2.2"/>
	<rect x="76.3" y="163.5" transform="matrix(1 -8.212009e-03 8.212009e-03 1 -1.3491 0.6409)" class="st1" width="2" height="2.2"/>
	<rect x="87.9" y="161.9" transform="matrix(1 -8.212009e-03 8.212009e-03 1 -1.3359 0.7356)" class="st1" width="2" height="2.2"/>
	<rect x="86.2" y="163.2" transform="matrix(1 -8.212009e-03 8.212009e-03 1 -1.3462 0.7214)" class="st1" width="2" height="2.2"/>
	<rect x="89.3" y="163.4" transform="matrix(1 -8.212009e-03 8.212009e-03 1 -1.3482 0.747)" class="st1" width="2" height="2.2"/>
	<rect x="100.8" y="161.9" transform="matrix(1 -8.212009e-03 8.212009e-03 1 -1.335 0.8417)" class="st1" width="2" height="2.2"/>
	<rect x="99.1" y="163.1" transform="matrix(1 -8.212009e-03 8.212009e-03 1 -1.3453 0.8275)" class="st1" width="2" height="2.2"/>
	
		<rect x="102.2" y="163.4" transform="matrix(1 -8.212009e-03 8.212009e-03 1 -1.3473 0.8531)" class="st1" width="2" height="2.2"/>
	
		<rect x="113.7" y="161.8" transform="matrix(1 -8.212009e-03 8.212009e-03 1 -1.3341 0.9478)" class="st1" width="2" height="2.2"/>
	<rect x="112" y="163.1" transform="matrix(1 -8.212009e-03 8.212009e-03 1 -1.3444 0.9336)" class="st1" width="2" height="2.2"/>
	
		<rect x="115.1" y="163.3" transform="matrix(1 -8.212009e-03 8.212009e-03 1 -1.3464 0.9592)" class="st1" width="2" height="2.2"/>
	
		<rect x="126.6" y="161.8" transform="matrix(1 -8.212009e-03 8.212009e-03 1 -1.3332 1.0539)" class="st1" width="2" height="2.2"/>
	<rect x="124.9" y="163" transform="matrix(1 -8.212009e-03 8.212009e-03 1 -1.3435 1.0397)" class="st1" width="2" height="2.2"/>
	<rect x="128" y="163.3" transform="matrix(1 -8.212009e-03 8.212009e-03 1 -1.3455 1.0653)" class="st1" width="2" height="2.2"/>
	<rect x="139.6" y="161.7" transform="matrix(1 -8.212009e-03 8.212009e-03 1 -1.3323 1.16)" class="st1" width="2" height="2.2"/>
	<rect x="137.8" y="163" transform="matrix(1 -8.212009e-03 8.212009e-03 1 -1.3426 1.1458)" class="st1" width="2" height="2.2"/>
	
		<rect x="140.9" y="163.2" transform="matrix(1 -8.212009e-03 8.212009e-03 1 -1.3446 1.1714)" class="st1" width="2" height="2.2"/>
	
		<rect x="152.5" y="161.7" transform="matrix(1 -8.212009e-03 8.212009e-03 1 -1.3314 1.2661)" class="st1" width="2" height="2.2"/>
	
		<rect x="150.8" y="162.9" transform="matrix(1 -8.212009e-03 8.212009e-03 1 -1.3417 1.2519)" class="st1" width="2" height="2.2"/>
	
		<rect x="153.9" y="163.2" transform="matrix(1 -8.212009e-03 8.212009e-03 1 -1.3437 1.2775)" class="st1" width="2" height="2.2"/>
	
		<rect x="165.4" y="161.6" transform="matrix(1 -8.212009e-03 8.212009e-03 1 -1.3305 1.3722)" class="st1" width="2" height="2.2"/>
	<rect x="163.7" y="162.9" transform="matrix(1 -8.212009e-03 8.212009e-03 1 -1.3408 1.358)" class="st1" width="2" height="2.2"/>
	
		<rect x="166.8" y="163.1" transform="matrix(1 -8.212009e-03 8.212009e-03 1 -1.3428 1.3835)" class="st1" width="2" height="2.2"/>
	
		<rect x="178.3" y="161.5" transform="matrix(1 -8.212009e-03 8.212009e-03 1 -1.3296 1.4783)" class="st1" width="2" height="2.2"/>
	
		<rect x="176.6" y="162.8" transform="matrix(1 -8.212009e-03 8.212009e-03 1 -1.3399 1.4641)" class="st1" width="2" height="2.2"/>
	<rect x="179.7" y="163" transform="matrix(1 -8.212009e-03 8.212009e-03 1 -1.3419 1.4896)" class="st1" width="2" height="2.2"/>
	
		<rect x="191.2" y="161.5" transform="matrix(1 -8.212009e-03 8.212009e-03 1 -1.3287 1.5844)" class="st1" width="2" height="2.2"/>
	<rect x="189.5" y="162.7" transform="matrix(1 -8.212009e-03 8.212009e-03 1 -1.339 1.5702)" class="st1" width="2" height="2.2"/>
	<rect x="192.6" y="163" transform="matrix(1 -8.212009e-03 8.212009e-03 1 -1.341 1.5957)" class="st1" width="2" height="2.2"/>
	
		<rect x="204.2" y="161.4" transform="matrix(1 -8.212009e-03 8.212009e-03 1 -1.3278 1.6905)" class="st1" width="2" height="2.2"/>
	
		<rect x="202.4" y="162.7" transform="matrix(1 -8.212009e-03 8.212009e-03 1 -1.3381 1.6763)" class="st1" width="2" height="2.2"/>
	
		<rect x="205.5" y="162.9" transform="matrix(1 -8.212009e-03 8.212009e-03 1 -1.3401 1.7018)" class="st1" width="2" height="2.2"/>
</g>
</svg>
