<?xml version="1.0" encoding="utf-8"?>
<!-- Generator: Adobe Illustrator 22.1.0, SVG Export Plug-In . SVG Version: 6.00 Build 0)  -->
<svg version="1.1" id="Layer_1" xmlns="http://www.w3.org/2000/svg" xmlns:xlink="http://www.w3.org/1999/xlink" x="0px" y="0px"
	 viewBox="0 0 331 283" style="enable-background:new 0 0 331 283;" xml:space="preserve">
<style type="text/css">
	.st0{fill:#E9E9E8;stroke:#000000;stroke-width:0.8103;stroke-miterlimit:10;}
	.st1{fill:none;stroke:#B1A1A1;stroke-width:1.6206;stroke-miterlimit:10;}
	.st2{fill:none;stroke:#D2C9C9;stroke-width:1.6206;stroke-miterlimit:10;}
</style>
<polyline class="st0" points="63.3,150.5 63.3,85.8 220.7,85.8 220.7,150.5 "/>
<line class="st1" x1="68.4" y1="99.2" x2="76.7" y2="89.4"/>
<line class="st2" x1="69.2" y1="102.9" x2="76.4" y2="94.4"/>
<line class="st1" x1="86.9" y1="100.6" x2="77.3" y2="92.2"/>
<line class="st2" x1="90.6" y1="99.9" x2="82.2" y2="92.6"/>
<line class="st1" x1="68.2" y1="121.6" x2="76.5" y2="111.8"/>
<line class="st2" x1="69" y1="125.2" x2="76.2" y2="116.8"/>
<line class="st1" x1="86.7" y1="123" x2="77.1" y2="114.6"/>
<line class="st2" x1="90.4" y1="122.2" x2="82" y2="115"/>
<line class="st1" x1="68" y1="144.1" x2="76.3" y2="134.4"/>
<line class="st2" x1="68.8" y1="147.8" x2="76" y2="139.3"/>
<line class="st1" x1="86.5" y1="145.5" x2="76.9" y2="137.2"/>
<line class="st2" x1="90.2" y1="144.8" x2="81.8" y2="137.6"/>
<line class="st1" x1="99.2" y1="99.6" x2="107.4" y2="89.8"/>
<line class="st2" x1="100" y1="103.3" x2="107.1" y2="94.8"/>
<line class="st1" x1="117.7" y1="101" x2="108" y2="92.6"/>
<line class="st2" x1="121.4" y1="100.3" x2="113" y2="93"/>
<line class="st1" x1="99" y1="122" x2="107.2" y2="112.2"/>
<line class="st2" x1="99.8" y1="125.6" x2="106.9" y2="117.2"/>
<line class="st1" x1="117.5" y1="123.4" x2="107.8" y2="115"/>
<line class="st2" x1="121.2" y1="122.6" x2="112.8" y2="115.4"/>
<line class="st1" x1="98.8" y1="144.5" x2="107" y2="134.8"/>
<line class="st2" x1="99.6" y1="148.2" x2="106.7" y2="139.7"/>
<line class="st1" x1="117.3" y1="145.9" x2="107.6" y2="137.6"/>
<line class="st2" x1="121" y1="145.2" x2="112.6" y2="138"/>
<line class="st1" x1="130" y1="100" x2="138.2" y2="90.2"/>
<line class="st2" x1="130.8" y1="103.7" x2="137.9" y2="95.2"/>
<line class="st1" x1="148.5" y1="101.4" x2="138.8" y2="93"/>
<line class="st2" x1="152.2" y1="100.7" x2="143.8" y2="93.4"/>
<line class="st1" x1="129.8" y1="122.4" x2="138" y2="112.6"/>
<line class="st2" x1="130.6" y1="126" x2="137.7" y2="117.6"/>
<line class="st1" x1="148.3" y1="123.8" x2="138.6" y2="115.4"/>
<line class="st2" x1="152" y1="123" x2="143.6" y2="115.8"/>
<line class="st1" x1="129.6" y1="144.9" x2="137.8" y2="135.2"/>
<line class="st2" x1="130.4" y1="148.6" x2="137.5" y2="140.1"/>
<line class="st1" x1="148.1" y1="146.3" x2="138.4" y2="138"/>
<line class="st2" x1="151.8" y1="145.6" x2="143.4" y2="138.3"/>
<line class="st1" x1="160.7" y1="100.4" x2="169" y2="90.6"/>
<line class="st2" x1="161.5" y1="104.1" x2="168.7" y2="95.6"/>
<line class="st1" x1="179.2" y1="101.8" x2="169.6" y2="93.4"/>
<line class="st2" x1="182.9" y1="101.1" x2="174.5" y2="93.8"/>
<line class="st1" x1="160.6" y1="122.8" x2="168.8" y2="113"/>
<line class="st2" x1="161.3" y1="126.4" x2="168.5" y2="118"/>
<line class="st1" x1="179" y1="124.2" x2="169.4" y2="115.8"/>
<line class="st2" x1="182.7" y1="123.4" x2="174.3" y2="116.2"/>
<line class="st1" x1="160.4" y1="145.3" x2="168.6" y2="135.6"/>
<line class="st2" x1="161.1" y1="149" x2="168.3" y2="140.5"/>
<line class="st1" x1="178.8" y1="146.7" x2="169.2" y2="138.4"/>
<line class="st2" x1="182.5" y1="146" x2="174.1" y2="138.7"/>
<line class="st1" x1="191.5" y1="100.8" x2="199.8" y2="91"/>
<line class="st2" x1="192.3" y1="104.5" x2="199.4" y2="96"/>
<line class="st1" x1="210" y1="102.2" x2="200.3" y2="93.8"/>
<line class="st2" x1="213.7" y1="101.5" x2="205.3" y2="94.2"/>
<line class="st1" x1="191.3" y1="123.2" x2="199.6" y2="113.4"/>
<line class="st2" x1="192.1" y1="126.8" x2="199.3" y2="118.4"/>
<line class="st1" x1="209.8" y1="124.6" x2="200.1" y2="116.2"/>
<line class="st2" x1="213.5" y1="123.8" x2="205.1" y2="116.6"/>
<line class="st1" x1="191.1" y1="145.7" x2="199.4" y2="136"/>
<line class="st2" x1="191.9" y1="149.4" x2="199.1" y2="140.9"/>
<line class="st1" x1="209.6" y1="147.1" x2="199.9" y2="138.8"/>
<line class="st2" x1="213.3" y1="146.4" x2="204.9" y2="139.1"/>
</svg>
