<?xml version="1.0" encoding="utf-8"?>
<!-- Generator: Adobe Illustrator 22.1.0, SVG Export Plug-In . SVG Version: 6.00 Build 0)  -->
<svg version="1.1" id="Layer_1" xmlns="http://www.w3.org/2000/svg" xmlns:xlink="http://www.w3.org/1999/xlink" x="0px" y="0px"
	 viewBox="0 0 331 283" style="enable-background:new 0 0 331 283;" xml:space="preserve">
<style type="text/css">
	.st0{fill:#E0EEED;stroke:#000000;stroke-width:0.8063;stroke-miterlimit:10;}
	.st1{fill:none;stroke:#ECC06D;stroke-width:0.8063;stroke-miterlimit:10;}
	.st2{fill:none;stroke:#D89A2F;stroke-width:0.8063;stroke-miterlimit:10;}
</style>
<g>
	<rect x="60.8" y="100.1" class="st0" width="156.7" height="64.4"/>
	<path class="st1" d="M61.7,111.1l8.5-8.5 M78.2,111.2l-8.5-8.5 M77.7,111.2l8.5-8.5 M94.2,111.3l-8.5-8.5 M102.2,102.8l-8.5,8.5
		 M110.2,111.5l-8.5-8.5 M109.7,111.6l8.5-8.5 M117.7,103.2l8.5,8.5 M125.7,111.8l8.5-8.5 M142.2,111.9l-8.5-8.5 M141.6,112l8.5-8.5
		 M158.1,112.1l-8.5-8.5 M157.6,112.2l8.5-8.5 M174.1,112.3l-8.5-8.5 M173.6,112.4l8.5-8.5 M190.1,112.5l-8.5-8.5 M189.6,112.6
		l8.5-8.5 M197.6,104.2l8.5,8.5 M205.5,112.8l8.5-8.5 M217,107.8c-1.1-1.1-2.3-2.3-3.4-3.4"/>
	<path class="st2" d="M61.5,124l8.5-8.5 M78,124.1l-8.5-8.5 M77.5,124.1l8.5-8.5 M94,124.2l-8.5-8.5 M102,115.8l-8.5,8.5 M110,124.4
		l-8.5-8.5 M109.5,124.5l8.5-8.5 M117.5,116.1l8.5,8.5 M125.5,124.7l8.5-8.5 M142,124.8l-8.5-8.5 M141.4,124.9l8.5-8.5 M157.9,125
		l-8.5-8.5 M157.4,125.1l8.5-8.5 M173.9,125.2l-8.5-8.5 M173.4,125.3l8.5-8.5 M189.9,125.4l-8.5-8.5 M189.4,125.5l8.5-8.5
		 M197.4,117.1l8.5,8.5 M205.3,125.7l8.5-8.5 M216.8,120.7c-1.1-1.1-2.3-2.3-3.4-3.4"/>
	<path class="st1" d="M61.4,136.6l8.5-8.5 M77.9,136.8l-8.5-8.5 M77.5,136.8l8.5-8.5 M94,136.9l-8.5-8.5 M101.9,128.4l-8.5,8.5
		 M110,137.1l-8.5-8.5 M109.4,137.2l8.5-8.5 M117.5,128.7l8.5,8.5 M125.4,137.4l8.5-8.5 M141.9,137.5l-8.5-8.5 M141.4,137.6l8.5-8.5
		 M157.9,137.7l-8.5-8.5 M157.3,137.8l8.5-8.5 M173.9,137.9l-8.5-8.5 M173.3,138l8.5-8.5 M189.8,138.1l-8.5-8.5 M189.3,138.2
		l8.5-8.5 M197.3,129.7l8.5,8.5 M205.3,138.4l8.5-8.5 M216.7,133.4c-1.1-1.1-2.3-2.3-3.4-3.4"/>
	<path class="st2" d="M61.9,149.8l8.5-8.5 M78.4,150l-8.5-8.5 M77.9,150l8.5-8.5 M94.5,150.1l-8.5-8.5 M102.4,141.6l-8.5,8.5
		 M110.4,150.3l-8.5-8.5 M109.9,150.4l8.5-8.5 M117.9,141.9l8.5,8.5 M125.9,150.6l8.5-8.5 M142.4,150.7l-8.5-8.5 M141.8,150.8
		l8.5-8.5 M158.4,150.9l-8.5-8.5 M157.8,151l8.5-8.5 M174.3,151.1l-8.5-8.5 M173.8,151.2l8.5-8.5 M190.3,151.3l-8.5-8.5
		 M189.8,151.4l8.5-8.5 M197.8,142.9l8.5,8.5 M205.7,151.5l8.5-8.5 M217.2,146.6c-1.1-1.1-2.3-2.3-3.4-3.4"/>
	<path class="st1" d="M61.7,162.4l8.5-8.2 M78.2,162.5l-8.5-8.2 M77.7,162.5l8.5-8.2 M94.3,162.7l-8.5-8.2 M102.2,154.5l-8.5,8.2
		 M110.2,162.9l-8.5-8.2 M109.7,162.9l8.5-8.2 M117.7,154.8l8.5,8.2 M125.7,163.1l8.5-8.2 M142.2,163.2l-8.5-8.2 M141.6,163.3
		l8.5-8.2 M158.2,163.4l-8.5-8.2 M157.6,163.5l8.5-8.2 M174.1,163.6l-8.5-8.2 M173.6,163.7l8.5-8.2 M190.1,163.8l-8.5-8.2
		 M189.6,163.9l8.5-8.2 M197.6,155.8l8.5,8.2 M205.5,164.1l8.5-8.2 M217,159.3c-1.1-1.1-2.3-2.2-3.4-3.3"/>
</g>
</svg>
