<?xml version="1.0" encoding="utf-8"?>
<!-- Generator: Adobe Illustrator 23.0.0, SVG Export Plug-In . SVG Version: 6.00 Build 0)  -->
<svg version="1.1" id="Layer_1" xmlns="http://www.w3.org/2000/svg" xmlns:xlink="http://www.w3.org/1999/xlink" x="0px" y="0px"
	 viewBox="0 0 344 114" style="enable-background:new 0 0 344 114;" xml:space="preserve">
<style type="text/css">
	.st0{fill:#FFFFFF;}
	.st1{fill:none;stroke:#B6A6A6;stroke-width:2;stroke-miterlimit:10;}
	.st2{fill:none;stroke:#D7CDCD;stroke-width:2;stroke-miterlimit:10;}
	.st3{fill:none;stroke:#999899;stroke-width:2;stroke-miterlimit:10;}
</style>
<rect x="0.4" y="0.7" class="st0" width="343.6" height="112.3"/>
<line class="st1" x1="18.5" y1="14.6" x2="46.4" y2="14.6"/>
<line class="st2" x1="13.5" y1="19.7" x2="37.7" y2="19.7"/>
<ellipse class="st3" cx="67.7" cy="16.4" rx="10.1" ry="8"/>
<line class="st1" x1="99.2" y1="14.9" x2="127.1" y2="14.9"/>
<line class="st2" x1="94.1" y1="20.1" x2="118.3" y2="20.1"/>
<ellipse class="st3" cx="148.4" cy="16.8" rx="10.1" ry="8"/>
<line class="st1" x1="179.8" y1="15.3" x2="207.7" y2="15.3"/>
<line class="st2" x1="174.8" y1="20.4" x2="199" y2="20.4"/>
<ellipse class="st3" cx="229" cy="17.1" rx="10.1" ry="8"/>
<line class="st1" x1="260.5" y1="15.6" x2="288.4" y2="15.6"/>
<line class="st2" x1="255.5" y1="20.8" x2="279.7" y2="20.8"/>
<ellipse class="st3" cx="309.7" cy="17.4" rx="10.1" ry="8"/>
<line class="st2" x1="17.5" y1="63.3" x2="45.4" y2="63.3"/>
<line class="st2" x1="12.5" y1="68.5" x2="36.7" y2="68.5"/>
<ellipse class="st3" cx="66.7" cy="65.1" rx="10.1" ry="8"/>
<line class="st1" x1="98.1" y1="63.7" x2="126" y2="63.7"/>
<line class="st2" x1="93.1" y1="68.8" x2="117.3" y2="68.8"/>
<ellipse class="st3" cx="147.3" cy="65.5" rx="10.1" ry="8"/>
<line class="st1" x1="178.8" y1="64" x2="206.7" y2="64"/>
<line class="st2" x1="173.8" y1="69.2" x2="198" y2="69.2"/>
<ellipse class="st3" cx="228" cy="65.8" rx="10.1" ry="8"/>
<line class="st1" x1="259.5" y1="64.4" x2="287.4" y2="64.4"/>
<line class="st2" x1="254.5" y1="69.5" x2="278.7" y2="69.5"/>
<ellipse class="st3" cx="308.7" cy="66.2" rx="10.1" ry="8"/>
<line class="st1" x1="301.8" y1="38.8" x2="329.7" y2="38.8"/>
<line class="st2" x1="296.8" y1="43.9" x2="321" y2="43.9"/>
<ellipse class="st3" cx="30" cy="40.2" rx="10.1" ry="8"/>
<line class="st1" x1="61.5" y1="38.8" x2="89.4" y2="38.8"/>
<line class="st2" x1="56.5" y1="43.9" x2="80.7" y2="43.9"/>
<ellipse class="st3" cx="110.7" cy="40.6" rx="10.1" ry="8"/>
<line class="st1" x1="142.2" y1="39.1" x2="170.1" y2="39.1"/>
<line class="st2" x1="137.2" y1="44.3" x2="161.4" y2="44.3"/>
<ellipse class="st3" cx="191.4" cy="40.9" rx="10.1" ry="8"/>
<line class="st2" x1="222.8" y1="39.5" x2="250.8" y2="39.5"/>
<line class="st2" x1="217.8" y1="44.6" x2="242" y2="44.6"/>
<ellipse class="st3" cx="272.1" cy="41.3" rx="10.1" ry="8"/>
<line class="st1" x1="301.3" y1="89.1" x2="329.2" y2="89.1"/>
<line class="st2" x1="296.3" y1="94.2" x2="320.5" y2="94.2"/>
<ellipse class="st3" cx="29.6" cy="90.5" rx="10.1" ry="8"/>
<line class="st1" x1="61.1" y1="89.1" x2="89" y2="89.1"/>
<line class="st2" x1="56.1" y1="94.2" x2="80.3" y2="94.2"/>
<ellipse class="st3" cx="110.3" cy="90.9" rx="10.1" ry="8"/>
<line class="st2" x1="141.7" y1="89.4" x2="169.6" y2="89.4"/>
<line class="st2" x1="136.7" y1="94.5" x2="160.9" y2="94.5"/>
<ellipse class="st3" cx="190.9" cy="91.2" rx="10.1" ry="8"/>
<line class="st1" x1="222.4" y1="89.7" x2="250.3" y2="89.7"/>
<line class="st2" x1="217.4" y1="94.9" x2="241.6" y2="94.9"/>
<ellipse class="st3" cx="271.6" cy="91.6" rx="10.1" ry="8"/>
</svg>
