<?xml version="1.0" encoding="utf-8"?>
<!-- Generator: Adobe Illustrator 22.1.0, SVG Export Plug-In . SVG Version: 6.00 Build 0)  -->
<svg version="1.1" id="Layer_1" xmlns="http://www.w3.org/2000/svg" xmlns:xlink="http://www.w3.org/1999/xlink" x="0px" y="0px"
	 viewBox="0 0 344 114" style="enable-background:new 0 0 344 114;" xml:space="preserve">
<style type="text/css">
	.st0{fill:#E0EEED;}
	.st1{fill:none;stroke:#ECC06D;stroke-width:0.8063;stroke-miterlimit:10;}
	.st2{fill:none;stroke:#D89A2F;stroke-width:0.8063;stroke-miterlimit:10;}
</style>
<g>
	<rect x="0.8" y="0.9" class="st0" width="343.2" height="113.1"/>
	<path class="st1" d="M2.8,20.3L21.4,5.3 M38.9,20.4L20.3,5.5 M37.8,20.4L56.4,5.5 M74,20.6L55.3,5.7 M91.5,5.7L72.9,20.6 M109,21
		L90.4,6 M107.9,21.1l18.6-14.9 M125.4,6.4L144,21.3 M142.9,21.5l18.6-14.9 M179.1,21.7L160.5,6.7 M177.8,21.8l18.6-14.9 M213.9,22
		L195.3,7.1 M212.8,22.2l18.6-14.9 M248.9,22.4L230.3,7.4 M247.9,22.5l18.6-14.9 M284,22.7L265.4,7.8 M282.9,22.9L301.5,8
		 M300.4,8.1L319,23.1 M317.7,23.2l18.6-14.9 M342.9,14.5c-2.4-1.9-5-4-7.4-6"/>
	<path class="st2" d="M2.3,42.9L20.9,28 M38.5,43.1L19.9,28.2 M37.4,43.1L56,28.2 M73.5,43.3L54.9,28.3 M91,28.5L72.4,43.4
		 M108.6,43.6L89.9,28.7 M107.5,43.8l18.6-14.9 M125,29L143.6,44 M142.5,44.1l18.6-14.9 M178.6,44.3L160,29.4 M177.3,44.5l18.6-14.9
		 M213.5,44.7l-18.6-14.9 M212.4,44.8L231,29.9 M248.5,45l-18.6-14.9 M247.4,45.2L266,30.3 M283.6,45.4l-18.6-14.9 M282.5,45.5
		l18.6-14.9 M300,30.8l18.6,14.9 M317.3,45.9L335.9,31 M342.5,37.1c-2.4-1.9-5-4-7.4-6"/>
	<path class="st1" d="M2.1,65l18.6-14.9 M38.3,65.4L19.6,50.5 M37.4,65.4L56,50.5 M73.5,65.5L54.9,50.6 M90.8,50.6L72.2,65.5
		 M108.6,65.9L89.9,51 M107.2,66.1l18.6-14.9 M125,51.2l18.6,14.9 M142.3,66.4l18.6-14.9 M178.4,66.6l-18.6-14.9 M177.3,66.8
		l18.6-14.9 M213.5,67L194.8,52 M212.2,67.1l18.6-14.9 M248.5,67.3l-18.6-14.9 M247.2,67.5l18.6-14.9 M283.3,67.7l-18.6-14.9
		 M282.2,67.8l18.6-14.9 M299.8,52.9l18.6,14.9 M317.3,68.2l18.6-14.9 M342.2,59.4c-2.4-1.9-5-4-7.4-6"/>
	<path class="st2" d="M3.2,88.2l18.6-14.9 M39.3,88.5L20.7,73.6 M38.3,88.5l18.6-14.9 M74.6,88.7L56,73.8 M91.9,73.8L73.3,88.7
		 M109.4,89.1L90.8,74.2 M108.3,89.2L127,74.3 M125.9,74.3l18.6,14.9 M143.4,89.6L162,74.7 M179.5,89.8l-18.6-14.9 M178.2,90
		L196.8,75 M214.6,90.1l-18.6-14.9 M213.2,90.3l18.6-14.9 M249.4,90.5l-18.6-14.9 M248.3,90.7l18.6-14.9 M284.4,90.8l-18.6-14.9
		 M283.3,91l18.6-14.9 M300.9,76.1L319.5,91 M318.2,91.2l18.6-14.9 M343.3,82.6c-2.4-1.9-5-4-7.4-6"/>
	<path class="st1" d="M2.8,110.3l18.6-14.4 M38.9,110.5L20.3,96.1 M37.8,110.5l18.6-14.4 M74.2,110.8L55.6,96.4 M91.5,96.4
		l-18.6,14.4 M109,111.2L90.4,96.8 M107.9,111.2l18.6-14.4 M125.4,97l18.6,14.4 M142.9,111.5l18.6-14.4 M179.1,111.7l-18.6-14.4
		 M177.8,111.9l18.6-14.4 M214.1,112.1l-18.6-14.4 M212.8,112.2l18.6-14.4 M248.9,112.4L230.3,98 M247.9,112.6l18.6-14.4 M284,112.8
		l-18.6-14.4 M282.9,112.9l18.6-14.4 M300.4,98.7l18.6,14.4 M317.7,113.3l18.6-14.4 M342.9,104.9c-2.4-1.9-5-3.9-7.4-5.8"/>
</g>
</svg>
