<?xml version="1.0" encoding="utf-8"?>
<!-- Generator: Adobe Illustrator 23.0.0, SVG Export Plug-In . SVG Version: 6.00 Build 0)  -->
<svg version="1.1" id="Layer_1" xmlns="http://www.w3.org/2000/svg" xmlns:xlink="http://www.w3.org/1999/xlink" x="0px" y="0px"
	 viewBox="0 0 344 114" style="enable-background:new 0 0 344 114;" xml:space="preserve">
<style type="text/css">
	.st0{fill:#EDEDEC;}
	.st1{fill:none;stroke:#B6A6A6;stroke-width:2;stroke-miterlimit:10;}
	.st2{fill:none;stroke:#D7CDCD;stroke-width:2;stroke-miterlimit:10;}
</style>
<rect x="0.3" y="0.4" class="st0" width="343.7" height="113.6"/>
<line class="st1" x1="11.5" y1="23.9" x2="29.5" y2="6.7"/>
<line class="st2" x1="13.3" y1="30.3" x2="28.9" y2="15.4"/>
<line class="st1" x1="51.9" y1="26.3" x2="30.8" y2="11.6"/>
<line class="st2" x1="59.9" y1="25" x2="41.6" y2="12.3"/>
<line class="st1" x1="11.1" y1="63.2" x2="29.1" y2="46"/>
<line class="st2" x1="12.8" y1="69.6" x2="28.4" y2="54.7"/>
<line class="st1" x1="51.5" y1="65.6" x2="30.4" y2="50.9"/>
<line class="st2" x1="59.5" y1="64.3" x2="41.2" y2="51.6"/>
<line class="st1" x1="10.7" y1="102.8" x2="28.7" y2="85.6"/>
<line class="st2" x1="12.4" y1="109.2" x2="28" y2="94.4"/>
<line class="st1" x1="51.1" y1="105.3" x2="29.9" y2="90.6"/>
<line class="st2" x1="59.1" y1="104" x2="40.8" y2="91.2"/>
<line class="st1" x1="78.7" y1="24.6" x2="96.7" y2="7.4"/>
<line class="st2" x1="80.4" y1="31" x2="96" y2="16.1"/>
<line class="st1" x1="119.1" y1="27" x2="98" y2="12.3"/>
<line class="st2" x1="127.1" y1="25.7" x2="108.8" y2="13"/>
<line class="st1" x1="78.3" y1="63.9" x2="96.3" y2="46.7"/>
<line class="st2" x1="80" y1="70.3" x2="95.6" y2="55.4"/>
<line class="st1" x1="118.7" y1="66.3" x2="97.6" y2="51.6"/>
<line class="st2" x1="126.7" y1="65" x2="108.4" y2="52.3"/>
<line class="st1" x1="77.8" y1="103.5" x2="95.8" y2="86.3"/>
<line class="st2" x1="79.6" y1="109.9" x2="95.2" y2="95.1"/>
<line class="st1" x1="118.2" y1="106" x2="97.1" y2="91.3"/>
<line class="st2" x1="126.2" y1="104.7" x2="107.9" y2="91.9"/>
<line class="st1" x1="145.9" y1="25.3" x2="163.9" y2="8.1"/>
<line class="st2" x1="147.6" y1="31.7" x2="163.2" y2="16.8"/>
<line class="st1" x1="186.3" y1="27.7" x2="165.2" y2="13"/>
<line class="st2" x1="194.3" y1="26.4" x2="176" y2="13.7"/>
<line class="st1" x1="145.4" y1="64.6" x2="163.4" y2="47.4"/>
<line class="st2" x1="147.2" y1="71" x2="162.8" y2="56.1"/>
<line class="st1" x1="185.8" y1="67" x2="164.7" y2="52.3"/>
<line class="st2" x1="193.9" y1="65.7" x2="175.6" y2="53"/>
<line class="st1" x1="145" y1="104.2" x2="163" y2="87"/>
<line class="st2" x1="146.7" y1="110.6" x2="162.3" y2="95.8"/>
<line class="st1" x1="185.4" y1="106.7" x2="164.3" y2="92"/>
<line class="st2" x1="193.4" y1="105.4" x2="175.1" y2="92.6"/>
<line class="st1" x1="213.1" y1="26" x2="231" y2="8.8"/>
<line class="st2" x1="214.8" y1="32.4" x2="230.4" y2="17.5"/>
<line class="st1" x1="253.4" y1="28.4" x2="232.3" y2="13.7"/>
<line class="st2" x1="261.5" y1="27.1" x2="243.2" y2="14.4"/>
<line class="st1" x1="212.6" y1="65.3" x2="230.6" y2="48.1"/>
<line class="st2" x1="214.3" y1="71.7" x2="229.9" y2="56.8"/>
<line class="st1" x1="253" y1="67.7" x2="231.9" y2="53"/>
<line class="st2" x1="261" y1="66.4" x2="242.7" y2="53.7"/>
<line class="st1" x1="212.2" y1="104.9" x2="230.2" y2="87.7"/>
<line class="st2" x1="213.9" y1="111.3" x2="229.5" y2="96.5"/>
<line class="st1" x1="252.6" y1="107.4" x2="231.5" y2="92.7"/>
<line class="st2" x1="260.6" y1="106.1" x2="242.3" y2="93.3"/>
<line class="st1" x1="280.2" y1="26.7" x2="298.2" y2="9.5"/>
<line class="st2" x1="281.9" y1="33.1" x2="297.5" y2="18.2"/>
<line class="st1" x1="320.6" y1="29.1" x2="299.5" y2="14.4"/>
<line class="st2" x1="328.6" y1="27.9" x2="310.3" y2="15.1"/>
<line class="st1" x1="279.8" y1="66" x2="297.8" y2="48.8"/>
<line class="st2" x1="281.5" y1="72.4" x2="297.1" y2="57.5"/>
<line class="st1" x1="320.2" y1="68.4" x2="299.1" y2="53.7"/>
<line class="st2" x1="328.2" y1="67.1" x2="309.9" y2="54.4"/>
<line class="st1" x1="279.4" y1="105.6" x2="297.3" y2="88.4"/>
<line class="st2" x1="281.1" y1="112" x2="296.7" y2="97.2"/>
<line class="st1" x1="319.7" y1="108.1" x2="298.6" y2="93.4"/>
<line class="st2" x1="327.8" y1="106.8" x2="309.5" y2="94"/>
</svg>
