<?xml version="1.0" encoding="utf-8"?>
<!-- Generator: Adobe Illustrator 22.1.0, SVG Export Plug-In . SVG Version: 6.00 Build 0)  -->
<svg version="1.1" id="Layer_1" xmlns="http://www.w3.org/2000/svg" xmlns:xlink="http://www.w3.org/1999/xlink" x="0px" y="0px"
	 viewBox="0 0 344 114" style="enable-background:new 0 0 344 114;" xml:space="preserve">
<style type="text/css">
	.st0{fill:#C8E0BF;}
	.st1{fill:none;stroke:#A6C795;stroke-width:0.7799;stroke-miterlimit:10;}
	.st2{fill:none;stroke:#8BA280;stroke-width:0.7799;stroke-miterlimit:10;}
</style>
<g>
	<rect class="st0" width="344" height="114"/>
	<path class="st1" d="M342.6,96.3c-8.9,10.4-18.8,9.5-29.3,0.5 M313.7,97.2c-10.7-9-20.4-9.9-29.3,0.5 M256.7,96.4
		c10.7,9,20.4,9.9,29.3-0.5 M257.2,96.8c-10.7-9-20.4-9.9-29.3,0.5 M200.2,96.1c10.7,9,20.4,9.9,29.3-0.5 M200.7,96.4
		c-10.7-9-20.4-9.9-29.3,0.5 M143.9,95.7c10.7,9,20.4,9.9,29.3-0.5 M144.3,96.1c-10.7-9-20.4-9.9-29.3,0.5 M87.4,95.3
		c10.7,9,20.4,9.9,29.3-0.5 M87.8,95.7c-10.7-9-20.4-9.9-29.3,0.5 M30.8,95c10.7,9,20.4,9.9,29.3-0.5 M31.3,95.3
		c-10.7-9-20.4-9.9-29.3,0.5"/>
	<path class="st2" d="M343,75c-8.9,10.4-18.8,9.5-29.5,0.5 M314.2,76c-10.7-9-20.4-9.9-29.5,0.5 M257,75c10.7,9,20.4,9.9,29.5-0.5
		 M257.4,75.4c-10.7-9-20.4-9.9-29.5,0.5 M200.2,74.7c10.7,9,20.4,9.9,29.5-0.5 M200.7,75c-10.7-9-20.4-9.9-29.5,0.5 M143.2,74.3
		c10.7,9,20.4,9.9,29.5-0.5 M143.9,74.7c-10.7-9-20.4-9.9-29.5,0.5 M86.4,73.9c10.7,9,20.4,9.9,29.5-0.5 M86.9,74.3
		c-10.7-9-20.4-9.9-29.5,0.5 M29.7,73.6c10.7,9,20.4,9.9,29.5-0.5 M30.1,73.9c-10.7-9-20.4-9.9-29.5,0.5"/>
	<path class="st1" d="M343,53.6c-8.9,10.4-18.8,9.5-29.5,0.5 M314.2,54.5c-10.7-9-20.4-9.9-29.5,0.5 M257,53.8
		c10.7,9,20.4,9.9,29.5-0.5 M257.4,54.2c-10.7-9-20.4-9.9-29.5,0.5 M200.2,53.4c10.7,9,20.4,9.9,29.5-0.5 M200.7,53.8
		c-10.7-9-20.4-9.9-29.5,0.5 M143.2,53.1c10.7,9,20.4,9.9,29.5-0.5 M143.9,53.4c-10.7-9-20.4-9.9-29.5,0.5 M86.4,52.5
		c10.7,9,20.4,9.9,29.5-0.5 M86.9,52.9c-10.7-9-20.4-9.9-29.5,0.5 M29.7,52.2c10.7,9,20.4,9.9,29.5-0.5 M30.1,52.5
		c-10.7-9-20.4-9.9-29.5,0.5"/>
	<path class="st2" d="M343.7,32.2c-8.9,10.4-18.8,9.5-29.5,0.5 M314.6,33.1c-10.7-9-20.7-9.9-29.5,0.5 M257.4,32.4
		c10.7,9,20.7,9.9,29.5-0.5 M257.9,32.8c-10.7-9-20.7-9.9-29.5,0.5 M200.4,32c10.7,9,20.7,9.9,29.5-0.5 M200.9,32.4
		c-10.7-9-20.7-9.9-29.5,0.5 M143.7,31.7c10.7,9,20.7,9.9,29.5-0.5 M144.1,32c-10.7-9-20.7-9.9-29.5,0.5 M86.7,31.3
		c10.7,9,20.7,9.9,29.5-0.5 M87.1,31.7c-10.7-9-20.7-9.9-29.5,0.5 M29.9,30.9c10.7,9,20.7,9.9,29.5-0.5 M30.4,31.3
		c-10.7-9-20.7-9.9-29.5,0.5"/>
	<path class="st1" d="M343,11c-8.9,10.4-18.8,9.5-29.5,0.5 M314.2,11.9c-10.7-9-20.4-9.9-29.5,0.5 M257,11c10.7,9,20.4,9.9,29.5-0.5
		 M257.4,11.4c-10.7-9-20.4-9.9-29.5,0.5 M200.2,10.6c10.7,9,20.4,9.9,29.5-0.5 M200.7,11c-10.7-9-20.4-9.9-29.5,0.5 M143.2,10.3
		c10.7,9,20.4,9.9,29.5-0.5 M143.9,10.6c-10.7-9-20.4-9.9-29.5,0.5 M86.4,9.9c10.7,9,20.4,9.9,29.5-0.5 M86.9,10.3
		c-10.7-9-20.4-9.9-29.5,0.5 M29.7,9.5c10.7,9,20.4,9.9,29.5-0.5 M30.1,9.9C19.5,0.9,9.7,0,0.6,10.4"/>
</g>
</svg>
