<?xml version="1.0" encoding="utf-8"?>
<!-- Generator: Adobe Illustrator 22.1.0, SVG Export Plug-In . SVG Version: 6.00 Build 0)  -->
<svg version="1.1" id="Layer_1" xmlns="http://www.w3.org/2000/svg" xmlns:xlink="http://www.w3.org/1999/xlink" x="0px" y="0px"
	 viewBox="0 0 344 114" style="enable-background:new 0 0 344 114;" xml:space="preserve">
<style type="text/css">
	.st0{fill:#8E1E23;}
	.st1{fill:#E2211A;}
	.st2{fill:#EFD925;}
</style>
<g>
	<rect x="-0.4" y="0" class="st0" width="344.4" height="114"/>
	<path class="st1" d="M11,27.3c-0.4,0-0.9-0.2-1.1-0.3c-2.6-1.6-3.2-3.5-1.5-5.5c1.5-1.9,0-3.5-1.5-5c1.9,0,3.9,0.2,4.5,2.1
		c0-4,1.1-7.4,4.9-9.7c-0.9,1.9-1.1,3.8-0.2,5.4c4.1,6,4.7,6.6,3.6,10.5c-0.2,1-1.1,1.9-2.1,2.4C15.1,28.3,14.9,27.9,11,27.3z"/>
	<path class="st2" d="M15.1,26c-0.2,0-1.1-0.2-1.9-0.3c-0.4,0-0.9-0.2-1.3-0.3l0,0c-1.7-1-1.3-1-0.9-2.1l0.2-0.5l0,0
		c0.2-1.6-0.6-2.4-0.9-3.5l2.1,1.9c0-0.7,1.7-5,1.7-5.7c3.2,4.8,3.6,6,3,9.2c0,0.3-0.4,0.7-0.9,0.9C15.5,26,15.3,26,15.1,26z"/>
	<path class="st1" d="M41.7,27.1c-0.4,0-0.9-0.2-1.1-0.3c-2.6-1.6-3.2-3.5-1.5-5.5c1.5-1.9,0-3.5-1.5-5c1.9,0,3.9,0.2,4.5,2.1
		c0-4,1.1-7.4,4.9-9.7c-0.9,1.9-1.1,3.8-0.2,5.4c4.1,6,4.7,6.6,3.6,10.5c-0.2,1-1.1,1.9-2.1,2.4C45.8,28.1,45.6,27.9,41.7,27.1z"/>
	<path class="st2" d="M45.8,25.9c-0.2,0-1.1-0.2-1.9-0.3c-0.4,0-0.9-0.2-1.3-0.3l0,0c-1.7-1-1.3-1-0.9-2.1l0.2-0.5l0,0
		c0.2-1.6-0.6-2.4-0.9-3.5l2.1,1.9c0-0.7,1.7-5,1.7-5.7c3.2,4.8,3.6,6,3,9.2c0,0.3-0.4,0.7-0.9,0.9C46.2,25.9,46,25.9,45.8,25.9z"/>
	<path class="st1" d="M72.4,27.1c-0.4,0-0.9-0.2-1.1-0.3c-2.6-1.6-3.2-3.5-1.5-5.5c1.5-1.9,0-3.5-1.5-5c1.9,0,3.9,0.2,4.5,2.1
		c0-4,1.1-7.4,4.9-9.7c-0.9,1.9-1.1,3.8-0.2,5.4c4.1,6,4.7,6.6,3.6,10.5c-0.2,1-1.1,1.9-2.1,2.4C76.5,28.1,76.3,27.8,72.4,27.1z"/>
	<path class="st2" d="M76.5,25.9c-0.2,0-1.1-0.2-1.9-0.3c-0.4,0-0.9-0.2-1.3-0.3l0,0c-1.7-1-1.3-1-0.9-2.1l0.2-0.5l0,0
		c0.2-1.6-0.6-2.4-0.9-3.5l2.1,1.9c0-0.7,1.7-5,1.7-5.7c3.2,4.8,3.6,6,3,9.2c0,0.3-0.4,0.7-0.9,0.9C76.9,25.7,76.5,25.9,76.5,25.9z"
		/>
	<path class="st1" d="M102.9,26.9c-0.4,0-0.9-0.2-1.1-0.3c-2.6-1.6-3.2-3.5-1.5-5.5c1.5-1.9,0-3.5-1.5-5c1.9,0,3.9,0.2,4.5,2.1
		c0-4,1.1-7.4,4.9-9.7c-0.9,1.9-1.1,3.8-0.2,5.4c4.1,6,4.7,6.6,3.6,10.5c-0.2,1-1.1,1.9-2.1,2.4C107,27.9,107,27.8,102.9,26.9z"/>
	<path class="st2" d="M107.2,25.7c-0.2,0-1.1-0.2-1.9-0.3c-0.4,0-0.9-0.2-1.3-0.3l0,0c-1.7-1-1.3-1-0.9-2.1l0.2-0.5l0,0
		c0.2-1.6-0.6-2.4-0.9-3.5l2.1,1.9c0-0.7,1.7-5,1.7-5.7c3.2,4.8,3.6,6,3,9.2c0,0.3-0.4,0.7-0.9,0.9
		C107.4,25.7,107.2,25.7,107.2,25.7z"/>
	<path class="st1" d="M133.6,26.9c-0.4,0-0.9-0.2-1.1-0.3c-2.6-1.6-3.2-3.5-1.5-5.5c1.5-1.9,0-3.5-1.5-5c1.9,0,3.9,0.2,4.5,2.1
		c0-4,1.1-7.4,4.9-9.7c-0.9,1.9-1.1,3.8-0.2,5.4c4.1,6,4.7,6.6,3.6,10.5c-0.2,1-1.1,1.9-2.1,2.4C137.7,27.9,137.7,27.6,133.6,26.9z"
		/>
	<path class="st2" d="M137.9,25.7c-0.2,0-1.1-0.2-1.9-0.3c-0.4,0-0.9-0.2-1.3-0.3l0,0c-1.7-1-1.3-1-0.9-2.1l0.2-0.5l0,0
		c0.2-1.6-0.6-2.4-0.9-3.5l2.1,1.9c0-0.7,1.7-5,1.7-5.7c3.2,4.8,3.6,6,3,9.2c0,0.3-0.4,0.7-0.9,0.9
		C138.1,25.5,137.9,25.7,137.9,25.7z"/>
	<path class="st1" d="M164.3,26.7c-0.4,0-0.9-0.2-1.1-0.3c-2.6-1.6-3.2-3.5-1.5-5.5c1.5-1.9,0-3.5-1.5-5c1.9,0,3.9,0.2,4.5,2.1
		c0-4,1.1-7.4,4.9-9.7c-0.9,1.9-1.1,3.8-0.2,5.4c4.1,6,4.7,6.6,3.6,10.5c-0.2,1-1.1,1.9-2.1,2.4C168.4,27.8,168.4,27.4,164.3,26.7z"
		/>
	<path class="st2" d="M168.6,25.5c-0.2,0-1.1-0.2-1.9-0.3c-0.4,0-0.9-0.2-1.3-0.3l0,0c-1.7-1-1.3-1-0.9-2.1l0.2-0.5l0,0
		c0.2-1.6-0.6-2.4-0.9-3.5l2.1,1.9c0-0.7,1.7-5,1.7-5.7c3.2,4.8,3.6,6,3,9.2c0,0.3-0.4,0.7-0.9,0.9
		C168.8,25.5,168.6,25.5,168.6,25.5z"/>
	<path class="st1" d="M195,26.6c-0.4,0-0.9-0.2-1.1-0.3c-2.6-1.6-3.2-3.5-1.5-5.5c1.5-1.9,0-3.5-1.5-5c1.9,0,3.9,0.2,4.5,2.1
		c0-4,1.1-7.4,4.9-9.7c-0.9,1.9-1.1,3.8-0.2,5.4c4.1,6,4.7,6.6,3.6,10.5c-0.2,1-1.1,1.9-2.1,2.4C199.1,27.6,198.9,27.4,195,26.6z"/>
	<path class="st2" d="M199.3,25.4c-0.2,0-1.1-0.2-1.9-0.3c-0.4,0-0.9-0.2-1.3-0.3l0,0c-1.7-1-1.3-1-0.9-2.1l0.2-0.5l0,0
		c0.2-1.6-0.6-2.4-0.9-3.5l2.1,1.9c0-0.7,1.7-5,1.7-5.7c3.2,4.8,3.6,6,3,9.2c0,0.3-0.4,0.7-0.9,0.9
		C199.5,25.4,199.3,25.4,199.3,25.4z"/>
	<path class="st1" d="M225.7,26.6c-0.4,0-0.9-0.2-1.1-0.3c-2.6-1.6-3.2-3.5-1.5-5.5c1.5-1.9,0-3.5-1.5-5c1.9,0,3.9,0.2,4.5,2.1
		c0-4,1.1-7.4,4.9-9.7c-0.9,1.9-1.1,3.8-0.2,5.4c4.1,6,4.7,6.6,3.6,10.5c-0.2,1-1.1,1.9-2.1,2.4C229.8,27.6,229.6,27.3,225.7,26.6z"
		/>
	<path class="st2" d="M230,25.4c-0.2,0-1.1-0.2-1.9-0.3c-0.4,0-0.9-0.2-1.3-0.3l0,0c-1.7-1-1.3-1-0.9-2.1l0.2-0.5l0,0
		c0.2-1.6-0.6-2.4-0.9-3.5l2.1,1.9c0-0.7,1.7-5,1.7-5.7c3.2,4.8,3.6,6,3,9.2c0,0.3-0.4,0.7-0.9,0.9C230.2,25.4,230,25.4,230,25.4z"
		/>
	<path class="st1" d="M256.4,26.4c-0.4,0-0.9-0.2-1.1-0.3c-2.6-1.6-3.2-3.5-1.5-5.5c1.5-1.9,0-3.5-1.5-5c1.9,0,3.9,0.2,4.5,2.1
		c0-4,1.1-7.4,4.9-9.7c-0.9,1.9-1.1,3.8-0.2,5.4c4.1,6,4.7,6.6,3.6,10.5c-0.2,1-1.1,1.9-2.1,2.4C260.5,27.4,260.3,27.3,256.4,26.4z"
		/>
	<path class="st2" d="M260.5,25.2c-0.2,0-1.1-0.2-1.9-0.3c-0.4,0-0.9-0.2-1.3-0.3l0,0c-1.7-1-1.3-1-0.9-2.1l0.2-0.5l0,0
		c0.2-1.6-0.6-2.4-0.9-3.5l2.1,1.9c0-0.7,1.7-5,1.7-5.7c3.2,4.8,3.6,6,3,9.2c0,0.3-0.4,0.7-0.9,0.9
		C260.9,25.2,260.7,25.2,260.5,25.2z"/>
	<path class="st1" d="M287.1,26.4c-0.4,0-0.9-0.2-1.1-0.3c-2.6-1.6-3.2-3.5-1.5-5.5c1.5-1.9,0-3.5-1.5-5c1.9,0,3.9,0.2,4.5,2.1
		c0-4,1.1-7.4,4.9-9.7c-0.9,1.9-1.1,3.8-0.2,5.4c4.1,6,4.7,6.6,3.6,10.5c-0.2,1-1.1,1.9-2.1,2.4C291.2,27.4,291,27.1,287.1,26.4z"/>
	<path class="st2" d="M291.2,25.2c-0.2,0-1.1-0.2-1.9-0.3c-0.4,0-0.9-0.2-1.3-0.3l0,0c-1.7-1-1.3-1-0.9-2.1l0.2-0.5l0,0
		c0.2-1.6-0.6-2.4-0.9-3.5l2.1,1.9c0-0.7,1.7-5,1.7-5.7c3.2,4.8,3.6,6,3,9.2c0,0.3-0.4,0.7-0.9,0.9C291.6,25,291.4,25.2,291.2,25.2z
		"/>
	<path class="st1" d="M317.8,26.2c-0.4,0-0.9-0.2-1.1-0.3c-2.6-1.6-3.2-3.5-1.5-5.5c1.5-1.9,0-3.5-1.5-5c1.9,0,3.9,0.2,4.5,2.1
		c0-4,1.1-7.4,4.9-9.7c-0.9,1.9-1.1,3.8-0.2,5.4c4.1,6,4.7,6.6,3.6,10.5c-0.2,1-1.1,1.9-2.1,2.4C321.9,27.3,321.7,27.1,317.8,26.2z"
		/>
	<path class="st2" d="M321.9,25c-0.2,0-1.1-0.2-1.9-0.3c-0.4,0-0.9-0.2-1.3-0.3l0,0c-1.7-1-1.3-1-0.9-2.1l0.2-0.5l0,0
		c0.2-1.6-0.6-2.4-0.9-3.5l2.1,1.9c0-0.7,1.7-5,1.7-5.7c3.2,4.8,3.6,6,3,9.2c0,0.3-0.4,0.7-0.9,0.9C322.3,25,321.9,25,321.9,25z"/>
	<path class="st1" d="M25.4,63.9c-0.4,0-0.9-0.2-1.1-0.3c-2.6-1.6-3.2-3.5-1.5-5.5c1.5-1.9,0-3.5-1.5-5c1.9,0,3.9,0.2,4.5,2.1
		c0-4,1.1-7.4,4.9-9.7c-0.9,1.9-1.1,3.8-0.2,5.4c4.1,6,4.7,6.6,3.6,10.5c-0.2,1-1.1,1.9-2.1,2.4C29.5,64.9,29.2,64.6,25.4,63.9z"/>
	<path class="st2" d="M29.7,62.7c-0.2,0-1.1-0.2-1.9-0.3c-0.4,0-0.9-0.2-1.3-0.3l0,0c-1.7-1-1.3-1-0.9-2.1l0.2-0.5l0,0
		c0.2-1.6-0.6-2.4-0.9-3.5l2.1,1.9c0-0.7,1.7-5,1.7-5.7c3.2,4.8,3.6,6,3,9.2c0,0.3-0.4,0.7-0.9,0.9C29.9,62.5,29.7,62.7,29.7,62.7z"
		/>
	<path class="st1" d="M56.1,63.7c-0.4,0-0.9-0.2-1.1-0.3c-2.6-1.6-3.2-3.5-1.5-5.5c1.5-1.9,0-3.5-1.5-5c1.9,0,3.9,0.2,4.5,2.1
		c0-4,1.1-7.4,4.9-9.7c-0.9,1.9-1.1,3.8-0.2,5.4c4.1,6,4.7,6.6,3.6,10.5c-0.2,1-1.1,1.9-2.1,2.4C60.2,64.8,59.9,64.4,56.1,63.7z"/>
	<path class="st2" d="M60.2,62.5c-0.2,0-1.1-0.2-1.9-0.3c-0.4,0-0.9-0.2-1.3-0.3l0,0c-1.7-1-1.3-1-0.9-2.1l0.2-0.5l0,0
		c0.2-1.6-0.6-2.4-0.9-3.5l2.1,1.9c0-0.7,1.7-5,1.7-5.7c3.2,4.8,3.6,6,3,9.2c0,0.3-0.4,0.7-0.9,0.9C60.6,62.5,60.4,62.5,60.2,62.5z"
		/>
	<path class="st1" d="M86.8,63.5c-0.4,0-0.9-0.2-1.1-0.3c-2.6-1.6-3.2-3.5-1.5-5.5c1.5-1.9,0-3.5-1.5-5c1.9,0,3.9,0.2,4.5,2.1
		c0-4,1.1-7.4,4.9-9.7c-0.9,1.9-1.1,3.8-0.2,5.4c4.1,6,4.7,6.6,3.6,10.5c-0.2,1-1.1,1.9-2.1,2.4C90.9,64.6,90.7,64.4,86.8,63.5z"/>
	<path class="st2" d="M90.9,62.3c-0.2,0-1.1-0.2-1.9-0.3c-0.4,0-0.9-0.2-1.3-0.3l0,0c-1.7-1-1.3-1-0.9-2.1L87,59l0,0
		c0.2-1.6-0.6-2.4-0.9-3.5l2.1,1.9c0-0.7,1.7-5,1.7-5.7c3.2,4.8,3.6,6,3,9.2c0,0.3-0.4,0.7-0.9,0.9C91.3,62.3,91.1,62.3,90.9,62.3z"
		/>
	<path class="st1" d="M117.5,63.5c-0.4,0-0.9-0.2-1.1-0.3c-2.6-1.6-3.2-3.5-1.5-5.5c1.5-1.9,0-3.5-1.5-5c1.9,0,3.9,0.2,4.5,2.1
		c0-4,1.1-7.4,4.9-9.7c-0.9,1.9-1.1,3.8-0.2,5.4c4.1,6,4.7,6.6,3.6,10.5c-0.2,1-1.1,1.9-2.1,2.4C121.6,64.6,121.4,64.2,117.5,63.5z"
		/>
	<path class="st2" d="M121.6,62.3c-0.2,0-1.1-0.2-1.9-0.3c-0.4,0-0.9-0.2-1.3-0.3l0,0c-1.7-1-1.3-1-0.9-2.1l0.2-0.5l0,0
		c0.2-1.6-0.6-2.4-0.9-3.5l2.1,1.9c0-0.7,1.7-5,1.7-5.7c3.2,4.8,3.6,6,3,9.2c0,0.3-0.4,0.7-0.9,0.9C122,62.3,121.6,62.3,121.6,62.3z
		"/>
	<path class="st1" d="M148.2,63.4c-0.4,0-0.9-0.2-1.1-0.3c-2.6-1.6-3.2-3.5-1.5-5.5c1.5-1.9,0-3.5-1.5-5c1.9,0,3.9,0.2,4.5,2.1
		c0-4,1.1-7.4,4.9-9.7c-0.9,1.9-1.1,3.8-0.2,5.4c4.1,6,4.7,6.6,3.6,10.5c-0.2,1-1.1,1.9-2.1,2.4C152.3,64.4,152.1,64.2,148.2,63.4z"
		/>
	<path class="st2" d="M152.3,62.2c-0.2,0-1.1-0.2-1.9-0.3c-0.4,0-0.9-0.2-1.3-0.3l0,0c-1.7-1-1.3-1-0.9-2.1l0.2-0.5l0,0
		c0.2-1.6-0.6-2.4-0.9-3.5l2.1,1.9c0-0.7,1.7-5,1.7-5.7c3.2,4.8,3.6,6,3,9.2c0,0.3-0.4,0.7-0.9,0.9
		C152.5,62.2,152.3,62.2,152.3,62.2z"/>
	<path class="st1" d="M178.7,63.4c-0.4,0-0.9-0.2-1.1-0.3c-2.6-1.6-3.2-3.5-1.5-5.5c1.5-1.9,0-3.5-1.5-5c1.9,0,3.9,0.2,4.5,2.1
		c0-4,1.1-7.4,4.9-9.7c-0.9,1.9-1.1,3.8-0.2,5.4c4.1,6,4.7,6.6,3.6,10.5c-0.2,1-1.1,1.9-2.1,2.4C182.8,64.4,182.8,64.1,178.7,63.4z"
		/>
	<path class="st2" d="M183,62.2c-0.2,0-1.1-0.2-1.9-0.3c-0.4,0-0.9-0.2-1.3-0.3l0,0c-1.7-1-1.3-1-0.9-2.1l0.2-0.5l0,0
		c0.2-1.6-0.6-2.4-0.9-3.5l2.1,1.9c0-0.7,1.7-5,1.7-5.7c3.2,4.8,3.6,6,3,9.2c0,0.3-0.4,0.7-0.9,0.9C183.2,62,183,62.2,183,62.2z"/>
	<path class="st1" d="M209.4,63.2c-0.4,0-0.9-0.2-1.1-0.3c-2.6-1.6-3.2-3.5-1.5-5.5c1.5-1.9,0-3.5-1.5-5c1.9,0,3.9,0.2,4.5,2.1
		c0-4,1.1-7.4,4.9-9.7c-0.9,1.9-1.1,3.8-0.2,5.4c4.1,6,4.7,6.6,3.6,10.5c-0.2,1-1.1,1.9-2.1,2.4C213.5,64.2,213.5,64.1,209.4,63.2z"
		/>
	<path class="st2" d="M213.7,62c-0.2,0-1.1-0.2-1.9-0.3c-0.4,0-0.9-0.2-1.3-0.3l0,0c-1.7-1-1.3-1-0.9-2.1l0.2-0.5l0,0
		c0.2-1.6-0.6-2.4-0.9-3.5l2.1,1.9c0-0.7,1.7-5,1.7-5.7c3.2,4.8,3.6,6,3,9.2c0,0.3-0.4,0.7-0.9,0.9C213.9,62,213.7,62,213.7,62z"/>
	<path class="st1" d="M240.1,63.2c-0.4,0-0.9-0.2-1.1-0.3c-2.6-1.6-3.2-3.5-1.5-5.5c1.5-1.9,0-3.5-1.5-5c1.9,0,3.9,0.2,4.5,2.1
		c0-4,1.1-7.4,4.9-9.7c-0.9,1.9-1.1,3.8-0.2,5.4c4.1,6,4.7,6.6,3.6,10.5c-0.2,1-1.1,1.9-2.1,2.4C244.2,64.2,243.9,63.9,240.1,63.2z"
		/>
	<path class="st2" d="M244.4,62c-0.2,0-1.1-0.2-1.9-0.3c-0.4,0-0.9-0.2-1.3-0.3l0,0c-1.7-1-1.3-1-0.9-2.1l0.2-0.5l0,0
		c0.2-1.6-0.6-2.4-0.9-3.5l2.1,1.9c0-0.7,1.7-5,1.7-5.7c3.2,4.8,3.6,6,3,9.2c0,0.3-0.4,0.7-0.9,0.9C244.6,61.8,244.4,62,244.4,62z"
		/>
	<path class="st1" d="M270.8,63c-0.4,0-0.9-0.2-1.1-0.3c-2.6-1.6-3.2-3.5-1.5-5.5c1.5-1.9,0-3.5-1.5-5c1.9,0,3.9,0.2,4.5,2.1
		c0-4,1.1-7.4,4.9-9.7c-0.9,1.9-1.1,3.8-0.2,5.4c4.1,6,4.7,6.6,3.6,10.5c-0.2,1-1.1,1.9-2.1,2.4C274.9,64.1,274.7,63.7,270.8,63z"/>
	<path class="st2" d="M275.1,61.8c-0.2,0-1.1-0.2-1.9-0.3c-0.4,0-0.9-0.2-1.3-0.3l0,0c-1.7-1-1.3-1-0.9-2.1l0.2-0.5l0,0
		c0.2-1.6-0.6-2.4-0.9-3.5l2.1,1.9c0-0.7,1.7-5,1.7-5.7c3.2,4.8,3.6,6,3,9.2c0,0.3-0.4,0.7-0.9,0.9
		C275.3,61.8,275.1,61.8,275.1,61.8z"/>
	<path class="st1" d="M301.5,62.9c-0.4,0-0.9-0.2-1.1-0.3c-2.6-1.6-3.2-3.5-1.5-5.5c1.5-1.9,0-3.5-1.5-5c1.9,0,3.9,0.2,4.5,2.1
		c0-4,1.1-7.4,4.9-9.7c-0.9,1.9-1.1,3.8-0.2,5.4c4.1,6,4.7,6.6,3.6,10.5c-0.2,1-1.1,1.9-2.1,2.4C305.6,63.9,305.4,63.7,301.5,62.9z"
		/>
	<path class="st2" d="M305.6,61.6c-0.2,0-1.1-0.2-1.9-0.3c-0.4,0-0.9-0.2-1.3-0.3l0,0c-1.7-1-1.3-1-0.9-2.1l0.2-0.5l0,0
		c0.2-1.6-0.6-2.4-0.9-3.5l2.1,1.9c0-0.7,1.7-5,1.7-5.7c3.2,4.8,3.6,6,3,9.2c0,0.3-0.4,0.7-0.9,0.9C306,61.6,305.8,61.6,305.6,61.6z
		"/>
	<path class="st1" d="M332.2,62.9c-0.4,0-0.9-0.2-1.1-0.3c-2.6-1.6-3.2-3.5-1.5-5.5c1.5-1.9,0-3.5-1.5-5c1.9,0,3.9,0.2,4.5,2.1
		c0-4,1.1-7.4,4.9-9.7c-0.9,1.9-1.1,3.8-0.2,5.4c4.1,6,4.7,6.6,3.6,10.5c-0.2,1-1.1,1.9-2.1,2.4C336.3,63.9,336.1,63.5,332.2,62.9z"
		/>
	<path class="st2" d="M336.3,61.6c-0.2,0-1.1-0.2-1.9-0.3c-0.4,0-0.9-0.2-1.3-0.3l0,0c-1.7-1-1.3-1-0.9-2.1l0.2-0.5l0,0
		c0.2-1.6-0.6-2.4-0.9-3.5l2.1,1.9c0-0.7,1.7-5,1.7-5.7c3.2,4.8,3.6,6,3,9.2c0,0.3-0.4,0.7-0.9,0.9
		C336.7,61.6,336.5,61.6,336.3,61.6z"/>
	<path class="st1" d="M13.1,98.6c-0.4,0-0.9-0.2-1.1-0.3c-2.6-1.6-3.2-3.5-1.5-5.5c1.5-1.9,0-3.5-1.5-5c1.9,0,3.9,0.2,4.5,2.1
		c0-4,1.1-7.4,4.9-9.7c-0.9,1.9-1.1,3.8-0.2,5.4c4.1,6,4.7,6.6,3.6,10.5c-0.2,1-1.1,1.9-2.1,2.4C17.2,99.7,17,99.5,13.1,98.6z"/>
	<path class="st2" d="M17.4,97.4c-0.2,0-1.1-0.2-1.9-0.3c-0.4,0-0.9-0.2-1.3-0.3l0,0c-1.7-1-1.3-1-0.9-2.1l0.2-0.5l0,0
		c0.2-1.6-0.6-2.4-0.9-3.5l2.1,1.9c0-0.7,1.7-5,1.7-5.7c3.2,4.8,3.6,6,3,9.2c0,0.3-0.4,0.7-0.9,0.9C17.7,97.4,17.4,97.4,17.4,97.4z"
		/>
	<path class="st1" d="M43.8,98.6c-0.4,0-0.9-0.2-1.1-0.3c-2.6-1.6-3.2-3.5-1.5-5.5c1.5-1.9,0-3.5-1.5-5c1.9,0,3.9,0.2,4.5,2.1
		c0-4,1.1-7.4,4.9-9.7c-0.9,1.9-1.1,3.8-0.2,5.4c4.1,6,4.7,6.6,3.6,10.5c-0.2,1-1.1,1.9-2.1,2.4C47.9,99.7,47.7,99.3,43.8,98.6z"/>
	<path class="st2" d="M47.9,97.4c-0.2,0-1.1-0.2-1.9-0.3c-0.4,0-0.9-0.2-1.3-0.3l0,0c-1.7-1-1.3-1-0.9-2.1l0.2-0.5l0,0
		c0.2-1.6-0.6-2.4-0.9-3.5l2.1,1.9c0-0.7,1.7-5,1.7-5.7c3.2,4.8,3.6,6,3,9.2c0,0.3-0.4,0.7-0.9,0.9C48.4,97.2,48.1,97.4,47.9,97.4z"
		/>
	<path class="st1" d="M74.5,98.4c-0.4,0-0.9-0.2-1.1-0.3c-2.6-1.6-3.2-3.5-1.5-5.5c1.5-1.9,0-3.5-1.5-5c1.9,0,3.9,0.2,4.5,2.1
		c0-4,1.1-7.4,4.9-9.7c-0.9,1.9-1.1,3.8-0.2,5.4c4.1,6,4.7,6.6,3.6,10.5c-0.2,1-1.1,1.9-2.1,2.4C78.6,99.5,78.4,99.1,74.5,98.4z"/>
	<path class="st2" d="M78.6,97.2c-0.2,0-1.1-0.2-1.9-0.3c-0.4,0-0.9-0.2-1.3-0.3l0,0c-1.7-1-1.3-1-0.9-2.1l0.2-0.5l0,0
		c0.2-1.6-0.6-2.4-0.9-3.5l2.1,1.9c0-0.7,1.7-5,1.7-5.7c3.2,4.8,3.6,6,3,9.2c0,0.3-0.4,0.7-0.9,0.9C79.1,97.2,78.8,97.2,78.6,97.2z"
		/>
	<path class="st1" d="M105.3,98.3c-0.4,0-0.9-0.2-1.1-0.3c-2.6-1.6-3.2-3.5-1.5-5.5c1.5-1.9,0-3.5-1.5-5c1.9,0,3.9,0.2,4.5,2.1
		c0-4,1.1-7.4,4.9-9.7c-0.9,1.9-1.1,3.8-0.2,5.4c4.1,6,4.7,6.6,3.6,10.5c-0.2,1-1.1,1.9-2.1,2.4C109.3,99.3,109.1,99.1,105.3,98.3z"
		/>
	<path class="st2" d="M109.3,97.1c-0.2,0-1.1-0.2-1.9-0.3c-0.4,0-0.9-0.2-1.3-0.3l0,0c-1.7-1-1.3-1-0.9-2.1l0.2-0.5l0,0
		c0.2-1.6-0.6-2.4-0.9-3.5l2.1,1.9c0-0.7,1.7-5,1.7-5.7c3.2,4.8,3.6,6,3,9.2c0,0.3-0.4,0.7-0.9,0.9
		C109.8,97.1,109.3,97.1,109.3,97.1z"/>
	<path class="st1" d="M136,98.3c-0.4,0-0.9-0.2-1.1-0.3c-2.6-1.6-3.2-3.5-1.5-5.5c1.5-1.9,0-3.5-1.5-5c1.9,0,3.9,0.2,4.5,2.1
		c0-4,1.1-7.4,4.9-9.7c-0.9,1.9-1.1,3.8-0.2,5.4c4.1,6,4.7,6.6,3.6,10.5c-0.2,1-1.1,1.9-2.1,2.4C139.8,99.3,139.8,99,136,98.3z"/>
	<path class="st2" d="M140,97.1c-0.2,0-1.1-0.2-1.9-0.3c-0.4,0-0.9-0.2-1.3-0.3l0,0c-1.7-1-1.3-1-0.9-2.1l0.2-0.5l0,0
		c0.2-1.6-0.6-2.4-0.9-3.5l2.1,1.9c0-0.7,1.7-5,1.7-5.7c3.2,4.8,3.6,6,3,9.2c0,0.3-0.4,0.7-0.9,0.9C140.2,97.1,140,97.1,140,97.1z"
		/>
	<path class="st1" d="M166.4,98.1c-0.4,0-0.9-0.2-1.1-0.3c-2.6-1.6-3.2-3.5-1.5-5.5c1.5-1.9,0-3.5-1.5-5c1.9,0,3.9,0.2,4.5,2.1
		c0-4,1.1-7.4,4.9-9.7c-0.9,1.9-1.1,3.8-0.2,5.4c4.1,6,4.7,6.6,3.6,10.5c-0.2,1-1.1,1.9-2.1,2.4C170.5,99.1,170.5,99,166.4,98.1z"/>
	<path class="st2" d="M170.7,96.9c-0.2,0-1.1-0.2-1.9-0.3c-0.4,0-0.9-0.2-1.3-0.3l0,0c-1.7-1-1.3-1-0.9-2.1l0.2-0.5l0,0
		c0.2-1.6-0.6-2.4-0.9-3.5l2.1,1.9c0-0.7,1.7-5,1.7-5.7c3.2,4.8,3.6,6,3,9.2c0,0.3-0.4,0.7-0.9,0.9C171,96.9,170.7,96.9,170.7,96.9z
		"/>
	<path class="st1" d="M197.1,98.1c-0.4,0-0.9-0.2-1.1-0.3c-2.6-1.6-3.2-3.5-1.5-5.5c1.5-1.9,0-3.5-1.5-5c1.9,0,3.9,0.2,4.5,2.1
		c0-4,1.1-7.4,4.9-9.7c-0.9,1.9-1.1,3.8-0.2,5.4c4.1,6,4.7,6.6,3.6,10.5c-0.2,1-1.1,1.9-2.1,2.4C201.2,99.1,201.2,98.8,197.1,98.1z"
		/>
	<path class="st2" d="M201.4,96.9c-0.2,0-1.1-0.2-1.9-0.3c-0.4,0-0.9-0.2-1.3-0.3l0,0c-1.7-1-1.3-1-0.9-2.1l0.2-0.5l0,0
		c0.2-1.6-0.6-2.4-0.9-3.5l2.1,1.9c0-0.7,1.7-5,1.7-5.7c3.2,4.8,3.6,6,3,9.2c0,0.3-0.4,0.7-0.9,0.9
		C201.7,96.7,201.4,96.9,201.4,96.9z"/>
	<path class="st1" d="M227.8,97.9c-0.4,0-0.9-0.2-1.1-0.3c-2.6-1.6-3.2-3.5-1.5-5.5c1.5-1.9,0-3.5-1.5-5c1.9,0,3.9,0.2,4.5,2.1
		c0-4,1.1-7.4,4.9-9.7c-0.9,1.9-1.1,3.8-0.2,5.4c4.1,6,4.7,6.6,3.6,10.5c-0.2,1-1.1,1.9-2.1,2.4C231.9,99,231.7,98.8,227.8,97.9z"/>
	<path class="st2" d="M232.1,96.7c-0.2,0-1.1-0.2-1.9-0.3c-0.4,0-0.9-0.2-1.3-0.3l0,0c-1.7-1-1.3-1-0.9-2.1l0.2-0.5l0,0
		c0.2-1.6-0.6-2.4-0.9-3.5l2.1,1.9c0-0.7,1.7-5,1.7-5.7c3.2,4.8,3.6,6,3,9.2c0,0.3-0.4,0.7-0.9,0.9
		C232.4,96.7,232.1,96.7,232.1,96.7z"/>
	<path class="st1" d="M258.5,97.9c-0.4,0-0.9-0.2-1.1-0.3c-2.6-1.6-3.2-3.5-1.5-5.5c1.5-1.9,0-3.5-1.5-5c1.9,0,3.9,0.2,4.5,2.1
		c0-4,1.1-7.4,4.9-9.7c-0.9,1.9-1.1,3.8-0.2,5.4c4.1,6,4.7,6.6,3.6,10.5c-0.2,1-1.1,1.9-2.1,2.4C262.6,99,262.4,98.6,258.5,97.9z"/>
	<path class="st2" d="M262.8,96.7c-0.2,0-1.1-0.2-1.9-0.3c-0.4,0-0.9-0.2-1.3-0.3l0,0c-1.7-1-1.3-1-0.9-2.1l0.2-0.5l0,0
		c0.2-1.6-0.6-2.4-0.9-3.5l2.1,1.9c0-0.7,1.7-5,1.7-5.7c3.2,4.8,3.6,6,3,9.2c0,0.3-0.4,0.7-0.9,0.9
		C263.1,96.5,262.8,96.7,262.8,96.7z"/>
	<path class="st1" d="M289.3,97.8c-0.4,0-0.9-0.2-1.1-0.3c-2.6-1.6-3.2-3.5-1.5-5.5c1.5-1.9,0-3.5-1.5-5c1.9,0,3.9,0.2,4.5,2.1
		c0-4,1.1-7.4,4.9-9.7c-0.9,1.9-1.1,3.8-0.2,5.4c4.1,6,4.7,6.6,3.6,10.5c-0.2,1-1.1,1.9-2.1,2.4C293.3,98.8,293.1,98.4,289.3,97.8z"
		/>
	<path class="st2" d="M293.3,96.5c-0.2,0-1.1-0.2-1.9-0.3c-0.4,0-0.9-0.2-1.3-0.3l0,0c-1.7-1-1.3-1-0.9-2.1l0.2-0.5l0,0
		c0.2-1.6-0.6-2.4-0.9-3.5l2.1,1.9c0-0.7,1.7-5,1.7-5.7c3.2,4.8,3.6,6,3,9.2c0,0.3-0.4,0.7-0.9,0.9
		C293.8,96.5,293.5,96.5,293.3,96.5z"/>
	<path class="st1" d="M320,97.6c-0.4,0-0.9-0.2-1.1-0.3c-2.6-1.6-3.2-3.5-1.5-5.5c1.5-1.9,0-3.5-1.5-5c1.9,0,3.9,0.2,4.5,2.1
		c0-4,1.1-7.4,4.9-9.7c-0.9,1.9-1.1,3.8-0.2,5.4c4.1,6,4.7,6.6,3.6,10.5c-0.2,1-1.1,1.9-2.1,2.4C324,98.8,323.8,98.4,320,97.6z"/>
	<path class="st2" d="M324,96.4c-0.2,0-1.1-0.2-1.9-0.3c-0.4,0-0.9-0.2-1.3-0.3l0,0c-1.7-1-1.3-1-0.9-2.1l0.2-0.5l0,0
		c0.2-1.6-0.6-2.4-0.9-3.5l2.1,1.9c0-0.7,1.7-5,1.7-5.7c3.2,4.8,3.6,6,3,9.2c0,0.3-0.4,0.7-0.9,0.9C324.5,96.4,324.2,96.4,324,96.4z
		"/>
</g>
</svg>
