<?xml version="1.0" encoding="utf-8"?>
<!-- Generator: Adobe Illustrator 22.1.0, SVG Export Plug-In . SVG Version: 6.00 Build 0)  -->
<svg version="1.1" id="Layer_1" xmlns="http://www.w3.org/2000/svg" xmlns:xlink="http://www.w3.org/1999/xlink" x="0px" y="0px"
	 viewBox="0 0 344 114" style="enable-background:new 0 0 344 114;" xml:space="preserve">
<style type="text/css">
	.st0{fill:#82BDE5;}
	.st1{fill:#3F5FA6;}
</style>
<g>
	<rect class="st0" width="344" height="114"/>
	<polygon class="st1" points="12.9,16.5 17.3,16.5 17.4,20.4 12.9,20.4 	"/>
	<polygon class="st1" points="9.1,18.8 13.5,18.8 13.6,22.7 9.1,22.8 	"/>
	<polygon class="st1" points="16,19.4 20.4,19.3 20.5,23.3 16,23.3 	"/>
	<polygon class="st1" points="41.8,16.5 46.2,16.5 46.2,20.4 41.8,20.4 	"/>
	<polygon class="st1" points="37.8,18.6 42.2,18.6 42.2,22.5 37.8,22.6 	"/>
	<polygon class="st1" points="44.7,19.2 49.1,19.1 49.1,23.1 44.7,23.1 	"/>
	<polygon class="st1" points="70.4,16.3 74.9,16.3 74.9,20.2 70.5,20.2 	"/>
	<polygon class="st1" points="66.4,18.6 70.9,18.6 70.9,22.5 66.5,22.6 	"/>
	<polygon class="st1" points="73.5,19 78,19 78,22.9 73.6,22.9 	"/>
	<polygon class="st1" points="99.1,16.3 103.5,16.3 103.6,20.2 99.1,20.2 	"/>
	<polygon class="st1" points="95.3,18.5 99.8,18.4 99.8,22.4 95.4,22.4 	"/>
	<polygon class="st1" points="102.2,19 106.7,19 106.7,22.9 102.3,22.9 	"/>
	<polygon class="st1" points="127.8,16.1 132.2,16.1 132.3,20 127.8,20.1 	"/>
	<polygon class="st1" points="124,18.5 128.4,18.4 128.5,22.4 124,22.4 	"/>
	<polygon class="st1" points="130.9,18.8 135.3,18.8 135.4,22.7 130.9,22.8 	"/>
	<polygon class="st1" points="156.4,16.1 160.9,16.1 160.9,20 156.5,20.1 	"/>
	<polygon class="st1" points="152.7,18.3 157.1,18.2 157.1,22.2 152.7,22.2 	"/>
	<polygon class="st1" points="159.5,18.8 164,18.8 164,22.7 159.6,22.8 	"/>
	<polygon class="st1" points="185.3,15.9 189.8,15.9 189.8,19.9 185.4,19.9 	"/>
	<polygon class="st1" points="181.3,18.3 185.8,18.2 185.8,22.2 181.4,22.2 	"/>
	<polygon class="st1" points="188.2,18.6 192.7,18.6 192.7,22.5 188.3,22.6 	"/>
	<polygon class="st1" points="214,15.8 218.4,15.7 218.5,19.7 214,19.7 	"/>
	<polygon class="st1" points="210,18.1 214.4,18.1 214.5,22 210,22 	"/>
	<polygon class="st1" points="217.1,18.6 221.5,18.6 221.6,22.5 217.1,22.6 	"/>
	<polygon class="st1" points="242.7,15.8 247.1,15.7 247.1,19.7 242.7,19.7 	"/>
	<polygon class="st1" points="238.9,17.9 243.3,17.9 243.4,21.8 238.9,21.9 	"/>
	<polygon class="st1" points="245.8,18.5 250.2,18.4 250.3,22.4 245.8,22.4 	"/>
	<polygon class="st1" points="271.3,15.6 275.8,15.6 275.8,19.5 271.4,19.5 	"/>
	<polygon class="st1" points="267.5,17.9 272,17.9 272,21.8 267.6,21.9 	"/>
	<polygon class="st1" points="274.4,18.3 278.9,18.2 278.9,22.2 274.5,22.2 	"/>
	<polygon class="st1" points="300,15.6 304.4,15.6 304.5,19.5 300,19.5 	"/>
	<polygon class="st1" points="296.2,17.7 300.7,17.7 300.7,21.6 296.3,21.7 	"/>
	<polygon class="st1" points="303.1,18.3 307.6,18.2 307.6,22.2 303.1,22.2 	"/>
	<polygon class="st1" points="328.9,15.4 333.3,15.4 333.4,19.3 328.9,19.3 	"/>
	<polygon class="st1" points="324.9,17.7 329.3,17.7 329.4,21.6 324.9,21.7 	"/>
	<polygon class="st1" points="331.8,18.1 336.2,18.1 336.3,22 331.8,22 	"/>
	<polygon class="st1" points="25.8,40.5 30.2,40.4 30.2,44.4 25.8,44.4 	"/>
	<polygon class="st1" points="21.8,42.8 26.2,42.8 26.2,46.7 21.8,46.7 	"/>
	<polygon class="st1" points="28.9,43.2 33.3,43.1 33.4,47.1 28.9,47.1 	"/>
	<polygon class="st1" points="54.4,40.5 58.9,40.4 58.9,44.4 54.5,44.4 	"/>
	<polygon class="st1" points="50.7,42.6 55.1,42.6 55.1,46.5 50.7,46.6 	"/>
	<polygon class="st1" points="57.5,43.2 62,43.1 62,47.1 57.6,47.1 	"/>
	<polygon class="st1" points="83.1,40.3 87.5,40.3 87.6,44.2 83.1,44.2 	"/>
	<polygon class="st1" points="79.3,42.6 83.8,42.6 83.8,46.5 79.4,46.6 	"/>
	<polygon class="st1" points="86.2,43 90.7,42.9 90.7,46.9 86.2,46.9 	"/>
	<polygon class="st1" points="111.8,40.1 116.2,40.1 116.3,44 111.8,44 	"/>
	<polygon class="st1" points="108,42.4 112.4,42.4 112.5,46.3 108,46.4 	"/>
	<polygon class="st1" points="114.9,43 119.3,42.9 119.4,46.9 114.9,46.9 	"/>
	<polygon class="st1" points="140.7,40.1 145.1,40.1 145.1,44 140.7,44 	"/>
	<polygon class="st1" points="136.7,42.3 141.1,42.2 141.1,46.2 136.7,46.2 	"/>
	<polygon class="st1" points="143.5,42.8 148,42.8 148,46.7 143.6,46.7 	"/>
	<polygon class="st1" points="169.3,39.9 173.8,39.9 173.8,43.8 169.4,43.9 	"/>
	<polygon class="st1" points="165.3,42.3 169.8,42.2 169.8,46.2 165.4,46.2 	"/>
	<polygon class="st1" points="172.4,42.6 176.9,42.6 176.9,46.5 172.5,46.6 	"/>
	<polygon class="st1" points="198,39.9 202.4,39.9 202.5,43.8 198,43.9 	"/>
	<polygon class="st1" points="194.2,42.1 198.7,42 198.7,46 194.3,46 	"/>
	<polygon class="st1" points="201.1,42.6 205.5,42.6 205.6,46.5 201.1,46.6 	"/>
	<polygon class="st1" points="226.7,39.8 231.1,39.7 231.1,43.7 226.7,43.7 	"/>
	<polygon class="st1" points="222.9,42.1 227.3,42 227.4,46 222.9,46 	"/>
	<polygon class="st1" points="229.8,42.4 234.2,42.4 234.3,46.3 229.8,46.4 	"/>
	<polygon class="st1" points="255.3,39.8 259.8,39.7 259.8,43.7 255.4,43.7 	"/>
	<polygon class="st1" points="251.5,41.9 256,41.9 256,45.8 251.6,45.8 	"/>
	<polygon class="st1" points="258.4,42.4 262.9,42.4 262.9,46.3 258.5,46.4 	"/>
	<polygon class="st1" points="284.2,39.6 288.7,39.5 288.7,43.5 284.3,43.5 	"/>
	<polygon class="st1" points="280.2,41.9 284.7,41.9 284.7,45.8 280.3,45.8 	"/>
	<polygon class="st1" points="287.1,42.3 291.5,42.2 291.6,46.2 287.1,46.2 	"/>
	<polygon class="st1" points="312.9,39.4 317.3,39.4 317.4,43.3 312.9,43.3 	"/>
	<polygon class="st1" points="308.9,41.7 313.3,41.7 313.4,45.6 308.9,45.7 	"/>
	<polygon class="st1" points="316,42.3 320.4,42.2 320.5,46.2 316,46.2 	"/>
	<polygon class="st1" points="12.7,67.5 17.1,67.5 17.1,71.4 12.7,71.4 	"/>
	<polygon class="st1" points="8.9,69.6 13.3,69.6 13.4,73.5 8.9,73.6 	"/>
	<polygon class="st1" points="15.8,70.2 20.2,70.1 20.2,74.1 15.8,74.1 	"/>
	<polygon class="st1" points="41.3,67.3 45.8,67.3 45.8,71.2 41.4,71.3 	"/>
	<polygon class="st1" points="37.5,69.6 42,69.6 42,73.5 37.6,73.6 	"/>
	<polygon class="st1" points="44.4,70 48.9,70 48.9,73.9 44.5,73.9 	"/>
	<polygon class="st1" points="70,67.1 74.4,67.1 74.5,71 70,71.1 	"/>
	<polygon class="st1" points="66.2,69.5 70.7,69.4 70.7,73.4 66.2,73.4 	"/>
	<polygon class="st1" points="73.1,70 77.5,70 77.6,73.9 73.1,73.9 	"/>
	<polygon class="st1" points="98.7,67.1 103.1,67.1 103.1,71 98.7,71.1 	"/>
	<polygon class="st1" points="94.9,69.3 99.3,69.3 99.4,73.2 94.9,73.2 	"/>
	<polygon class="st1" points="101.8,69.8 106.2,69.8 106.3,73.7 101.8,73.8 	"/>
	<polygon class="st1" points="127.5,67 132,66.9 132,70.9 127.6,70.9 	"/>
	<polygon class="st1" points="123.5,69.3 128,69.3 128,73.2 123.6,73.2 	"/>
	<polygon class="st1" points="130.4,69.6 134.9,69.6 134.9,73.5 130.5,73.6 	"/>
	<polygon class="st1" points="156.2,67 160.7,66.9 160.7,70.9 156.3,70.9 	"/>
	<polygon class="st1" points="152.4,69.1 156.9,69.1 156.9,73 152.5,73 	"/>
	<polygon class="st1" points="159.3,69.6 163.8,69.6 163.8,73.5 159.4,73.6 	"/>
	<polygon class="st1" points="184.9,66.8 189.3,66.7 189.4,70.7 184.9,70.7 	"/>
	<polygon class="st1" points="181.1,69.1 185.5,69.1 185.6,73 181.1,73 	"/>
	<polygon class="st1" points="188,69.5 192.4,69.4 192.5,73.4 188,73.4 	"/>
	<polygon class="st1" points="213.5,66.8 218,66.7 218,70.7 213.6,70.7 	"/>
	<polygon class="st1" points="209.8,68.9 214.2,68.9 214.3,72.8 209.8,72.9 	"/>
	<polygon class="st1" points="216.7,69.5 221.1,69.4 221.1,73.4 216.7,73.4 	"/>
	<polygon class="st1" points="242.2,66.6 246.7,66.6 246.7,70.5 242.3,70.5 	"/>
	<polygon class="st1" points="238.4,68.9 242.9,68.9 242.9,72.8 238.5,72.9 	"/>
	<polygon class="st1" points="245.3,69.3 249.8,69.3 249.8,73.2 245.4,73.2 	"/>
	<polygon class="st1" points="271.1,66.4 275.5,66.4 275.6,70.3 271.1,70.4 	"/>
	<polygon class="st1" points="267.1,68.7 271.5,68.7 271.6,72.7 267.1,72.7 	"/>
	<polygon class="st1" points="274,69.3 278.4,69.3 278.5,73.2 274,73.2 	"/>
	<polygon class="st1" points="299.8,66.4 304.2,66.4 304.3,70.3 299.8,70.4 	"/>
	<polygon class="st1" points="295.8,68.6 300.2,68.5 300.3,72.5 295.8,72.5 	"/>
	<polygon class="st1" points="302.9,69.1 307.3,69.1 307.4,73 302.9,73 	"/>
	<polygon class="st1" points="328.4,66.2 332.9,66.2 332.9,70.1 328.5,70.2 	"/>
	<polygon class="st1" points="324.7,68.6 329.1,68.5 329.1,72.5 324.7,72.5 	"/>
	<polygon class="st1" points="331.6,68.9 336,68.9 336,72.8 331.6,72.9 	"/>
	<polygon class="st1" points="27.5,94.2 32,94.1 32,98.1 27.6,98.1 	"/>
	<polygon class="st1" points="23.5,96.5 28,96.5 28,100.4 23.6,100.4 	"/>
	<polygon class="st1" points="30.4,96.8 34.9,96.8 34.9,100.8 30.5,100.8 	"/>
	<polygon class="st1" points="56.2,94 60.7,94 60.7,97.9 56.2,97.9 	"/>
	<polygon class="st1" points="52.4,96.3 56.9,96.3 56.9,100.2 52.5,100.2 	"/>
	<polygon class="st1" points="59.3,96.7 63.8,96.6 63.8,100.6 59.4,100.6 	"/>
	<polygon class="st1" points="84.9,94 89.3,94 89.4,97.9 84.9,97.9 	"/>
	<polygon class="st1" points="81.1,96.1 85.5,96.1 85.6,100 81.1,100.1 	"/>
	<polygon class="st1" points="88,96.7 92.4,96.6 92.5,100.6 88,100.6 	"/>
	<polygon class="st1" points="113.5,93.8 118,93.8 118,97.7 113.6,97.7 	"/>
	<polygon class="st1" points="109.8,96.1 114.2,96.1 114.3,100 109.8,100.1 	"/>
	<polygon class="st1" points="116.7,96.5 121.1,96.5 121.1,100.4 116.7,100.4 	"/>
	<polygon class="st1" points="142.2,93.8 146.7,93.8 146.7,97.7 142.3,97.7 	"/>
	<polygon class="st1" points="138.4,95.9 142.9,95.9 142.9,99.9 138.5,99.9 	"/>
	<polygon class="st1" points="145.3,96.5 149.8,96.5 149.8,100.4 145.4,100.4 	"/>
	<polygon class="st1" points="171.1,93.6 175.5,93.6 175.6,97.5 171.1,97.6 	"/>
	<polygon class="st1" points="167.1,96 171.5,95.9 171.6,99.9 167.1,99.9 	"/>
	<polygon class="st1" points="174,96.3 178.4,96.3 178.5,100.2 174,100.2 	"/>
	<polygon class="st1" points="199.8,93.6 204.2,93.6 204.3,97.5 199.8,97.6 	"/>
	<polygon class="st1" points="196,95.8 200.4,95.7 200.5,99.7 196,99.7 	"/>
	<polygon class="st1" points="202.9,96.3 207.3,96.3 207.4,100.2 202.9,100.2 	"/>
	<polygon class="st1" points="228.4,93.4 232.9,93.4 232.9,97.4 228.5,97.4 	"/>
	<polygon class="st1" points="224.7,95.8 229.1,95.7 229.1,99.7 224.7,99.7 	"/>
	<polygon class="st1" points="231.5,96.1 236,96.1 236,100 231.6,100.1 	"/>
	<polygon class="st1" points="257.1,93.3 261.5,93.2 261.6,97.2 257.1,97.2 	"/>
	<polygon class="st1" points="253.3,95.6 257.8,95.6 257.8,99.5 253.4,99.5 	"/>
	<polygon class="st1" points="260.2,95.9 264.7,95.9 264.7,99.9 260.3,99.9 	"/>
	<polygon class="st1" points="285.8,93.3 290.2,93.2 290.3,97.2 285.8,97.2 	"/>
	<polygon class="st1" points="282,95.4 286.4,95.4 286.5,99.3 282,99.4 	"/>
	<polygon class="st1" points="288.9,95.9 293.3,95.9 293.4,99.9 288.9,99.9 	"/>
	<polygon class="st1" points="314.7,93.1 319.1,93.1 319.1,97 314.7,97 	"/>
	<polygon class="st1" points="310.7,95.4 315.1,95.4 315.1,99.3 310.7,99.4 	"/>
	<polygon class="st1" points="317.6,95.8 322,95.7 322,99.7 317.6,99.7 	"/>
</g>
</svg>
