<?xml version="1.0" encoding="utf-8"?>
<!-- Generator: Adobe Illustrator 22.1.0, SVG Export Plug-In . SVG Version: 6.00 Build 0)  -->
<svg version="1.1" id="Layer_1" xmlns="http://www.w3.org/2000/svg" xmlns:xlink="http://www.w3.org/1999/xlink" x="0px" y="0px"
	 viewBox="0 0 768 1024" style="enable-background:new 0 0 768 1024;" xml:space="preserve">
<style type="text/css">
	.st0{fill:#E5F3F2;}
	.st1{opacity:0.49;}
	.st2{fill:#A5C76A;enable-background:new    ;}
	.st3{fill:#F6BF75;enable-background:new    ;}
	.st4{fill:#A5C76A;}
	.st5{fill:#F6BF75;}
</style>
<title>background-pattern</title>
<rect y="-1.4" class="st0" width="768" height="1025.4"/>
<g id="Background_Pattern">
	<g id="Row_1" class="st1">
		<path class="st2" d="M18.9,21.7h18.7c1.2,0,2.2,1,2.2,2.2v4.5c0,1.2-1,2.2-2.2,2.2H18.9c-1.2,0-2.2-1-2.2-2.2v-4.5
			C16.7,22.7,17.7,21.7,18.9,21.7z"/>
		<rect x="28.2" y="35.5" class="st3" width="19.5" height="5.9"/>
		<path class="st2" d="M18.9,102.7h18.7c1.2,0,2.2,1,2.2,2.2v4.4c0,1.2-1,2.2-2.2,2.2H18.9c-1.2,0-2.2-1-2.2-2.2v-4.4
			C16.7,103.7,17.7,102.7,18.9,102.7z"/>
		<rect x="28.2" y="116.6" class="st3" width="19.5" height="5.9"/>
		<path class="st2" d="M18.9,183.8h18.7c1.2,0,2.2,1,2.2,2.2v4.4c0,1.2-1,2.2-2.2,2.2H18.9c-1.2,0-2.2-1-2.2-2.2V186
			C16.7,184.8,17.7,183.8,18.9,183.8z"/>
		<rect x="28.2" y="197.6" class="st3" width="19.5" height="5.9"/>
		<path class="st4" d="M18.9,264.8h18.7c1.2,0,2.2,1,2.2,2.2v4.5c0,1.2-1,2.2-2.2,2.2H18.9c-1.2,0-2.2-1-2.2-2.2V267
			C16.7,265.8,17.7,264.8,18.9,264.8z"/>
		<rect x="28.2" y="278.7" class="st5" width="19.5" height="5.9"/>
		<path class="st4" d="M18.9,345.9h18.7c1.2,0,2.2,1,2.2,2.2v4.5c0,1.2-1,2.2-2.2,2.2H18.9c-1.2,0-2.2-1-2.2-2.2v-4.5
			C16.7,346.9,17.7,345.9,18.9,345.9z"/>
		<rect x="28.2" y="359.7" class="st5" width="19.5" height="5.9"/>
		<path class="st4" d="M18.9,426.9h18.7c1.2,0,2.2,1,2.2,2.2v4.5c0,1.2-1,2.2-2.2,2.2H18.9c-1.2,0-2.2-1-2.2-2.2v-4.5
			C16.7,427.9,17.7,426.9,18.9,426.9z"/>
		<rect x="28.2" y="440.8" class="st5" width="19.5" height="5.9"/>
		<path class="st4" d="M18.9,508h18.7c1.2,0,2.2,1,2.2,2.2v4.5c0,1.2-1,2.2-2.2,2.2H18.9c-1.2,0-2.2-1-2.2-2.2v-4.5
			C16.7,508.9,17.7,508,18.9,508z"/>
		<rect x="28.2" y="521.8" class="st5" width="19.5" height="5.9"/>
	</g>
</g>
<g id="Background_Pattern_3_">
	<g id="Row_1_3_" class="st1">
		<path class="st2" d="M90.9-21.2h18.7c1.2,0,2.2,1,2.2,2.2v4.5c0,1.2-1,2.2-2.2,2.2H90.9c-1.2,0-2.2-1-2.2-2.2V-19
			C88.7-20.2,89.7-21.2,90.9-21.2z"/>
		<rect x="100.2" y="-7.3" class="st3" width="19.5" height="5.9"/>
		<path class="st2" d="M90.9,59.9h18.7c1.2,0,2.2,1,2.2,2.2v4.4c0,1.2-1,2.2-2.2,2.2H90.9c-1.2,0-2.2-1-2.2-2.2v-4.4
			C88.7,60.9,89.7,59.9,90.9,59.9z"/>
		<rect x="100.2" y="73.7" class="st3" width="19.5" height="5.9"/>
		<path class="st2" d="M90.9,140.9h18.7c1.2,0,2.2,1,2.2,2.2v4.4c0,1.2-1,2.2-2.2,2.2H90.9c-1.2,0-2.2-1-2.2-2.2v-4.4
			C88.7,141.9,89.7,140.9,90.9,140.9z"/>
		<rect x="100.2" y="154.8" class="st3" width="19.5" height="5.9"/>
		<path class="st4" d="M90.9,222h18.7c1.2,0,2.2,1,2.2,2.2v4.5c0,1.2-1,2.2-2.2,2.2H90.9c-1.2,0-2.2-1-2.2-2.2v-4.5
			C88.7,223,89.7,222,90.9,222z"/>
		<rect x="100.2" y="235.8" class="st5" width="19.5" height="5.9"/>
		<path class="st4" d="M90.9,303h18.7c1.2,0,2.2,1,2.2,2.2v4.5c0,1.2-1,2.2-2.2,2.2H90.9c-1.2,0-2.2-1-2.2-2.2v-4.5
			C88.7,304,89.7,303,90.9,303z"/>
		<rect x="100.2" y="316.9" class="st5" width="19.5" height="5.9"/>
		<path class="st4" d="M90.9,384.1h18.7c1.2,0,2.2,1,2.2,2.2v4.5c0,1.2-1,2.2-2.2,2.2H90.9c-1.2,0-2.2-1-2.2-2.2v-4.5
			C88.7,385,89.7,384.1,90.9,384.1z"/>
		<rect x="100.2" y="397.9" class="st5" width="19.5" height="5.9"/>
		<path class="st4" d="M90.9,465.1h18.7c1.2,0,2.2,1,2.2,2.2v4.5c0,1.2-1,2.2-2.2,2.2H90.9c-1.2,0-2.2-1-2.2-2.2v-4.5
			C88.7,466.1,89.7,465.1,90.9,465.1z"/>
		<rect x="100.2" y="479" class="st5" width="19.5" height="5.9"/>
	</g>
</g>
<g id="Background_Pattern_5_">
	<g id="Row_1_5_" class="st1">
		<path class="st2" d="M165,21.7h18.7c1.2,0,2.2,1,2.2,2.2v4.5c0,1.2-1,2.2-2.2,2.2H165c-1.2,0-2.2-1-2.2-2.2v-4.5
			C162.8,22.7,163.8,21.7,165,21.7z"/>
		<rect x="174.3" y="35.5" class="st3" width="19.5" height="5.9"/>
		<path class="st2" d="M165,102.7h18.7c1.2,0,2.2,1,2.2,2.2v4.4c0,1.2-1,2.2-2.2,2.2H165c-1.2,0-2.2-1-2.2-2.2v-4.4
			C162.8,103.7,163.8,102.7,165,102.7z"/>
		<rect x="174.3" y="116.6" class="st3" width="19.5" height="5.9"/>
		<path class="st2" d="M165,183.8h18.7c1.2,0,2.2,1,2.2,2.2v4.4c0,1.2-1,2.2-2.2,2.2H165c-1.2,0-2.2-1-2.2-2.2V186
			C162.8,184.8,163.8,183.8,165,183.8z"/>
		<rect x="174.3" y="197.6" class="st3" width="19.5" height="5.9"/>
		<path class="st4" d="M165,264.8h18.7c1.2,0,2.2,1,2.2,2.2v4.5c0,1.2-1,2.2-2.2,2.2H165c-1.2,0-2.2-1-2.2-2.2V267
			C162.8,265.8,163.8,264.8,165,264.8z"/>
		<rect x="174.3" y="278.7" class="st5" width="19.5" height="5.9"/>
		<path class="st4" d="M165,345.9h18.7c1.2,0,2.2,1,2.2,2.2v4.5c0,1.2-1,2.2-2.2,2.2H165c-1.2,0-2.2-1-2.2-2.2v-4.5
			C162.8,346.9,163.8,345.9,165,345.9z"/>
		<rect x="174.3" y="359.7" class="st5" width="19.5" height="5.9"/>
		<path class="st4" d="M165,426.9h18.7c1.2,0,2.2,1,2.2,2.2v4.5c0,1.2-1,2.2-2.2,2.2H165c-1.2,0-2.2-1-2.2-2.2v-4.5
			C162.8,427.9,163.8,426.9,165,426.9z"/>
		<rect x="174.3" y="440.8" class="st5" width="19.5" height="5.9"/>
		<path class="st4" d="M165,508h18.7c1.2,0,2.2,1,2.2,2.2v4.5c0,1.2-1,2.2-2.2,2.2H165c-1.2,0-2.2-1-2.2-2.2v-4.5
			C162.8,508.9,163.8,508,165,508z"/>
		<rect x="174.3" y="521.8" class="st5" width="19.5" height="5.9"/>
	</g>
</g>
<g id="Background_Pattern_7_">
	<g id="Row_1_7_" class="st1">
		<path class="st2" d="M237-21.2h18.7c1.2,0,2.2,1,2.2,2.2v4.5c0,1.2-1,2.2-2.2,2.2H237c-1.2,0-2.2-1-2.2-2.2V-19
			C234.8-20.2,235.8-21.2,237-21.2z"/>
		<rect x="246.3" y="-7.3" class="st3" width="19.5" height="5.9"/>
		<path class="st2" d="M237,59.9h18.7c1.2,0,2.2,1,2.2,2.2v4.4c0,1.2-1,2.2-2.2,2.2H237c-1.2,0-2.2-1-2.2-2.2v-4.4
			C234.8,60.9,235.8,59.9,237,59.9z"/>
		<rect x="246.3" y="73.7" class="st3" width="19.5" height="5.9"/>
		<path class="st2" d="M237,140.9h18.7c1.2,0,2.2,1,2.2,2.2v4.4c0,1.2-1,2.2-2.2,2.2H237c-1.2,0-2.2-1-2.2-2.2v-4.4
			C234.8,141.9,235.8,140.9,237,140.9z"/>
		<rect x="246.3" y="154.8" class="st3" width="19.5" height="5.9"/>
		<path class="st4" d="M237,222h18.7c1.2,0,2.2,1,2.2,2.2v4.5c0,1.2-1,2.2-2.2,2.2H237c-1.2,0-2.2-1-2.2-2.2v-4.5
			C234.8,223,235.8,222,237,222z"/>
		<rect x="246.3" y="235.8" class="st5" width="19.5" height="5.9"/>
		<path class="st4" d="M237,303h18.7c1.2,0,2.2,1,2.2,2.2v4.5c0,1.2-1,2.2-2.2,2.2H237c-1.2,0-2.2-1-2.2-2.2v-4.5
			C234.8,304,235.8,303,237,303z"/>
		<rect x="246.3" y="316.9" class="st5" width="19.5" height="5.9"/>
		<path class="st4" d="M237,384.1h18.7c1.2,0,2.2,1,2.2,2.2v4.5c0,1.2-1,2.2-2.2,2.2H237c-1.2,0-2.2-1-2.2-2.2v-4.5
			C234.8,385,235.8,384.1,237,384.1z"/>
		<rect x="246.3" y="397.9" class="st5" width="19.5" height="5.9"/>
		<path class="st4" d="M237,465.1h18.7c1.2,0,2.2,1,2.2,2.2v4.5c0,1.2-1,2.2-2.2,2.2H237c-1.2,0-2.2-1-2.2-2.2v-4.5
			C234.8,466.1,235.8,465.1,237,465.1z"/>
		<rect x="246.3" y="479" class="st5" width="19.5" height="5.9"/>
	</g>
</g>
<g id="Background_Pattern_9_">
	<g id="Row_1_9_" class="st1">
		<path class="st2" d="M311.1,21.7h18.7c1.2,0,2.2,1,2.2,2.2v4.5c0,1.2-1,2.2-2.2,2.2h-18.7c-1.2,0-2.2-1-2.2-2.2v-4.5
			C308.9,22.7,309.9,21.7,311.1,21.7z"/>
		<rect x="320.5" y="35.5" class="st3" width="19.5" height="5.9"/>
		<path class="st2" d="M311.1,102.7h18.7c1.2,0,2.2,1,2.2,2.2v4.4c0,1.2-1,2.2-2.2,2.2h-18.7c-1.2,0-2.2-1-2.2-2.2v-4.4
			C308.9,103.7,309.9,102.7,311.1,102.7z"/>
		<rect x="320.5" y="116.6" class="st3" width="19.5" height="5.9"/>
		<path class="st2" d="M311.1,183.8h18.7c1.2,0,2.2,1,2.2,2.2v4.4c0,1.2-1,2.2-2.2,2.2h-18.7c-1.2,0-2.2-1-2.2-2.2V186
			C308.9,184.8,309.9,183.8,311.1,183.8z"/>
		<rect x="320.5" y="197.6" class="st3" width="19.5" height="5.9"/>
		<path class="st4" d="M311.1,264.8h18.7c1.2,0,2.2,1,2.2,2.2v4.5c0,1.2-1,2.2-2.2,2.2h-18.7c-1.2,0-2.2-1-2.2-2.2V267
			C308.9,265.8,309.9,264.8,311.1,264.8z"/>
		<rect x="320.5" y="278.7" class="st5" width="19.5" height="5.9"/>
		<path class="st4" d="M311.1,345.9h18.7c1.2,0,2.2,1,2.2,2.2v4.5c0,1.2-1,2.2-2.2,2.2h-18.7c-1.2,0-2.2-1-2.2-2.2v-4.5
			C308.9,346.9,309.9,345.9,311.1,345.9z"/>
		<rect x="320.5" y="359.7" class="st5" width="19.5" height="5.9"/>
		<path class="st4" d="M311.1,426.9h18.7c1.2,0,2.2,1,2.2,2.2v4.5c0,1.2-1,2.2-2.2,2.2h-18.7c-1.2,0-2.2-1-2.2-2.2v-4.5
			C308.9,427.9,309.9,426.9,311.1,426.9z"/>
		<rect x="320.5" y="440.8" class="st5" width="19.5" height="5.9"/>
		<path class="st4" d="M311.1,508h18.7c1.2,0,2.2,1,2.2,2.2v4.5c0,1.2-1,2.2-2.2,2.2h-18.7c-1.2,0-2.2-1-2.2-2.2v-4.5
			C308.9,508.9,309.9,508,311.1,508z"/>
		<rect x="320.5" y="521.8" class="st5" width="19.5" height="5.9"/>
	</g>
</g>
<g id="Background_Pattern_11_">
	<g id="Row_1_11_" class="st1">
		<path class="st2" d="M377.4-21.2H396c1.2,0,2.2,1,2.2,2.2v4.5c0,1.2-1,2.2-2.2,2.2h-18.7c-1.2,0-2.2-1-2.2-2.2V-19
			C375.1-20.2,376.1-21.2,377.4-21.2z"/>
		<rect x="386.7" y="-7.3" class="st3" width="19.5" height="5.9"/>
		<path class="st2" d="M377.4,59.9H396c1.2,0,2.2,1,2.2,2.2v4.4c0,1.2-1,2.2-2.2,2.2h-18.7c-1.2,0-2.2-1-2.2-2.2v-4.4
			C375.1,60.9,376.1,59.9,377.4,59.9z"/>
		<rect x="386.7" y="73.7" class="st3" width="19.5" height="5.9"/>
		<path class="st2" d="M377.4,140.9H396c1.2,0,2.2,1,2.2,2.2v4.4c0,1.2-1,2.2-2.2,2.2h-18.7c-1.2,0-2.2-1-2.2-2.2v-4.4
			C375.1,141.9,376.1,140.9,377.4,140.9z"/>
		<rect x="386.7" y="154.8" class="st3" width="19.5" height="5.9"/>
		<path class="st4" d="M377.4,222H396c1.2,0,2.2,1,2.2,2.2v4.5c0,1.2-1,2.2-2.2,2.2h-18.7c-1.2,0-2.2-1-2.2-2.2v-4.5
			C375.1,223,376.1,222,377.4,222z"/>
		<rect x="386.7" y="235.8" class="st5" width="19.5" height="5.9"/>
		<path class="st4" d="M377.4,303H396c1.2,0,2.2,1,2.2,2.2v4.5c0,1.2-1,2.2-2.2,2.2h-18.7c-1.2,0-2.2-1-2.2-2.2v-4.5
			C375.1,304,376.1,303,377.4,303z"/>
		<rect x="386.7" y="316.9" class="st5" width="19.5" height="5.9"/>
		<path class="st4" d="M377.4,384.1H396c1.2,0,2.2,1,2.2,2.2v4.5c0,1.2-1,2.2-2.2,2.2h-18.7c-1.2,0-2.2-1-2.2-2.2v-4.5
			C375.1,385,376.1,384.1,377.4,384.1z"/>
		<rect x="386.7" y="397.9" class="st5" width="19.5" height="5.9"/>
		<path class="st4" d="M377.4,465.1H396c1.2,0,2.2,1,2.2,2.2v4.5c0,1.2-1,2.2-2.2,2.2h-18.7c-1.2,0-2.2-1-2.2-2.2v-4.5
			C375.1,466.1,376.1,465.1,377.4,465.1z"/>
		<rect x="386.7" y="479" class="st5" width="19.5" height="5.9"/>
	</g>
</g>
<g id="Background_Pattern_13_">
	<g id="Row_1_13_" class="st1">
		<path class="st2" d="M457.3,21.7h18.7c1.2,0,2.2,1,2.2,2.2v4.5c0,1.2-1,2.2-2.2,2.2h-18.7c-1.2,0-2.2-1-2.2-2.2v-4.5
			C455,22.7,456,21.7,457.3,21.7z"/>
		<rect x="466.6" y="35.5" class="st3" width="19.5" height="5.9"/>
		<path class="st2" d="M457.3,102.7h18.7c1.2,0,2.2,1,2.2,2.2v4.4c0,1.2-1,2.2-2.2,2.2h-18.7c-1.2,0-2.2-1-2.2-2.2v-4.4
			C455,103.7,456,102.7,457.3,102.7z"/>
		<rect x="466.6" y="116.6" class="st3" width="19.5" height="5.9"/>
		<path class="st2" d="M457.3,183.8h18.7c1.2,0,2.2,1,2.2,2.2v4.4c0,1.2-1,2.2-2.2,2.2h-18.7c-1.2,0-2.2-1-2.2-2.2V186
			C455,184.8,456,183.8,457.3,183.8z"/>
		<rect x="466.6" y="197.6" class="st3" width="19.5" height="5.9"/>
		<path class="st4" d="M457.3,264.8h18.7c1.2,0,2.2,1,2.2,2.2v4.5c0,1.2-1,2.2-2.2,2.2h-18.7c-1.2,0-2.2-1-2.2-2.2V267
			C455,265.8,456,264.8,457.3,264.8z"/>
		<rect x="466.6" y="278.7" class="st5" width="19.5" height="5.9"/>
		<path class="st4" d="M457.3,345.9h18.7c1.2,0,2.2,1,2.2,2.2v4.5c0,1.2-1,2.2-2.2,2.2h-18.7c-1.2,0-2.2-1-2.2-2.2v-4.5
			C455,346.9,456,345.9,457.3,345.9z"/>
		<rect x="466.6" y="359.7" class="st5" width="19.5" height="5.9"/>
		<path class="st4" d="M457.3,426.9h18.7c1.2,0,2.2,1,2.2,2.2v4.5c0,1.2-1,2.2-2.2,2.2h-18.7c-1.2,0-2.2-1-2.2-2.2v-4.5
			C455,427.9,456,426.9,457.3,426.9z"/>
		<rect x="466.6" y="440.8" class="st5" width="19.5" height="5.9"/>
		<path class="st4" d="M457.3,508h18.7c1.2,0,2.2,1,2.2,2.2v4.5c0,1.2-1,2.2-2.2,2.2h-18.7c-1.2,0-2.2-1-2.2-2.2v-4.5
			C455,508.9,456,508,457.3,508z"/>
		<rect x="466.6" y="521.8" class="st5" width="19.5" height="5.9"/>
	</g>
</g>
<g id="Background_Pattern_15_">
	<g id="Row_1_15_" class="st1">
		<path class="st2" d="M523.5-21.2h18.7c1.2,0,2.2,1,2.2,2.2v4.5c0,1.2-1,2.2-2.2,2.2h-18.7c-1.2,0-2.2-1-2.2-2.2V-19
			C521.3-20.2,522.3-21.2,523.5-21.2z"/>
		<rect x="532.8" y="-7.3" class="st3" width="19.5" height="5.9"/>
		<path class="st2" d="M523.5,59.9h18.7c1.2,0,2.2,1,2.2,2.2v4.4c0,1.2-1,2.2-2.2,2.2h-18.7c-1.2,0-2.2-1-2.2-2.2v-4.4
			C521.3,60.9,522.3,59.9,523.5,59.9z"/>
		<rect x="532.8" y="73.7" class="st3" width="19.5" height="5.9"/>
		<path class="st2" d="M523.5,140.9h18.7c1.2,0,2.2,1,2.2,2.2v4.4c0,1.2-1,2.2-2.2,2.2h-18.7c-1.2,0-2.2-1-2.2-2.2v-4.4
			C521.3,141.9,522.3,140.9,523.5,140.9z"/>
		<rect x="532.8" y="154.8" class="st3" width="19.5" height="5.9"/>
		<path class="st4" d="M523.5,222h18.7c1.2,0,2.2,1,2.2,2.2v4.5c0,1.2-1,2.2-2.2,2.2h-18.7c-1.2,0-2.2-1-2.2-2.2v-4.5
			C521.3,223,522.3,222,523.5,222z"/>
		<rect x="532.8" y="235.8" class="st5" width="19.5" height="5.9"/>
		<path class="st4" d="M523.5,303h18.7c1.2,0,2.2,1,2.2,2.2v4.5c0,1.2-1,2.2-2.2,2.2h-18.7c-1.2,0-2.2-1-2.2-2.2v-4.5
			C521.3,304,522.3,303,523.5,303z"/>
		<rect x="532.8" y="316.9" class="st5" width="19.5" height="5.9"/>
		<path class="st4" d="M523.5,384.1h18.7c1.2,0,2.2,1,2.2,2.2v4.5c0,1.2-1,2.2-2.2,2.2h-18.7c-1.2,0-2.2-1-2.2-2.2v-4.5
			C521.3,385,522.3,384.1,523.5,384.1z"/>
		<rect x="532.8" y="397.9" class="st5" width="19.5" height="5.9"/>
		<path class="st4" d="M523.5,465.1h18.7c1.2,0,2.2,1,2.2,2.2v4.5c0,1.2-1,2.2-2.2,2.2h-18.7c-1.2,0-2.2-1-2.2-2.2v-4.5
			C521.3,466.1,522.3,465.1,523.5,465.1z"/>
		<rect x="532.8" y="479" class="st5" width="19.5" height="5.9"/>
	</g>
</g>
<g id="Background_Pattern_17_">
	<g id="Row_1_17_" class="st1">
		<path class="st2" d="M603.4,21.7h18.7c1.2,0,2.2,1,2.2,2.2v4.5c0,1.2-1,2.2-2.2,2.2h-18.7c-1.2,0-2.2-1-2.2-2.2v-4.5
			C601.2,22.7,602.2,21.7,603.4,21.7z"/>
		<rect x="612.7" y="35.5" class="st3" width="19.5" height="5.9"/>
		<path class="st2" d="M603.4,102.7h18.7c1.2,0,2.2,1,2.2,2.2v4.4c0,1.2-1,2.2-2.2,2.2h-18.7c-1.2,0-2.2-1-2.2-2.2v-4.4
			C601.2,103.7,602.2,102.7,603.4,102.7z"/>
		<rect x="612.7" y="116.6" class="st3" width="19.5" height="5.9"/>
		<path class="st2" d="M603.4,183.8h18.7c1.2,0,2.2,1,2.2,2.2v4.4c0,1.2-1,2.2-2.2,2.2h-18.7c-1.2,0-2.2-1-2.2-2.2V186
			C601.2,184.8,602.2,183.8,603.4,183.8z"/>
		<rect x="612.7" y="197.6" class="st3" width="19.5" height="5.9"/>
		<path class="st4" d="M603.4,264.8h18.7c1.2,0,2.2,1,2.2,2.2v4.5c0,1.2-1,2.2-2.2,2.2h-18.7c-1.2,0-2.2-1-2.2-2.2V267
			C601.2,265.8,602.2,264.8,603.4,264.8z"/>
		<rect x="612.7" y="278.7" class="st5" width="19.5" height="5.9"/>
		<path class="st4" d="M603.4,345.9h18.7c1.2,0,2.2,1,2.2,2.2v4.5c0,1.2-1,2.2-2.2,2.2h-18.7c-1.2,0-2.2-1-2.2-2.2v-4.5
			C601.2,346.9,602.2,345.9,603.4,345.9z"/>
		<rect x="612.7" y="359.7" class="st5" width="19.5" height="5.9"/>
		<path class="st4" d="M603.4,426.9h18.7c1.2,0,2.2,1,2.2,2.2v4.5c0,1.2-1,2.2-2.2,2.2h-18.7c-1.2,0-2.2-1-2.2-2.2v-4.5
			C601.2,427.9,602.2,426.9,603.4,426.9z"/>
		<rect x="612.7" y="440.8" class="st5" width="19.5" height="5.9"/>
		<path class="st4" d="M603.4,508h18.7c1.2,0,2.2,1,2.2,2.2v4.5c0,1.2-1,2.2-2.2,2.2h-18.7c-1.2,0-2.2-1-2.2-2.2v-4.5
			C601.2,508.9,602.2,508,603.4,508z"/>
		<rect x="612.7" y="521.8" class="st5" width="19.5" height="5.9"/>
	</g>
</g>
<g id="Background_Pattern_19_">
	<g id="Row_1_19_" class="st1">
		<path class="st2" d="M681.2-14.6h18.7c1.2,0,2.2,1,2.2,2.2V-8c0,1.2-1,2.2-2.2,2.2h-18.7c-1.2,0-2.2-1-2.2-2.2v-4.5
			C678.9-13.6,679.9-14.6,681.2-14.6z"/>
		<rect x="690.5" y="-0.8" class="st3" width="19.5" height="5.9"/>
		<path class="st2" d="M681.2,66.4h18.7c1.2,0,2.2,1,2.2,2.2v4.4c0,1.2-1,2.2-2.2,2.2h-18.7c-1.2,0-2.2-1-2.2-2.2v-4.4
			C678.9,67.4,679.9,66.4,681.2,66.4z"/>
		<rect x="690.5" y="80.3" class="st3" width="19.5" height="5.9"/>
		<path class="st2" d="M681.2,147.5h18.7c1.2,0,2.2,1,2.2,2.2v4.4c0,1.2-1,2.2-2.2,2.2h-18.7c-1.2,0-2.2-1-2.2-2.2v-4.4
			C678.9,148.5,679.9,147.5,681.2,147.5z"/>
		<rect x="690.5" y="161.3" class="st3" width="19.5" height="5.9"/>
		<path class="st4" d="M681.2,228.5h18.7c1.2,0,2.2,1,2.2,2.2v4.5c0,1.2-1,2.2-2.2,2.2h-18.7c-1.2,0-2.2-1-2.2-2.2v-4.5
			C678.9,229.5,679.9,228.5,681.2,228.5z"/>
		<rect x="690.5" y="242.4" class="st5" width="19.5" height="5.9"/>
		<path class="st4" d="M681.2,309.6h18.7c1.2,0,2.2,1,2.2,2.2v4.5c0,1.2-1,2.2-2.2,2.2h-18.7c-1.2,0-2.2-1-2.2-2.2v-4.5
			C678.9,310.6,679.9,309.6,681.2,309.6z"/>
		<rect x="690.5" y="323.4" class="st5" width="19.5" height="5.9"/>
		<path class="st4" d="M681.2,390.6h18.7c1.2,0,2.2,1,2.2,2.2v4.5c0,1.2-1,2.2-2.2,2.2h-18.7c-1.2,0-2.2-1-2.2-2.2v-4.5
			C678.9,391.6,679.9,390.6,681.2,390.6z"/>
		<rect x="690.5" y="404.5" class="st5" width="19.5" height="5.9"/>
		<path class="st4" d="M681.2,471.6h18.7c1.2,0,2.2,1,2.2,2.2v4.5c0,1.2-1,2.2-2.2,2.2h-18.7c-1.2,0-2.2-1-2.2-2.2v-4.5
			C678.9,472.6,679.9,471.6,681.2,471.6z"/>
		<rect x="690.5" y="485.5" class="st5" width="19.5" height="5.9"/>
	</g>
</g>
<g id="Background_Pattern_21_">
	<g id="Row_1_21_" class="st1">
		<path class="st2" d="M749.5,21.7h18.7c1.2,0,2.2,1,2.2,2.2v4.5c0,1.2-1,2.2-2.2,2.2h-18.7c-1.2,0-2.2-1-2.2-2.2v-4.5
			C747.3,22.7,748.3,21.7,749.5,21.7z"/>
		<rect x="758.9" y="35.5" class="st3" width="19.5" height="5.9"/>
		<path class="st2" d="M749.5,102.7h18.7c1.2,0,2.2,1,2.2,2.2v4.4c0,1.2-1,2.2-2.2,2.2h-18.7c-1.2,0-2.2-1-2.2-2.2v-4.4
			C747.3,103.7,748.3,102.7,749.5,102.7z"/>
		<rect x="758.9" y="116.6" class="st3" width="19.5" height="5.9"/>
		<path class="st2" d="M749.5,183.8h18.7c1.2,0,2.2,1,2.2,2.2v4.4c0,1.2-1,2.2-2.2,2.2h-18.7c-1.2,0-2.2-1-2.2-2.2V186
			C747.3,184.8,748.3,183.8,749.5,183.8z"/>
		<rect x="758.9" y="197.6" class="st3" width="19.5" height="5.9"/>
		<path class="st4" d="M749.5,264.8h18.7c1.2,0,2.2,1,2.2,2.2v4.5c0,1.2-1,2.2-2.2,2.2h-18.7c-1.2,0-2.2-1-2.2-2.2V267
			C747.3,265.8,748.3,264.8,749.5,264.8z"/>
		<rect x="758.9" y="278.7" class="st5" width="19.5" height="5.9"/>
		<path class="st4" d="M749.5,345.9h18.7c1.2,0,2.2,1,2.2,2.2v4.5c0,1.2-1,2.2-2.2,2.2h-18.7c-1.2,0-2.2-1-2.2-2.2v-4.5
			C747.3,346.9,748.3,345.9,749.5,345.9z"/>
		<rect x="758.9" y="359.7" class="st5" width="19.5" height="5.9"/>
		<path class="st4" d="M749.5,426.9h18.7c1.2,0,2.2,1,2.2,2.2v4.5c0,1.2-1,2.2-2.2,2.2h-18.7c-1.2,0-2.2-1-2.2-2.2v-4.5
			C747.3,427.9,748.3,426.9,749.5,426.9z"/>
		<rect x="758.9" y="440.8" class="st5" width="19.5" height="5.9"/>
		<path class="st4" d="M749.5,508h18.7c1.2,0,2.2,1,2.2,2.2v4.5c0,1.2-1,2.2-2.2,2.2h-18.7c-1.2,0-2.2-1-2.2-2.2v-4.5
			C747.3,508.9,748.3,508,749.5,508z"/>
		<rect x="758.9" y="521.8" class="st5" width="19.5" height="5.9"/>
	</g>
</g>
<g id="Background_Pattern_20_">
	<g id="Row_1_20_" class="st1">
		<path class="st2" d="M17.8,600.3h18.7c1.2,0,2.2,1,2.2,2.2v4.5c0,1.2-1,2.2-2.2,2.2H17.8c-1.2,0-2.2-1-2.2-2.2v-4.5
			C15.6,601.3,16.6,600.3,17.8,600.3z"/>
		<rect x="27.1" y="614.1" class="st3" width="19.5" height="5.9"/>
		<path class="st2" d="M17.8,681.3h18.7c1.2,0,2.2,1,2.2,2.2v4.5c0,1.2-1,2.2-2.2,2.2H17.8c-1.2,0-2.2-1-2.2-2.2v-4.5
			C15.6,682.3,16.6,681.3,17.8,681.3z"/>
		<rect x="27.1" y="695.2" class="st3" width="19.5" height="5.9"/>
		<path class="st2" d="M17.8,762.4h18.7c1.2,0,2.2,1,2.2,2.2v4.5c0,1.2-1,2.2-2.2,2.2H17.8c-1.2,0-2.2-1-2.2-2.2v-4.5
			C15.6,763.4,16.6,762.4,17.8,762.4z"/>
		<rect x="27.1" y="776.2" class="st3" width="19.5" height="5.9"/>
		<path class="st4" d="M17.8,843.4h18.7c1.2,0,2.2,1,2.2,2.2v4.5c0,1.2-1,2.2-2.2,2.2H17.8c-1.2,0-2.2-1-2.2-2.2v-4.5
			C15.6,844.4,16.6,843.4,17.8,843.4z"/>
		<rect x="27.1" y="857.3" class="st5" width="19.5" height="5.9"/>
		<path class="st4" d="M17.8,924.4h18.7c1.2,0,2.2,1,2.2,2.2v4.5c0,1.2-1,2.2-2.2,2.2H17.8c-1.2,0-2.2-1-2.2-2.2v-4.5
			C15.6,925.4,16.6,924.4,17.8,924.4z"/>
		<rect x="27.1" y="938.3" class="st5" width="19.5" height="5.9"/>
		<path class="st4" d="M17.8,1005.5h18.7c1.2,0,2.2,1,2.2,2.2v4.5c0,1.2-1,2.2-2.2,2.2H17.8c-1.2,0-2.2-1-2.2-2.2v-4.5
			C15.6,1006.5,16.6,1005.5,17.8,1005.5z"/>
		<rect x="27.1" y="1019.4" class="st5" width="19.5" height="5.9"/>
		<path class="st4" d="M17.8,1086.5h18.7c1.2,0,2.2,1,2.2,2.2v4.4c0,1.2-1,2.2-2.2,2.2H17.8c-1.2,0-2.2-1-2.2-2.2v-4.4
			C15.6,1087.5,16.6,1086.5,17.8,1086.5z"/>
		<rect x="27.1" y="1100.4" class="st5" width="19.5" height="5.9"/>
	</g>
</g>
<g id="Background_Pattern_18_">
	<g id="Row_1_18_" class="st1">
		<path class="st2" d="M89.8,557.4h18.7c1.2,0,2.2,1,2.2,2.2v4.5c0,1.2-1,2.2-2.2,2.2H89.8c-1.2,0-2.2-1-2.2-2.2v-4.5
			C87.6,558.4,88.6,557.4,89.8,557.4z"/>
		<rect x="99.1" y="571.3" class="st3" width="19.5" height="5.9"/>
		<path class="st2" d="M89.8,638.5h18.7c1.2,0,2.2,1,2.2,2.2v4.4c0,1.2-1,2.2-2.2,2.2H89.8c-1.2,0-2.2-1-2.2-2.2v-4.4
			C87.6,639.5,88.6,638.5,89.8,638.5z"/>
		<rect x="99.1" y="652.3" class="st3" width="19.5" height="5.9"/>
		<path class="st2" d="M89.8,719.5h18.7c1.2,0,2.2,1,2.2,2.2v4.5c0,1.2-1,2.2-2.2,2.2H89.8c-1.2,0-2.2-1-2.2-2.2v-4.5
			C87.6,720.5,88.6,719.5,89.8,719.5z"/>
		<rect x="99.1" y="733.4" class="st3" width="19.5" height="5.9"/>
		<path class="st4" d="M89.8,800.6h18.7c1.2,0,2.2,1,2.2,2.2v4.5c0,1.2-1,2.2-2.2,2.2H89.8c-1.2,0-2.2-1-2.2-2.2v-4.5
			C87.6,801.5,88.6,800.6,89.8,800.6z"/>
		<rect x="99.1" y="814.4" class="st5" width="19.5" height="5.9"/>
		<path class="st4" d="M89.8,881.6h18.7c1.2,0,2.2,1,2.2,2.2v4.5c0,1.2-1,2.2-2.2,2.2H89.8c-1.2,0-2.2-1-2.2-2.2v-4.5
			C87.6,882.6,88.6,881.6,89.8,881.6z"/>
		<rect x="99.1" y="895.5" class="st5" width="19.5" height="5.9"/>
		<path class="st4" d="M89.8,962.6h18.7c1.2,0,2.2,1,2.2,2.2v4.5c0,1.2-1,2.2-2.2,2.2H89.8c-1.2,0-2.2-1-2.2-2.2v-4.5
			C87.6,963.6,88.6,962.6,89.8,962.6z"/>
		<rect x="99.1" y="976.5" class="st5" width="19.5" height="5.9"/>
		<path class="st4" d="M89.8,1043.7h18.7c1.2,0,2.2,1,2.2,2.2v4.4c0,1.2-1,2.2-2.2,2.2H89.8c-1.2,0-2.2-1-2.2-2.2v-4.4
			C87.6,1044.7,88.6,1043.7,89.8,1043.7z"/>
		<rect x="99.1" y="1057.6" class="st5" width="19.5" height="5.9"/>
	</g>
</g>
<g id="Background_Pattern_16_">
	<g id="Row_1_16_" class="st1">
		<path class="st2" d="M163.9,600.3h18.7c1.2,0,2.2,1,2.2,2.2v4.5c0,1.2-1,2.2-2.2,2.2h-18.7c-1.2,0-2.2-1-2.2-2.2v-4.5
			C161.7,601.3,162.7,600.3,163.9,600.3z"/>
		<rect x="173.3" y="614.1" class="st3" width="19.5" height="5.9"/>
		<path class="st2" d="M163.9,681.3h18.7c1.2,0,2.2,1,2.2,2.2v4.5c0,1.2-1,2.2-2.2,2.2h-18.7c-1.2,0-2.2-1-2.2-2.2v-4.5
			C161.7,682.3,162.7,681.3,163.9,681.3z"/>
		<rect x="173.3" y="695.2" class="st3" width="19.5" height="5.9"/>
		<path class="st2" d="M163.9,762.4h18.7c1.2,0,2.2,1,2.2,2.2v4.5c0,1.2-1,2.2-2.2,2.2h-18.7c-1.2,0-2.2-1-2.2-2.2v-4.5
			C161.7,763.4,162.7,762.4,163.9,762.4z"/>
		<rect x="173.3" y="776.2" class="st3" width="19.5" height="5.9"/>
		<path class="st4" d="M163.9,843.4h18.7c1.2,0,2.2,1,2.2,2.2v4.5c0,1.2-1,2.2-2.2,2.2h-18.7c-1.2,0-2.2-1-2.2-2.2v-4.5
			C161.7,844.4,162.7,843.4,163.9,843.4z"/>
		<rect x="173.3" y="857.3" class="st5" width="19.5" height="5.9"/>
		<path class="st4" d="M163.9,924.4h18.7c1.2,0,2.2,1,2.2,2.2v4.5c0,1.2-1,2.2-2.2,2.2h-18.7c-1.2,0-2.2-1-2.2-2.2v-4.5
			C161.7,925.4,162.7,924.4,163.9,924.4z"/>
		<rect x="173.3" y="938.3" class="st5" width="19.5" height="5.9"/>
		<path class="st4" d="M163.9,1005.5h18.7c1.2,0,2.2,1,2.2,2.2v4.5c0,1.2-1,2.2-2.2,2.2h-18.7c-1.2,0-2.2-1-2.2-2.2v-4.5
			C161.7,1006.5,162.7,1005.5,163.9,1005.5z"/>
		<rect x="173.3" y="1019.4" class="st5" width="19.5" height="5.9"/>
		<path class="st4" d="M163.9,1086.5h18.7c1.2,0,2.2,1,2.2,2.2v4.4c0,1.2-1,2.2-2.2,2.2h-18.7c-1.2,0-2.2-1-2.2-2.2v-4.4
			C161.7,1087.5,162.7,1086.5,163.9,1086.5z"/>
		<rect x="173.3" y="1100.4" class="st5" width="19.5" height="5.9"/>
	</g>
</g>
<g id="Background_Pattern_14_">
	<g id="Row_1_14_" class="st1">
		<path class="st2" d="M235.9,557.4h18.7c1.2,0,2.2,1,2.2,2.2v4.5c0,1.2-1,2.2-2.2,2.2h-18.7c-1.2,0-2.2-1-2.2-2.2v-4.5
			C233.7,558.4,234.7,557.4,235.9,557.4z"/>
		<rect x="245.3" y="571.3" class="st3" width="19.5" height="5.9"/>
		<path class="st2" d="M235.9,638.5h18.7c1.2,0,2.2,1,2.2,2.2v4.4c0,1.2-1,2.2-2.2,2.2h-18.7c-1.2,0-2.2-1-2.2-2.2v-4.4
			C233.7,639.5,234.7,638.5,235.9,638.5z"/>
		<rect x="245.3" y="652.3" class="st3" width="19.5" height="5.9"/>
		<path class="st2" d="M235.9,719.5h18.7c1.2,0,2.2,1,2.2,2.2v4.5c0,1.2-1,2.2-2.2,2.2h-18.7c-1.2,0-2.2-1-2.2-2.2v-4.5
			C233.7,720.5,234.7,719.5,235.9,719.5z"/>
		<rect x="245.3" y="733.4" class="st3" width="19.5" height="5.9"/>
		<path class="st4" d="M235.9,800.6h18.7c1.2,0,2.2,1,2.2,2.2v4.5c0,1.2-1,2.2-2.2,2.2h-18.7c-1.2,0-2.2-1-2.2-2.2v-4.5
			C233.7,801.5,234.7,800.6,235.9,800.6z"/>
		<rect x="245.3" y="814.4" class="st5" width="19.5" height="5.9"/>
		<path class="st4" d="M235.9,881.6h18.7c1.2,0,2.2,1,2.2,2.2v4.5c0,1.2-1,2.2-2.2,2.2h-18.7c-1.2,0-2.2-1-2.2-2.2v-4.5
			C233.7,882.6,234.7,881.6,235.9,881.6z"/>
		<rect x="245.3" y="895.5" class="st5" width="19.5" height="5.9"/>
		<path class="st4" d="M235.9,962.6h18.7c1.2,0,2.2,1,2.2,2.2v4.5c0,1.2-1,2.2-2.2,2.2h-18.7c-1.2,0-2.2-1-2.2-2.2v-4.5
			C233.7,963.6,234.7,962.6,235.9,962.6z"/>
		<rect x="245.3" y="976.5" class="st5" width="19.5" height="5.9"/>
		<path class="st4" d="M235.9,1043.7h18.7c1.2,0,2.2,1,2.2,2.2v4.4c0,1.2-1,2.2-2.2,2.2h-18.7c-1.2,0-2.2-1-2.2-2.2v-4.4
			C233.7,1044.7,234.7,1043.7,235.9,1043.7z"/>
		<rect x="245.3" y="1057.6" class="st5" width="19.5" height="5.9"/>
	</g>
</g>
<g id="Background_Pattern_12_">
	<g id="Row_1_12_" class="st1">
		<path class="st2" d="M310.1,600.3h18.7c1.2,0,2.2,1,2.2,2.2v4.5c0,1.2-1,2.2-2.2,2.2h-18.7c-1.2,0-2.2-1-2.2-2.2v-4.5
			C307.9,601.3,308.8,600.3,310.1,600.3z"/>
		<rect x="319.4" y="614.1" class="st3" width="19.5" height="5.9"/>
		<path class="st2" d="M310.1,681.3h18.7c1.2,0,2.2,1,2.2,2.2v4.5c0,1.2-1,2.2-2.2,2.2h-18.7c-1.2,0-2.2-1-2.2-2.2v-4.5
			C307.9,682.3,308.8,681.3,310.1,681.3z"/>
		<rect x="319.4" y="695.2" class="st3" width="19.5" height="5.9"/>
		<path class="st2" d="M310.1,762.4h18.7c1.2,0,2.2,1,2.2,2.2v4.5c0,1.2-1,2.2-2.2,2.2h-18.7c-1.2,0-2.2-1-2.2-2.2v-4.5
			C307.9,763.4,308.8,762.4,310.1,762.4z"/>
		<rect x="319.4" y="776.2" class="st3" width="19.5" height="5.9"/>
		<path class="st4" d="M310.1,843.4h18.7c1.2,0,2.2,1,2.2,2.2v4.5c0,1.2-1,2.2-2.2,2.2h-18.7c-1.2,0-2.2-1-2.2-2.2v-4.5
			C307.9,844.4,308.8,843.4,310.1,843.4z"/>
		<rect x="319.4" y="857.3" class="st5" width="19.5" height="5.9"/>
		<path class="st4" d="M310.1,924.4h18.7c1.2,0,2.2,1,2.2,2.2v4.5c0,1.2-1,2.2-2.2,2.2h-18.7c-1.2,0-2.2-1-2.2-2.2v-4.5
			C307.9,925.4,308.8,924.4,310.1,924.4z"/>
		<rect x="319.4" y="938.3" class="st5" width="19.5" height="5.9"/>
		<path class="st4" d="M310.1,1005.5h18.7c1.2,0,2.2,1,2.2,2.2v4.5c0,1.2-1,2.2-2.2,2.2h-18.7c-1.2,0-2.2-1-2.2-2.2v-4.5
			C307.9,1006.5,308.8,1005.5,310.1,1005.5z"/>
		<rect x="319.4" y="1019.4" class="st5" width="19.5" height="5.9"/>
		<path class="st4" d="M310.1,1086.5h18.7c1.2,0,2.2,1,2.2,2.2v4.4c0,1.2-1,2.2-2.2,2.2h-18.7c-1.2,0-2.2-1-2.2-2.2v-4.4
			C307.9,1087.5,308.8,1086.5,310.1,1086.5z"/>
		<rect x="319.4" y="1100.4" class="st5" width="19.5" height="5.9"/>
	</g>
</g>
<g id="Background_Pattern_10_">
	<g id="Row_1_10_" class="st1">
		<path class="st2" d="M376.3,557.4H395c1.2,0,2.2,1,2.2,2.2v4.5c0,1.2-1,2.2-2.2,2.2h-18.7c-1.2,0-2.2-1-2.2-2.2v-4.5
			C374.1,558.4,375.1,557.4,376.3,557.4z"/>
		<rect x="385.6" y="571.3" class="st3" width="19.5" height="5.9"/>
		<path class="st2" d="M376.3,638.5H395c1.2,0,2.2,1,2.2,2.2v4.4c0,1.2-1,2.2-2.2,2.2h-18.7c-1.2,0-2.2-1-2.2-2.2v-4.4
			C374.1,639.5,375.1,638.5,376.3,638.5z"/>
		<rect x="385.6" y="652.3" class="st3" width="19.5" height="5.9"/>
		<path class="st2" d="M376.3,719.5H395c1.2,0,2.2,1,2.2,2.2v4.5c0,1.2-1,2.2-2.2,2.2h-18.7c-1.2,0-2.2-1-2.2-2.2v-4.5
			C374.1,720.5,375.1,719.5,376.3,719.5z"/>
		<rect x="385.6" y="733.4" class="st3" width="19.5" height="5.9"/>
		<path class="st4" d="M376.3,800.6H395c1.2,0,2.2,1,2.2,2.2v4.5c0,1.2-1,2.2-2.2,2.2h-18.7c-1.2,0-2.2-1-2.2-2.2v-4.5
			C374.1,801.5,375.1,800.6,376.3,800.6z"/>
		<rect x="385.6" y="814.4" class="st5" width="19.5" height="5.9"/>
		<path class="st4" d="M376.3,881.6H395c1.2,0,2.2,1,2.2,2.2v4.5c0,1.2-1,2.2-2.2,2.2h-18.7c-1.2,0-2.2-1-2.2-2.2v-4.5
			C374.1,882.6,375.1,881.6,376.3,881.6z"/>
		<rect x="385.6" y="895.5" class="st5" width="19.5" height="5.9"/>
		<path class="st4" d="M376.3,962.6H395c1.2,0,2.2,1,2.2,2.2v4.5c0,1.2-1,2.2-2.2,2.2h-18.7c-1.2,0-2.2-1-2.2-2.2v-4.5
			C374.1,963.6,375.1,962.6,376.3,962.6z"/>
		<rect x="385.6" y="976.5" class="st5" width="19.5" height="5.9"/>
		<path class="st4" d="M376.3,1043.7H395c1.2,0,2.2,1,2.2,2.2v4.4c0,1.2-1,2.2-2.2,2.2h-18.7c-1.2,0-2.2-1-2.2-2.2v-4.4
			C374.1,1044.7,375.1,1043.7,376.3,1043.7z"/>
		<rect x="385.6" y="1057.6" class="st5" width="19.5" height="5.9"/>
	</g>
</g>
<g id="Background_Pattern_8_">
	<g id="Row_1_8_" class="st1">
		<path class="st2" d="M456.2,600.3h18.7c1.2,0,2.2,1,2.2,2.2v4.5c0,1.2-1,2.2-2.2,2.2h-18.7c-1.2,0-2.2-1-2.2-2.2v-4.5
			C454,601.3,455,600.3,456.2,600.3z"/>
		<rect x="465.5" y="614.1" class="st3" width="19.5" height="5.9"/>
		<path class="st2" d="M456.2,681.3h18.7c1.2,0,2.2,1,2.2,2.2v4.5c0,1.2-1,2.2-2.2,2.2h-18.7c-1.2,0-2.2-1-2.2-2.2v-4.5
			C454,682.3,455,681.3,456.2,681.3z"/>
		<rect x="465.5" y="695.2" class="st3" width="19.5" height="5.9"/>
		<path class="st2" d="M456.2,762.4h18.7c1.2,0,2.2,1,2.2,2.2v4.5c0,1.2-1,2.2-2.2,2.2h-18.7c-1.2,0-2.2-1-2.2-2.2v-4.5
			C454,763.4,455,762.4,456.2,762.4z"/>
		<rect x="465.5" y="776.2" class="st3" width="19.5" height="5.9"/>
		<path class="st4" d="M456.2,843.4h18.7c1.2,0,2.2,1,2.2,2.2v4.5c0,1.2-1,2.2-2.2,2.2h-18.7c-1.2,0-2.2-1-2.2-2.2v-4.5
			C454,844.4,455,843.4,456.2,843.4z"/>
		<rect x="465.5" y="857.3" class="st5" width="19.5" height="5.9"/>
		<path class="st4" d="M456.2,924.4h18.7c1.2,0,2.2,1,2.2,2.2v4.5c0,1.2-1,2.2-2.2,2.2h-18.7c-1.2,0-2.2-1-2.2-2.2v-4.5
			C454,925.4,455,924.4,456.2,924.4z"/>
		<rect x="465.5" y="938.3" class="st5" width="19.5" height="5.9"/>
		<path class="st4" d="M456.2,1005.5h18.7c1.2,0,2.2,1,2.2,2.2v4.5c0,1.2-1,2.2-2.2,2.2h-18.7c-1.2,0-2.2-1-2.2-2.2v-4.5
			C454,1006.5,455,1005.5,456.2,1005.5z"/>
		<rect x="465.5" y="1019.4" class="st5" width="19.5" height="5.9"/>
		<path class="st4" d="M456.2,1086.5h18.7c1.2,0,2.2,1,2.2,2.2v4.4c0,1.2-1,2.2-2.2,2.2h-18.7c-1.2,0-2.2-1-2.2-2.2v-4.4
			C454,1087.5,455,1086.5,456.2,1086.5z"/>
		<rect x="465.5" y="1100.4" class="st5" width="19.5" height="5.9"/>
	</g>
</g>
<g id="Background_Pattern_6_">
	<g id="Row_1_6_" class="st1">
		<path class="st2" d="M522.4,557.4h18.7c1.2,0,2.2,1,2.2,2.2v4.5c0,1.2-1,2.2-2.2,2.2h-18.7c-1.2,0-2.2-1-2.2-2.2v-4.5
			C520.2,558.4,521.2,557.4,522.4,557.4z"/>
		<rect x="531.8" y="571.3" class="st3" width="19.5" height="5.9"/>
		<path class="st2" d="M522.4,638.5h18.7c1.2,0,2.2,1,2.2,2.2v4.4c0,1.2-1,2.2-2.2,2.2h-18.7c-1.2,0-2.2-1-2.2-2.2v-4.4
			C520.2,639.5,521.2,638.5,522.4,638.5z"/>
		<rect x="531.8" y="652.3" class="st3" width="19.5" height="5.9"/>
		<path class="st2" d="M522.4,719.5h18.7c1.2,0,2.2,1,2.2,2.2v4.5c0,1.2-1,2.2-2.2,2.2h-18.7c-1.2,0-2.2-1-2.2-2.2v-4.5
			C520.2,720.5,521.2,719.5,522.4,719.5z"/>
		<rect x="531.8" y="733.4" class="st3" width="19.5" height="5.9"/>
		<path class="st4" d="M522.4,800.6h18.7c1.2,0,2.2,1,2.2,2.2v4.5c0,1.2-1,2.2-2.2,2.2h-18.7c-1.2,0-2.2-1-2.2-2.2v-4.5
			C520.2,801.5,521.2,800.6,522.4,800.6z"/>
		<rect x="531.8" y="814.4" class="st5" width="19.5" height="5.9"/>
		<path class="st4" d="M522.4,881.6h18.7c1.2,0,2.2,1,2.2,2.2v4.5c0,1.2-1,2.2-2.2,2.2h-18.7c-1.2,0-2.2-1-2.2-2.2v-4.5
			C520.2,882.6,521.2,881.6,522.4,881.6z"/>
		<rect x="531.8" y="895.5" class="st5" width="19.5" height="5.9"/>
		<path class="st4" d="M522.4,962.6h18.7c1.2,0,2.2,1,2.2,2.2v4.5c0,1.2-1,2.2-2.2,2.2h-18.7c-1.2,0-2.2-1-2.2-2.2v-4.5
			C520.2,963.6,521.2,962.6,522.4,962.6z"/>
		<rect x="531.8" y="976.5" class="st5" width="19.5" height="5.9"/>
		<path class="st4" d="M522.4,1043.7h18.7c1.2,0,2.2,1,2.2,2.2v4.4c0,1.2-1,2.2-2.2,2.2h-18.7c-1.2,0-2.2-1-2.2-2.2v-4.4
			C520.2,1044.7,521.2,1043.7,522.4,1043.7z"/>
		<rect x="531.8" y="1057.6" class="st5" width="19.5" height="5.9"/>
	</g>
</g>
<g id="Background_Pattern_4_">
	<g id="Row_1_4_" class="st1">
		<path class="st2" d="M602.3,600.3H621c1.2,0,2.2,1,2.2,2.2v4.5c0,1.2-1,2.2-2.2,2.2h-18.7c-1.2,0-2.2-1-2.2-2.2v-4.5
			C600.1,601.3,601.1,600.3,602.3,600.3z"/>
		<rect x="611.7" y="614.1" class="st3" width="19.5" height="5.9"/>
		<path class="st2" d="M602.3,681.3H621c1.2,0,2.2,1,2.2,2.2v4.5c0,1.2-1,2.2-2.2,2.2h-18.7c-1.2,0-2.2-1-2.2-2.2v-4.5
			C600.1,682.3,601.1,681.3,602.3,681.3z"/>
		<rect x="611.7" y="695.2" class="st3" width="19.5" height="5.9"/>
		<path class="st2" d="M602.3,762.4H621c1.2,0,2.2,1,2.2,2.2v4.5c0,1.2-1,2.2-2.2,2.2h-18.7c-1.2,0-2.2-1-2.2-2.2v-4.5
			C600.1,763.4,601.1,762.4,602.3,762.4z"/>
		<rect x="611.7" y="776.2" class="st3" width="19.5" height="5.9"/>
		<path class="st4" d="M602.3,843.4H621c1.2,0,2.2,1,2.2,2.2v4.5c0,1.2-1,2.2-2.2,2.2h-18.7c-1.2,0-2.2-1-2.2-2.2v-4.5
			C600.1,844.4,601.1,843.4,602.3,843.4z"/>
		<rect x="611.7" y="857.3" class="st5" width="19.5" height="5.9"/>
		<path class="st4" d="M602.3,924.4H621c1.2,0,2.2,1,2.2,2.2v4.5c0,1.2-1,2.2-2.2,2.2h-18.7c-1.2,0-2.2-1-2.2-2.2v-4.5
			C600.1,925.4,601.1,924.4,602.3,924.4z"/>
		<rect x="611.7" y="938.3" class="st5" width="19.5" height="5.9"/>
		<path class="st4" d="M602.3,1005.5H621c1.2,0,2.2,1,2.2,2.2v4.5c0,1.2-1,2.2-2.2,2.2h-18.7c-1.2,0-2.2-1-2.2-2.2v-4.5
			C600.1,1006.5,601.1,1005.5,602.3,1005.5z"/>
		<rect x="611.7" y="1019.4" class="st5" width="19.5" height="5.9"/>
		<path class="st4" d="M602.3,1086.5H621c1.2,0,2.2,1,2.2,2.2v4.4c0,1.2-1,2.2-2.2,2.2h-18.7c-1.2,0-2.2-1-2.2-2.2v-4.4
			C600.1,1087.5,601.1,1086.5,602.3,1086.5z"/>
		<rect x="611.7" y="1100.4" class="st5" width="19.5" height="5.9"/>
	</g>
</g>
<g id="Background_Pattern_2_">
	<g id="Row_1_2_" class="st1">
		<path class="st2" d="M680.1,564h18.7c1.2,0,2.2,1,2.2,2.2v4.5c0,1.2-1,2.2-2.2,2.2h-18.7c-1.2,0-2.2-1-2.2-2.2v-4.5
			C677.9,564.9,678.9,564,680.1,564z"/>
		<rect x="689.4" y="577.8" class="st3" width="19.5" height="5.9"/>
		<path class="st2" d="M680.1,645h18.7c1.2,0,2.2,1,2.2,2.2v4.4c0,1.2-1,2.2-2.2,2.2h-18.7c-1.2,0-2.2-1-2.2-2.2v-4.4
			C677.9,646,678.9,645,680.1,645z"/>
		<rect x="689.4" y="658.9" class="st3" width="19.5" height="5.9"/>
		<path class="st2" d="M680.1,726.1h18.7c1.2,0,2.2,1,2.2,2.2v4.5c0,1.2-1,2.2-2.2,2.2h-18.7c-1.2,0-2.2-1-2.2-2.2v-4.5
			C677.9,727,678.9,726.1,680.1,726.1z"/>
		<rect x="689.4" y="739.9" class="st3" width="19.5" height="5.9"/>
		<path class="st4" d="M680.1,807.1h18.7c1.2,0,2.2,1,2.2,2.2v4.5c0,1.2-1,2.2-2.2,2.2h-18.7c-1.2,0-2.2-1-2.2-2.2v-4.5
			C677.9,808.1,678.9,807.1,680.1,807.1z"/>
		<rect x="689.4" y="821" class="st5" width="19.5" height="5.9"/>
		<path class="st4" d="M680.1,888.1h18.7c1.2,0,2.2,1,2.2,2.2v4.5c0,1.2-1,2.2-2.2,2.2h-18.7c-1.2,0-2.2-1-2.2-2.2v-4.5
			C677.9,889.1,678.9,888.1,680.1,888.1z"/>
		<rect x="689.4" y="902" class="st5" width="19.5" height="5.9"/>
		<path class="st4" d="M680.1,969.2h18.7c1.2,0,2.2,1,2.2,2.2v4.5c0,1.2-1,2.2-2.2,2.2h-18.7c-1.2,0-2.2-1-2.2-2.2v-4.5
			C677.9,970.2,678.9,969.2,680.1,969.2z"/>
		<rect x="689.4" y="983.1" class="st5" width="19.5" height="5.9"/>
		<path class="st4" d="M680.1,1050.2h18.7c1.2,0,2.2,1,2.2,2.2v4.5c0,1.2-1,2.2-2.2,2.2h-18.7c-1.2,0-2.2-1-2.2-2.2v-4.5
			C677.9,1051.2,678.9,1050.2,680.1,1050.2z"/>
		<rect x="689.4" y="1064.1" class="st5" width="19.5" height="5.9"/>
	</g>
</g>
<g id="Background_Pattern_1_">
	<g id="Row_1_1_" class="st1">
		<path class="st2" d="M748.5,600.3h18.7c1.2,0,2.2,1,2.2,2.2v4.5c0,1.2-1,2.2-2.2,2.2h-18.7c-1.2,0-2.2-1-2.2-2.2v-4.5
			C746.2,601.3,747.2,600.3,748.5,600.3z"/>
		<rect x="757.8" y="614.1" class="st3" width="19.5" height="5.9"/>
		<path class="st2" d="M748.5,681.3h18.7c1.2,0,2.2,1,2.2,2.2v4.5c0,1.2-1,2.2-2.2,2.2h-18.7c-1.2,0-2.2-1-2.2-2.2v-4.5
			C746.2,682.3,747.2,681.3,748.5,681.3z"/>
		<rect x="757.8" y="695.2" class="st3" width="19.5" height="5.9"/>
		<path class="st2" d="M748.5,762.4h18.7c1.2,0,2.2,1,2.2,2.2v4.5c0,1.2-1,2.2-2.2,2.2h-18.7c-1.2,0-2.2-1-2.2-2.2v-4.5
			C746.2,763.4,747.2,762.4,748.5,762.4z"/>
		<rect x="757.8" y="776.2" class="st3" width="19.5" height="5.9"/>
		<path class="st4" d="M748.5,843.4h18.7c1.2,0,2.2,1,2.2,2.2v4.5c0,1.2-1,2.2-2.2,2.2h-18.7c-1.2,0-2.2-1-2.2-2.2v-4.5
			C746.2,844.4,747.2,843.4,748.5,843.4z"/>
		<rect x="757.8" y="857.3" class="st5" width="19.5" height="5.9"/>
		<path class="st4" d="M748.5,924.4h18.7c1.2,0,2.2,1,2.2,2.2v4.5c0,1.2-1,2.2-2.2,2.2h-18.7c-1.2,0-2.2-1-2.2-2.2v-4.5
			C746.2,925.4,747.2,924.4,748.5,924.4z"/>
		<rect x="757.8" y="938.3" class="st5" width="19.5" height="5.9"/>
		<path class="st4" d="M748.5,1005.5h18.7c1.2,0,2.2,1,2.2,2.2v4.5c0,1.2-1,2.2-2.2,2.2h-18.7c-1.2,0-2.2-1-2.2-2.2v-4.5
			C746.2,1006.5,747.2,1005.5,748.5,1005.5z"/>
		<rect x="757.8" y="1019.4" class="st5" width="19.5" height="5.9"/>
		<path class="st4" d="M748.5,1086.5h18.7c1.2,0,2.2,1,2.2,2.2v4.4c0,1.2-1,2.2-2.2,2.2h-18.7c-1.2,0-2.2-1-2.2-2.2v-4.4
			C746.2,1087.5,747.2,1086.5,748.5,1086.5z"/>
		<rect x="757.8" y="1100.4" class="st5" width="19.5" height="5.9"/>
	</g>
</g>
</svg>
