<?xml version="1.0" encoding="utf-8"?>
<!-- Generator: Adobe Illustrator 22.1.0, SVG Export Plug-In . SVG Version: 6.00 Build 0)  -->
<svg version="1.1" id="Layer_1" xmlns="http://www.w3.org/2000/svg" xmlns:xlink="http://www.w3.org/1999/xlink" x="0px" y="0px"
	 viewBox="0 0 375 667" style="enable-background:new 0 0 375 667;" xml:space="preserve">
<style type="text/css">
	.st0{fill:#E5F3F2;}
	.st1{opacity:0.49;}
	.st2{fill:#A5C76A;enable-background:new    ;}
	.st3{fill:#F6BF75;enable-background:new    ;}
	.st4{fill:#A5C76A;}
	.st5{fill:#F6BF75;}
</style>
<title>background-pattern</title>
<rect class="st0" width="374.9" height="667"/>
<g id="Background_Pattern">
	<g id="Row_1" class="st1">
		<path class="st2" d="M16.8,19.4h18.8c1.2,0,2.2,1,2.2,2.2v4.5c0,1.2-1,2.2-2.2,2.2H16.8c-1.2,0-2.2-1-2.2-2.2v-4.5
			C14.5,20.4,15.6,19.4,16.8,19.4z"/>
		<rect x="26.2" y="33.3" class="st3" width="19.6" height="5.9"/>
		<path class="st2" d="M16.8,100.5h18.8c1.2,0,2.2,1,2.2,2.2v4.4c0,1.2-1,2.2-2.2,2.2H16.8c-1.2,0-2.2-1-2.2-2.2v-4.4
			C14.5,101.5,15.6,100.5,16.8,100.5z"/>
		<rect x="26.2" y="114.3" class="st3" width="19.6" height="5.9"/>
		<path class="st2" d="M16.8,181.5h18.8c1.2,0,2.2,1,2.2,2.2v4.4c0,1.2-1,2.2-2.2,2.2H16.8c-1.2,0-2.2-1-2.2-2.2v-4.4
			C14.5,182.5,15.6,181.5,16.8,181.5z"/>
		<rect x="26.2" y="195.4" class="st3" width="19.6" height="5.9"/>
		<path class="st4" d="M16.8,262.6h18.8c1.2,0,2.2,1,2.2,2.2v4.5c0,1.2-1,2.2-2.2,2.2H16.8c-1.2,0-2.2-1-2.2-2.2v-4.5
			C14.5,263.6,15.6,262.6,16.8,262.6z"/>
		<rect x="26.2" y="276.4" class="st5" width="19.6" height="5.9"/>
		<path class="st4" d="M16.8,343.6h18.8c1.2,0,2.2,1,2.2,2.2v4.5c0,1.2-1,2.2-2.2,2.2H16.8c-1.2,0-2.2-1-2.2-2.2v-4.5
			C14.5,344.6,15.6,343.6,16.8,343.6z"/>
		<rect x="26.2" y="357.5" class="st5" width="19.6" height="5.9"/>
		<path class="st4" d="M16.8,424.6h18.8c1.2,0,2.2,1,2.2,2.2v4.5c0,1.2-1,2.2-2.2,2.2H16.8c-1.2,0-2.2-1-2.2-2.2v-4.5
			C14.5,425.6,15.6,424.6,16.8,424.6z"/>
		<rect x="26.2" y="438.5" class="st5" width="19.6" height="5.9"/>
		<path class="st4" d="M16.8,505.7h18.8c1.2,0,2.2,1,2.2,2.2v4.5c0,1.2-1,2.2-2.2,2.2H16.8c-1.2,0-2.2-1-2.2-2.2v-4.5
			C14.5,506.7,15.6,505.7,16.8,505.7z"/>
		<rect x="26.2" y="519.6" class="st5" width="19.6" height="5.9"/>
		<path class="st4" d="M16.8,586.8h18.8c1.2,0,2.2,1,2.2,2.2v4.5c0,1.2-1,2.2-2.2,2.2H16.8c-1.2,0-2.2-1-2.2-2.2V589
			C14.5,587.7,15.6,586.8,16.8,586.8z"/>
		<rect x="26.2" y="600.6" class="st5" width="19.6" height="5.9"/>
	</g>
	<g id="Row_1-2" class="st1">
		<path class="st2" d="M166.8,18.6h18.8c1.2,0,2.2,1,2.2,2.2v4.5c0,1.2-1,2.2-2.2,2.2h-18.8c-1.2,0-2.2-1-2.2-2.2v-4.5
			C164.6,19.6,165.6,18.6,166.8,18.6z"/>
		<rect x="176.2" y="32.4" class="st3" width="19.6" height="5.9"/>
		<path class="st2" d="M166.8,99.6h18.8c1.2,0,2.2,1,2.2,2.2v4.4c0,1.2-1,2.2-2.2,2.2h-18.8c-1.2,0-2.2-1-2.2-2.2v-4.4
			C164.6,100.6,165.6,99.6,166.8,99.6z"/>
		<rect x="176.2" y="113.5" class="st3" width="19.6" height="5.9"/>
		<path class="st2" d="M166.8,180.7h18.8c1.2,0,2.2,1,2.2,2.2v4.4c0,1.2-1,2.2-2.2,2.2h-18.8c-1.2,0-2.2-1-2.2-2.2v-4.4
			C164.6,181.7,165.6,180.7,166.8,180.7z"/>
		<rect x="176.2" y="194.5" class="st3" width="19.6" height="5.9"/>
		<path class="st4" d="M166.8,261.7h18.8c1.2,0,2.2,1,2.2,2.2v4.5c0,1.2-1,2.2-2.2,2.2h-18.8c-1.2,0-2.2-1-2.2-2.2v-4.5
			C164.6,262.7,165.6,261.7,166.8,261.7z"/>
		<rect x="176.2" y="275.6" class="st5" width="19.6" height="5.9"/>
		<path class="st4" d="M166.8,342.8h18.8c1.2,0,2.2,1,2.2,2.2v4.5c0,1.2-1,2.2-2.2,2.2h-18.8c-1.2,0-2.2-1-2.2-2.2V345
			C164.6,343.7,165.6,342.8,166.8,342.8z"/>
		<rect x="176.2" y="356.6" class="st5" width="19.6" height="5.9"/>
		<path class="st4" d="M166.8,423.8h18.8c1.2,0,2.2,1,2.2,2.2v4.5c0,1.2-1,2.2-2.2,2.2h-18.8c-1.2,0-2.2-1-2.2-2.2V426
			C164.6,424.8,165.6,423.8,166.8,423.8z"/>
		<rect x="176.2" y="437.7" class="st5" width="19.6" height="5.9"/>
		<path class="st4" d="M166.8,504.8h18.8c1.2,0,2.2,1,2.2,2.2v4.4c0,1.2-1,2.2-2.2,2.2h-18.8c-1.2,0-2.2-1-2.2-2.2v-4.4
			C164.6,505.8,165.6,504.8,166.8,504.8z"/>
		<rect x="176.2" y="518.7" class="st5" width="19.6" height="5.9"/>
		<path class="st4" d="M166.8,585.9h18.8c1.2,0,2.2,1,2.2,2.2v4.5c0,1.2-1,2.2-2.2,2.2h-18.8c-1.2,0-2.2-1-2.2-2.2v-4.5
			C164.6,586.9,165.6,585.9,166.8,585.9z"/>
		<rect x="176.2" y="599.8" class="st5" width="19.6" height="5.9"/>
	</g>
	<g id="Row_1-3" class="st1">
		<path class="st2" d="M347.3,19.4h18.8c1.2,0,2.2,1,2.2,2.2v4.5c0,1.2-1,2.2-2.2,2.2h-18.8c-1.2,0-2.2-1-2.2-2.2v-4.5
			C345.1,20.4,346.1,19.4,347.3,19.4z"/>
		<rect x="356.7" y="33.3" class="st3" width="19.6" height="5.9"/>
		<path class="st2" d="M347.3,100.5h18.8c1.2,0,2.2,1,2.2,2.2v4.4c0,1.2-1,2.2-2.2,2.2h-18.8c-1.2,0-2.2-1-2.2-2.2v-4.4
			C345.1,101.5,346.1,100.5,347.3,100.5z"/>
		<rect x="356.7" y="114.3" class="st3" width="19.6" height="5.9"/>
		<path class="st2" d="M347.3,181.5h18.8c1.2,0,2.2,1,2.2,2.2v4.4c0,1.2-1,2.2-2.2,2.2h-18.8c-1.2,0-2.2-1-2.2-2.2v-4.4
			C345.1,182.5,346.1,181.5,347.3,181.5z"/>
		<rect x="356.7" y="195.4" class="st3" width="19.6" height="5.9"/>
		<path class="st4" d="M347.3,262.6h18.8c1.2,0,2.2,1,2.2,2.2v4.5c0,1.2-1,2.2-2.2,2.2h-18.8c-1.2,0-2.2-1-2.2-2.2v-4.5
			C345.1,263.6,346.1,262.6,347.3,262.6z"/>
		<rect x="356.7" y="276.4" class="st5" width="19.6" height="5.9"/>
		<path class="st4" d="M347.3,343.6h18.8c1.2,0,2.2,1,2.2,2.2v4.5c0,1.2-1,2.2-2.2,2.2h-18.8c-1.2,0-2.2-1-2.2-2.2v-4.5
			C345.1,344.6,346.1,343.6,347.3,343.6z"/>
		<rect x="356.7" y="357.5" class="st5" width="19.6" height="5.9"/>
		<path class="st4" d="M347.3,424.6h18.8c1.2,0,2.2,1,2.2,2.2v4.5c0,1.2-1,2.2-2.2,2.2h-18.8c-1.2,0-2.2-1-2.2-2.2v-4.5
			C345.1,425.6,346.1,424.6,347.3,424.6z"/>
		<rect x="356.7" y="438.5" class="st5" width="19.6" height="5.9"/>
		<path class="st4" d="M347.3,505.7h18.8c1.2,0,2.2,1,2.2,2.2v4.5c0,1.2-1,2.2-2.2,2.2h-18.8c-1.2,0-2.2-1-2.2-2.2v-4.5
			C345.1,506.7,346.1,505.7,347.3,505.7z"/>
		<rect x="356.7" y="519.6" class="st5" width="19.6" height="5.9"/>
		<path class="st4" d="M347.3,586.8h18.8c1.2,0,2.2,1,2.2,2.2v4.5c0,1.2-1,2.2-2.2,2.2h-18.8c-1.2,0-2.2-1-2.2-2.2V589
			C345.1,587.7,346.1,586.8,347.3,586.8z"/>
		<rect x="356.7" y="600.6" class="st5" width="19.6" height="5.9"/>
	</g>
	<g id="Row_1-4" class="st1">
		<path class="st2" d="M69,65.1h18.8c1.2,0,2.2,1,2.2,2.2v4.4c0,1.2-1,2.2-2.2,2.2H69c-1.2,0-2.2-1-2.2-2.2v-4.4
			C66.7,66.1,67.7,65.1,69,65.1z"/>
		<rect x="78.4" y="79" class="st3" width="19.6" height="5.9"/>
		<path class="st2" d="M69,146.1h18.8c1.2,0,2.2,1,2.2,2.2v4.4c0,1.2-1,2.2-2.2,2.2H69c-1.2,0-2.2-1-2.2-2.2v-4.4
			C66.7,147.1,67.7,146.1,69,146.1z"/>
		<rect x="78.4" y="160" class="st3" width="19.6" height="5.9"/>
		<path class="st2" d="M69,227.2h18.8c1.2,0,2.2,1,2.2,2.2v4.4c0,1.2-1,2.2-2.2,2.2H69c-1.2,0-2.2-1-2.2-2.2v-4.4
			C66.7,228.2,67.7,227.2,69,227.2z"/>
		<rect x="78.4" y="241.1" class="st3" width="19.6" height="5.9"/>
		<path class="st4" d="M69,308.2h18.8c1.2,0,2.2,1,2.2,2.2v4.5c0,1.2-1,2.2-2.2,2.2H69c-1.2,0-2.2-1-2.2-2.2v-4.5
			C66.7,309.2,67.7,308.2,69,308.2z"/>
		<rect x="78.4" y="322.1" class="st5" width="19.6" height="5.9"/>
		<path class="st4" d="M69,389.3h18.8c1.2,0,2.2,1,2.2,2.2v4.5c0,1.2-1,2.2-2.2,2.2H69c-1.2,0-2.2-1-2.2-2.2v-4.5
			C66.7,390.3,67.7,389.3,69,389.3z"/>
		<rect x="78.4" y="403.1" class="st5" width="19.6" height="5.9"/>
		<path class="st4" d="M69,470.3h18.8c1.2,0,2.2,1,2.2,2.2v4.5c0,1.2-1,2.2-2.2,2.2H69c-1.2,0-2.2-1-2.2-2.2v-4.5
			C66.7,471.3,67.7,470.3,69,470.3z"/>
		<rect x="78.4" y="484.2" class="st5" width="19.6" height="5.9"/>
		<path class="st4" d="M69,551.4h18.8c1.2,0,2.2,1,2.2,2.2v4.5c0,1.2-1,2.2-2.2,2.2H69c-1.2,0-2.2-1-2.2-2.2v-4.5
			C66.7,552.4,67.7,551.4,69,551.4z"/>
		<rect x="78.4" y="565.2" class="st5" width="19.6" height="5.9"/>
		<path class="st4" d="M69,632.4h18.8c1.2,0,2.2,1,2.2,2.2v4.5c0,1.2-1,2.2-2.2,2.2H69c-1.2,0-2.2-1-2.2-2.2v-4.5
			C66.7,633.4,67.7,632.4,69,632.4z"/>
		<rect x="78.4" y="646.3" class="st5" width="19.6" height="5.9"/>
	</g>
	<g id="Row_1-5" class="st1">
		<path class="st2" d="M254.3,64.5h18.8c1.2,0,2.2,1,2.2,2.2v4.4c0,1.2-1,2.2-2.2,2.2h-18.8c-1.2,0-2.2-1-2.2-2.2v-4.4
			C252.1,65.5,253.1,64.5,254.3,64.5z"/>
		<rect x="263.7" y="78.4" class="st3" width="19.6" height="5.9"/>
		<path class="st2" d="M254.3,145.6h18.8c1.2,0,2.2,1,2.2,2.2v4.4c0,1.2-1,2.2-2.2,2.2h-18.8c-1.2,0-2.2-1-2.2-2.2v-4.4
			C252.1,146.6,253.1,145.6,254.3,145.6z"/>
		<rect x="263.7" y="159.4" class="st3" width="19.6" height="5.9"/>
		<path class="st2" d="M254.3,226.6h18.8c1.2,0,2.2,1,2.2,2.2v4.4c0,1.2-1,2.2-2.2,2.2h-18.8c-1.2,0-2.2-1-2.2-2.2v-4.4
			C252.1,227.6,253.1,226.6,254.3,226.6z"/>
		<rect x="263.7" y="240.5" class="st3" width="19.6" height="5.9"/>
		<path class="st4" d="M254.3,307.7h18.8c1.2,0,2.2,1,2.2,2.2v4.5c0,1.2-1,2.2-2.2,2.2h-18.8c-1.2,0-2.2-1-2.2-2.2v-4.5
			C252.1,308.7,253.1,307.7,254.3,307.7z"/>
		<rect x="263.7" y="321.5" class="st5" width="19.6" height="5.9"/>
		<path class="st4" d="M254.3,388.7h18.8c1.2,0,2.2,1,2.2,2.2v4.5c0,1.2-1,2.2-2.2,2.2h-18.8c-1.2,0-2.2-1-2.2-2.2v-4.5
			C252.1,389.7,253.1,388.7,254.3,388.7z"/>
		<rect x="263.7" y="402.6" class="st5" width="19.6" height="5.9"/>
		<path class="st4" d="M254.3,469.8h18.8c1.2,0,2.2,1,2.2,2.2v4.5c0,1.2-1,2.2-2.2,2.2h-18.8c-1.2,0-2.2-1-2.2-2.2V472
			C252.1,470.8,253.1,469.8,254.3,469.8z"/>
		<rect x="263.7" y="483.6" class="st5" width="19.6" height="5.9"/>
		<path class="st4" d="M254.3,550.8h18.8c1.2,0,2.2,1,2.2,2.2v4.5c0,1.2-1,2.2-2.2,2.2h-18.8c-1.2,0-2.2-1-2.2-2.2V553
			C252.1,551.8,253.1,550.8,254.3,550.8z"/>
		<rect x="263.7" y="564.7" class="st5" width="19.6" height="5.9"/>
		<path class="st4" d="M254.3,631.8h18.8c1.2,0,2.2,1,2.2,2.2v4.5c0,1.2-1,2.2-2.2,2.2h-18.8c-1.2,0-2.2-1-2.2-2.2v-4.5
			C252.1,632.8,253.1,631.8,254.3,631.8z"/>
		<rect x="263.7" y="645.7" class="st5" width="19.6" height="5.9"/>
	</g>
</g>
</svg>
