<?xml version="1.0" encoding="utf-8"?>
<!-- Generator: Adobe Illustrator 23.0.0, SVG Export Plug-In . SVG Version: 6.00 Build 0)  -->
<svg version="1.1" id="Layer_1" xmlns="http://www.w3.org/2000/svg" xmlns:xlink="http://www.w3.org/1999/xlink" x="0px" y="0px"
	 viewBox="0 0 236 141.3" style="enable-background:new 0 0 236 141.3;" xml:space="preserve">
<style type="text/css">
	.st0{fill:none;stroke:#56B5B7;stroke-miterlimit:10;}
	.st1{fill:#CBCCCC;}
	.st2{fill:#DE625B;}
	.st3{fill:#BB4540;}
	.st4{fill:#FFFFFF;}
</style>
<g>
	<ellipse class="st0" cx="124.4" cy="70.6" rx="41.3" ry="43.8"/>
	<ellipse class="st0" cx="124.6" cy="70.8" rx="58.5" ry="62"/>
	<path class="st1" d="M113.4,120.5c0,3-0.6,10.7-2.8,13.1c-1.7,3-4.4,3.5-5.4,2.3c-1.1-1.2-3.2-6.6-3.2-10.2
		c0.1-3.3,5.6-70.2,5.6-70.2s-4.9-9.1-5.9-10.8c-2.3-4.2,1-38.3,2.5-40c1.5,1.7,0.1,24.2,0.9,24.6c0.7,0.3,0.5,1.2,1.1-0.6
		c0-1.8,0.1-23.4,1.5-23.9c1.5,0.1,1.1,24.5,1.2,24.5c0.5,0.6,1.1,0.4,1.4-0.8c0.2-1,0-23.8,1.2-23.6c1.4,0,1.4,23,1.3,24.1
		c0.3,1.1,1,1.6,1.5,0c0.3-1.7,0.3-24.2,0.3-24.2c2-0.4,5.1,35.8,2.1,40.3c-0.7,2.7-5.8,10.1-5.9,10.8c0,0.8,3,58.1,2.7,64.2
		C113.5,120.3,113.4,120.4,113.4,120.5z"/>
	<path class="st1" d="M146.8,4.1l-1.2,56.2l-0.7,3.5c0,0,1.5,63.7-0.4,67.9c-2,4.2-8.6,11.8-11.9,0c-3.2-11.8,5.9-63.6,2.5-66.6
		c-4.9-4.3-10.6-47,5-59.5C144.7,2.4,146.4,3.2,146.8,4.1z"/>
	<path class="st2" d="M236,90.2c-6.8-3.2-14-5-21.4-6.1l-6.3,18.2c-0.1,0-0.1,0-0.2,0l12-35C151.8,45,85,46.8,19.4,67.3l5.4,16
		c-6.9,0.7-13.8,3-20.8,6.2c6.2,2.6,12.3,5.3,17.1,10c-3,5.4-5.1,11.4-6.4,18c12.2-5.9,24.6-6.8,37.3-2.2l5.6-20.2l-0.1,0
		c50.1-11.3,100.1-9,150.1,7.2c-9.9,0.8-15.9,5.2-18.8,12.8c12.5-4.5,24.5-3.6,36.1,2c-0.9-6.4-2.8-12.1-6-17.1
		C223.7,95.8,229.5,92.7,236,90.2z"/>
	<path class="st3" d="M57.8,95.3l-5.6,20.2c-3-9.4-10.7-12.6-20.2-13.3L57.8,95.3"/>
	<path class="st3" d="M184,95.5l5.4,19.4c2.6-7.4,8.9-11.8,19.3-12.8L184,95.5z"/>
	<g>
		<path class="st4" d="M45.3,68.1c0.4,0.8,0.1,1.5-1,2.2c0.1-0.1-0.9,0.3-3,1.3c-2.2,0.9-4.4,2.1-6.7,3.4c1.1,1.4,2.4,3.4,3.9,6.1
			c0.4-0.2,0.9-0.5,1.6-0.9c1.1-0.6,2.1-1.3,3.1-2c1-0.7,1.4-1,1.4-1c1-0.6,1.7-0.4,2.2,0.5c0.4,0.8-0.1,1.8-1.6,2.9
			c-0.4,0.3-1.6,1-3.4,2.1l-1.7,1c2.3,4.5,3.7,7.6,4.2,9.2c0.7,2.1,0.7,3.4,0,3.8c-0.8,0.5-1.4,0.3-1.9-0.6c0.2,0.3-0.3-0.8-1.3-3.3
			c-1-2.5-2.2-5.1-3.6-7.7c-2.1-4-3.8-6.8-5.1-8.5c-0.9,0.8-1.5,1.3-2,1.5c-1,0.6-1.7,0.4-2.2-0.6c-0.6-1.2,1.5-3.2,6.3-6
			c3.1-1.8,5.8-3.1,8.2-4C44,67.1,44.9,67.3,45.3,68.1z"/>
		<path class="st4" d="M67.8,74.7c0.5,3,0.1,5.6-1.2,7.7c-1.3,2.1-3.4,3.4-6.2,4c-2.3,0.5-4.2,0-5.8-1.4c-1.6-1.4-2.7-3.6-3.2-6.6
			c-0.5-3.1-0.2-5.7,1.1-7.7c1.2-2,3.2-3.3,6-3.8c2.3-0.5,4.3,0,6,1.5C66.2,69.8,67.3,71.9,67.8,74.7z M64.9,75.3
			c-0.4-2.1-1.1-3.6-2.3-4.6c-1.1-1-2.5-1.3-4.2-1c-3.6,0.7-5.1,3.4-4.2,8c0.4,2.1,1.1,3.7,2.1,4.7c1,1,2.2,1.3,3.7,1.1
			c1.9-0.4,3.3-1.3,4.2-2.7C65.1,79.3,65.3,77.5,64.9,75.3z"/>
		<path class="st4" d="M86.7,72.7c0.3,3-0.3,5.6-1.8,7.5c-1.5,2-3.7,3.1-6.5,3.4c-2.3,0.2-4.2-0.4-5.7-2c-1.5-1.5-2.4-3.8-2.6-6.8
			c-0.3-3.2,0.3-5.7,1.7-7.6c1.4-1.9,3.5-3,6.3-3.2c2.3-0.2,4.3,0.4,5.9,2C85.5,67.7,86.5,69.9,86.7,72.7z M83.8,73.1
			c-0.2-2.1-0.8-3.7-1.9-4.7c-1.1-1.1-2.4-1.5-4.1-1.4c-3.7,0.4-5.3,2.9-4.9,7.6c0.2,2.2,0.8,3.8,1.7,4.9c0.9,1.1,2.1,1.5,3.6,1.4
			c1.9-0.2,3.4-1,4.4-2.4C83.6,77.1,84,75.3,83.8,73.1z"/>
		<path class="st4" d="M104.8,59.5c0-0.1,0,0.7-0.1,2.3c0,1.9-0.1,3.9-0.1,6c0,3.1,0.1,6.3,0.3,9.8c0,0.7,0.1,1.4,0.1,2.2
			c0,0.7,0.1,1.1,0.1,1.2c0.1,1.5-0.4,2.3-1.3,2.4c-1,0.1-1.6-0.8-1.6-2.5c0-0.4,0-0.7,0-1c-1.8,2-3.9,3.1-6.3,3.2
			c-2,0.1-3.7-0.5-4.9-1.9c-1.3-1.3-1.9-3.2-2-5.7c-0.1-3.3,0.6-6.1,2.2-8.2c1.6-2.1,3.9-3.3,6.7-3.4c1.3-0.1,2.7,0.2,4.1,0.7
			c-0.1-2.9,0-4.6,0-5.2c0.2-1.1,0.7-1.6,1.6-1.7C104.3,57.8,104.7,58.3,104.8,59.5z M101.9,67.8c-1.3-0.8-2.6-1.2-3.9-1.1
			c-2,0.1-3.5,0.9-4.6,2.4c-1.1,1.5-1.6,3.5-1.5,6c0.1,1.7,0.5,3,1.3,3.9c0.8,0.9,1.9,1.3,3.3,1.3c1.7-0.1,3-0.8,3.9-2
			c0.2-0.4,0.5-0.8,0.7-1.3c0.3-0.5,0.6-0.7,1-0.8C101.9,73.3,101.9,70.5,101.9,67.8z"/>
		<path class="st4" d="M136.8,75.1c0,4-0.2,7.3-0.6,9.8c-0.2,1.5-0.8,2.2-1.7,2.2c-1,0-1.5-0.6-1.5-1.7c0-0.1,0.1-0.6,0.2-1.7
			c0.1-1.3,0.3-2.6,0.4-3.9c0.1-2,0.2-4,0.2-6.2c0-3.7-0.2-7.7-0.8-12c-2.4,2.5-4.5,6.3-6.4,11.6c-0.4,1.1-0.7,2.2-1.1,3.3
			c-0.4,0.8-0.9,1.2-1.5,1.2c-0.6,0-1-0.3-1.3-1c-0.1-0.2-0.4-1.2-0.8-2.8c-1.2-4.3-3.4-8.4-6.7-12.2c-1.1,3.7-1.7,8.9-1.7,15.3
			c0,0.9,0,2.1,0.1,3.5c0.1,1.4,0.1,2.3,0.1,2.7c0,1.6-0.5,2.4-1.5,2.4c-0.8,0-1.3-0.5-1.5-1.5c-0.1-0.7-0.2-2.4-0.2-5
			c0-7,0.6-12.8,1.6-17.4c0.3-1.6,0.7-2.7,1-3.3c0.4-0.7,0.9-1,1.5-1c0.6,0,1.4,0.5,2.2,1.4c1.7,2,3,3.7,4,5.1
			c1.5,2.3,2.7,4.8,3.7,7.5c1.8-4.6,3.8-8.2,5.8-11c1.7-2.5,3.1-3.7,4.1-3.7c0.4,0,0.7,0.2,1,0.6c0.2,0.3,0.4,1,0.6,1.9
			C136.6,62.5,136.9,67.8,136.8,75.1z"/>
		<path class="st4" d="M154.5,74.8c-0.2,2.8-0.7,5.8-1.7,8.9c-0.5,1.5-1.1,2.3-1.9,2.2c-0.8-0.1-1.2-0.6-1.1-1.5
			c0-0.2,0-0.4,0.1-0.5c-1,0.5-2.1,0.7-3.2,0.7c-1.9-0.1-3.3-0.8-4.3-2c-1-1.2-1.4-2.8-1.3-4.9c0.1-2.1,0.8-3.7,2-4.8
			c1.2-1.1,2.8-1.6,4.7-1.5c1.7,0.1,3,0.8,4.1,2c0.1-4.1-1.3-6.3-4-6.4c-0.6,0-1.2,0.1-2,0.4c-0.7,0.3-1.2,0.5-1.4,0.5
			c-0.3,0-0.6-0.2-0.9-0.5c-0.2-0.3-0.4-0.6-0.3-1c0-0.6,0.5-1.2,1.4-1.6c0.9-0.5,2.1-0.7,3.3-0.6C152.8,64.4,154.9,67.9,154.5,74.8
			z M151.3,78.2c0.2-2.6-0.9-4-3.3-4.2c-2.6-0.2-3.9,1.1-4.1,3.7c-0.2,2.6,1,4,3.6,4.2c1.1,0.1,2-0.2,2.7-0.9
			C150.9,80.4,151.2,79.5,151.3,78.2z"/>
		<path class="st4" d="M171.1,71.4c0,0.4-0.2,0.7-0.4,0.9c-0.2,0.2-0.5,0.3-0.8,0.3c-0.1,0-0.7-0.3-1.6-0.8s-1.9-0.8-2.8-0.9
			c-0.3,0-0.6,0-0.9,0c-0.5,1.6-0.9,3.2-1,4.6c-0.2,1.8,0,3.2,0.4,4.3c0.5,1,1.2,1.6,2.3,1.7c0.3,0,0.7,0,1.3-0.2
			c0.5-0.2,0.9-0.2,1.1-0.2c0.8,0.1,1.1,0.6,1,1.6c-0.1,0.6-0.4,1.1-1.1,1.4c-0.7,0.3-1.6,0.4-2.7,0.3c-4.1-0.5-5.9-3.6-5.3-9.5
			c0.1-1.2,0.4-2.6,0.8-4c-0.3,0-0.9,0.1-1.8,0.2c-0.6,0.1-1.1,0.1-1.3,0c-1-0.1-1.5-0.6-1.4-1.5c0.1-1.2,2-1.7,5.6-1.7
			c1-2.4,2-3.6,3.1-3.4c0.3,0,0.6,0.2,0.8,0.5c0.2,0.3,0.3,0.6,0.3,1c0,0.3-0.1,0.6-0.3,1c-0.2,0.4-0.4,0.8-0.6,1.2
			C169.5,68.7,171.3,69.8,171.1,71.4z"/>
		<path class="st4" d="M187.8,82.8c-0.2,1.1-1.4,2.2-3.8,3.5c-1.6,0.9-3.6,1.1-6,0.6c-2.3-0.5-4-1.6-5.1-3.5
			c-1.1-1.9-1.4-4.3-0.9-7.2c0.6-3.7,1.9-6.5,3.9-8.2c1.9-1.8,4.3-2.4,7-1.8c2,0.4,3.6,1.2,4.7,2.4c1.1,1.1,1.5,2.3,1.3,3.6
			c-0.2,1-0.7,1.5-1.6,1.3c-0.4-0.1-0.7-0.3-0.8-0.7c-0.1-0.5-0.3-1.1-0.5-1.8c-0.5-1-1.7-1.6-3.5-2c-1.9-0.4-3.5,0.1-4.8,1.4
			s-2.2,3.4-2.7,6.1c-0.8,4.4,0.5,7,3.8,7.6c1.9,0.4,3.7,0,5.3-1.2c0,0,0.4-0.4,1.1-1.2c0.4-0.5,0.9-0.7,1.3-0.6
			c0.3,0.1,0.6,0.3,0.9,0.6C187.7,82.1,187.8,82.5,187.8,82.8z"/>
		<path class="st4" d="M205.1,88.8c-1.5,2.5-2.9,4.4-4.2,5.7c-1.3,1.2-2.2,1.6-2.9,1.1c-0.4-0.2-0.6-0.6-0.7-1
			c-0.1-0.4-0.1-0.8,0.1-1.1c2.6-2.6,4.3-4.7,5.3-6.3c1.4-2.4,2.1-4.3,2.2-5.8c0.1-1.5-0.4-2.6-1.6-3.4c-0.6-0.4-1.4-0.7-2.2-0.8
			c-0.9-0.1-1.6,0-2.2,0.2c-0.8,0.3-1.5,1.1-2.2,2.3l-0.5,0.9c-1.3,2.3-2.5,4.5-3.5,6.8c-1.1,2.2-1.6,3.3-1.5,3.1
			c-0.5,0.9-1.1,1.1-1.9,0.6c-0.4-0.3-0.7-0.6-0.7-1c0-0.4,0.1-0.9,0.5-1.8c0.9-2.3,2.3-5.1,4.3-8.5c1.7-3,4-6.3,6.9-9.7
			c0.6-0.8,1.1-1.2,1.4-1.4c0.4-0.2,0.8-0.2,1.3,0c0.3,0.2,0.5,0.5,0.6,0.9c0.1,0.4,0,0.8-0.2,1.2c0,0-1.1,1.3-3.2,4.1
			c1.7-0.4,3.4-0.1,5,1C208.6,78.2,208.7,82.6,205.1,88.8z"/>
	</g>
</g>
</svg>
